<svg width="188" height="189" viewBox="0 0 188 189" fill="none" xmlns="http://www.w3.org/2000/svg">
<g id="Department card">
<g id="Rectangle 38" filter="url(#filter0_d_4295_1708)">
<path d="M3.6 23.5C3.6 13.0618 12.0618 4.6 22.5 4.6H157.5C167.938 4.6 176.4 13.0618 176.4 23.5V158.5C176.4 168.938 167.938 177.4 157.5 177.4H22.5C12.0618 177.4 3.6 168.938 3.6 158.5V23.5Z" stroke="url(#paint0_linear_4295_1708)" stroke-width="7.2" shape-rendering="crispEdges"/>
</g>
<g id="Form design">
<g id="Mask group">
<mask id="mask0_4295_1708" style="mask-type:alpha" maskUnits="userSpaceOnUse" x="60" y="-50" width="184" height="100">
<path id="Ellipse 6" d="M243.768 -49.4425C243.768 -36.436 241.395 -23.5569 236.785 -11.5405C232.175 0.475876 225.418 11.3942 216.899 20.5912C208.381 29.7881 198.268 37.0836 187.139 42.0609C176.009 47.0383 164.08 49.6001 152.034 49.6001C139.987 49.6001 128.058 47.0383 116.929 42.0609C105.799 37.0835 95.6863 29.7881 87.168 20.5912C78.6498 11.3942 71.8927 0.475861 67.2826 -11.5405C62.6726 -23.5569 60.2998 -36.436 60.2998 -49.4425L152.034 -49.4425H243.768Z" fill="#061C21"/>
</mask>
<g mask="url(#mask0_4295_1708)">
<rect id="Rectangle 15" x="54.8506" y="1.87653" width="118.679" height="79.1033" rx="13.86" fill="#023047"/>
</g>
</g>
<g id="Mask group_2">
<g id="Mask group_3">
<mask id="mask1_4295_1708" style="mask-type:alpha" maskUnits="userSpaceOnUse" x="86" y="-53" width="184" height="100">
<path id="Ellipse 7" d="M270 -52.0574C270 -39.051 267.627 -26.1719 263.017 -14.1555C258.407 -2.13911 251.65 8.77925 243.132 17.9762C234.614 27.1731 224.501 34.4686 213.371 39.4459C202.242 44.4233 190.313 46.9851 178.266 46.9851C166.219 46.9851 154.291 44.4233 143.161 39.4459C132.031 34.4686 121.919 27.1731 113.4 17.9762C104.882 8.77924 98.1251 -2.13913 93.5151 -14.1555C88.905 -26.1719 86.5322 -39.051 86.5322 -52.0575L178.266 -52.0574H270Z" fill="#061C21"/>
</mask>
<g mask="url(#mask1_4295_1708)">
<rect id="Rectangle 14" x="56.9619" y="0.976746" width="117.468" height="92.832" rx="16.2" fill="#219EBC"/>
</g>
</g>
</g>
</g>
<g id="Group 15">
<g id="Frame 41">
<path id="EE" d="M26.5615 61.1266H29.4668L34.3252 74.5055L39.1714 61.1266H42.0889L35.4849 78.9H33.1533L26.5615 61.1266ZM25.0967 61.1266H27.9409L28.4536 73.419V78.9H25.0967V61.1266ZM40.6973 61.1266H43.5537V78.9H40.1968V73.419L40.6973 61.1266ZM58.7515 76.2633V78.9H49.3032V76.2633H58.7515ZM50.3286 61.1266V78.9H46.9717V61.1266H50.3286ZM57.5186 68.463V71.0387H49.3032V68.463H57.5186ZM58.7148 61.1266V63.7755H49.3032V61.1266H58.7148Z" fill="#023047"/>
<path id="Electrical engineering" d="M25.353 97.525H27.103L30.3921 106.298L33.6733 97.525H35.4233L31.0796 108.9H29.689L25.353 97.525ZM24.5562 97.525H26.2202L26.5093 105.119V108.9H24.5562V97.525ZM34.5562 97.525H36.228V108.9H34.2671V105.119L34.5562 97.525ZM42.0952 109.056C41.4702 109.056 40.9051 108.955 40.3999 108.752C39.8999 108.543 39.4728 108.254 39.1187 107.884C38.7697 107.515 38.5015 107.08 38.314 106.58C38.1265 106.08 38.0327 105.541 38.0327 104.962V104.65C38.0327 103.989 38.1291 103.39 38.3218 102.853C38.5145 102.317 38.7827 101.858 39.1265 101.478C39.4702 101.093 39.8765 100.798 40.3452 100.595C40.814 100.392 41.3218 100.291 41.8687 100.291C42.4728 100.291 43.0015 100.392 43.4546 100.595C43.9077 100.798 44.2827 101.085 44.5796 101.455C44.8817 101.819 45.1056 102.254 45.2515 102.759C45.4025 103.265 45.478 103.822 45.478 104.431V105.236H38.9468V103.884H43.6187V103.736C43.6082 103.397 43.5405 103.08 43.4155 102.783C43.2957 102.486 43.1108 102.246 42.8608 102.064C42.6108 101.882 42.2775 101.791 41.8608 101.791C41.5483 101.791 41.2697 101.858 41.0249 101.994C40.7853 102.124 40.5848 102.314 40.4233 102.564C40.2619 102.814 40.1369 103.116 40.0483 103.47C39.965 103.819 39.9233 104.212 39.9233 104.65V104.962C39.9233 105.332 39.9728 105.676 40.0718 105.994C40.1759 106.306 40.327 106.58 40.5249 106.814C40.7228 107.048 40.9624 107.233 41.2437 107.369C41.5249 107.499 41.8452 107.564 42.2046 107.564C42.6577 107.564 43.0614 107.473 43.4155 107.291C43.7697 107.108 44.077 106.851 44.3374 106.517L45.3296 107.478C45.1473 107.744 44.9103 107.999 44.6187 108.244C44.327 108.483 43.9702 108.679 43.5483 108.83C43.1317 108.981 42.6473 109.056 42.0952 109.056ZM50.3999 107.556C50.7072 107.556 50.9832 107.496 51.228 107.377C51.478 107.252 51.6785 107.08 51.8296 106.861C51.9858 106.642 52.0718 106.39 52.0874 106.103H53.8608C53.8504 106.65 53.689 107.147 53.3765 107.595C53.064 108.043 52.6499 108.4 52.1343 108.666C51.6187 108.926 51.0483 109.056 50.4233 109.056C49.7775 109.056 49.215 108.947 48.7358 108.728C48.2567 108.504 47.8582 108.197 47.5405 107.806C47.2228 107.416 46.9832 106.965 46.8218 106.455C46.6655 105.944 46.5874 105.397 46.5874 104.814V104.541C46.5874 103.957 46.6655 103.41 46.8218 102.9C46.9832 102.384 47.2228 101.931 47.5405 101.541C47.8582 101.15 48.2567 100.845 48.7358 100.627C49.215 100.403 49.7749 100.291 50.4155 100.291C51.0926 100.291 51.6864 100.426 52.1968 100.697C52.7072 100.962 53.1082 101.335 53.3999 101.814C53.6968 102.288 53.8504 102.84 53.8608 103.47H52.0874C52.0718 103.158 51.9937 102.877 51.853 102.627C51.7176 102.371 51.5249 102.168 51.2749 102.017C51.0301 101.866 50.7358 101.791 50.3921 101.791C50.0119 101.791 49.6968 101.869 49.4468 102.025C49.1968 102.176 49.0015 102.384 48.8608 102.65C48.7202 102.91 48.6187 103.205 48.5562 103.533C48.4989 103.856 48.4702 104.192 48.4702 104.541V104.814C48.4702 105.163 48.4989 105.502 48.5562 105.83C48.6134 106.158 48.7124 106.452 48.853 106.712C48.9989 106.968 49.1968 107.173 49.4468 107.33C49.6968 107.481 50.0145 107.556 50.3999 107.556ZM57.1655 96.9V108.9H55.2905V96.9H57.1655ZM56.8374 104.361L56.228 104.353C56.2332 103.77 56.314 103.231 56.4702 102.736C56.6317 102.241 56.8556 101.811 57.1421 101.447C57.4338 101.077 57.7827 100.793 58.189 100.595C58.5952 100.392 59.0457 100.291 59.5405 100.291C59.9572 100.291 60.3322 100.348 60.6655 100.462C61.0041 100.577 61.2957 100.762 61.5405 101.017C61.7853 101.267 61.9702 101.595 62.0952 102.002C62.2254 102.403 62.2905 102.892 62.2905 103.47V108.9H60.3999V103.455C60.3999 103.048 60.34 102.726 60.2202 102.486C60.1056 102.246 59.9364 102.074 59.7124 101.97C59.4884 101.861 59.215 101.806 58.8921 101.806C58.5535 101.806 58.2541 101.874 57.9937 102.009C57.7384 102.145 57.5249 102.33 57.353 102.564C57.1812 102.798 57.0509 103.069 56.9624 103.377C56.8791 103.684 56.8374 104.012 56.8374 104.361ZM68.9624 107.205V103.173C68.9624 102.871 68.9077 102.611 68.7983 102.392C68.689 102.173 68.5223 102.004 68.2983 101.884C68.0796 101.765 67.8035 101.705 67.4702 101.705C67.1629 101.705 66.8973 101.757 66.6733 101.861C66.4494 101.965 66.2749 102.106 66.1499 102.283C66.0249 102.46 65.9624 102.66 65.9624 102.884H64.0874C64.0874 102.551 64.1681 102.228 64.3296 101.916C64.491 101.603 64.7254 101.324 65.0327 101.08C65.34 100.835 65.7072 100.642 66.1343 100.502C66.5614 100.361 67.0405 100.291 67.5718 100.291C68.2072 100.291 68.7697 100.397 69.2593 100.611C69.7541 100.824 70.1421 101.147 70.4233 101.58C70.7098 102.007 70.853 102.543 70.853 103.189V106.947C70.853 107.332 70.8791 107.679 70.9312 107.986C70.9884 108.288 71.0692 108.551 71.1733 108.775V108.9H69.2437C69.1551 108.697 69.0848 108.439 69.0327 108.127C68.9858 107.809 68.9624 107.502 68.9624 107.205ZM69.2358 103.759L69.2515 104.923H67.8999C67.5509 104.923 67.2437 104.957 66.978 105.025C66.7124 105.087 66.491 105.181 66.314 105.306C66.1369 105.431 66.0041 105.582 65.9155 105.759C65.827 105.936 65.7827 106.137 65.7827 106.361C65.7827 106.585 65.8348 106.791 65.939 106.978C66.0431 107.16 66.1942 107.304 66.3921 107.408C66.5952 107.512 66.84 107.564 67.1265 107.564C67.5119 107.564 67.8478 107.486 68.1343 107.33C68.4259 107.168 68.6551 106.973 68.8218 106.744C68.9884 106.509 69.077 106.288 69.0874 106.08L69.6968 106.916C69.6343 107.129 69.5275 107.358 69.3765 107.603C69.2254 107.848 69.0275 108.082 68.7827 108.306C68.5431 108.525 68.2541 108.705 67.9155 108.845C67.5822 108.986 67.1968 109.056 66.7593 109.056C66.2072 109.056 65.715 108.947 65.2827 108.728C64.8504 108.504 64.5119 108.205 64.2671 107.83C64.0223 107.449 63.8999 107.02 63.8999 106.541C63.8999 106.093 63.9832 105.697 64.1499 105.353C64.3218 105.004 64.5718 104.712 64.8999 104.478C65.2332 104.244 65.6395 104.067 66.1187 103.947C66.5978 103.822 67.1447 103.759 67.7593 103.759H69.2358ZM74.689 102.252V108.9H72.8062V100.447H74.5796L74.689 102.252ZM74.353 104.361L73.7437 104.353C73.7489 103.754 73.8322 103.205 73.9937 102.705C74.1603 102.205 74.3895 101.775 74.6812 101.416C74.978 101.056 75.3322 100.78 75.7437 100.587C76.1551 100.39 76.6134 100.291 77.1187 100.291C77.5249 100.291 77.8921 100.348 78.2202 100.462C78.5535 100.572 78.8374 100.752 79.0718 101.002C79.3114 101.252 79.4937 101.577 79.6187 101.978C79.7437 102.374 79.8062 102.861 79.8062 103.439V108.9H77.9155V103.431C77.9155 103.025 77.8556 102.705 77.7358 102.47C77.6213 102.231 77.452 102.061 77.228 101.962C77.0093 101.858 76.7358 101.806 76.4077 101.806C76.0848 101.806 75.7957 101.874 75.5405 102.009C75.2853 102.145 75.0692 102.33 74.8921 102.564C74.7202 102.798 74.5874 103.069 74.4937 103.377C74.3999 103.684 74.353 104.012 74.353 104.361ZM83.7437 100.447V108.9H81.853V100.447H83.7437ZM81.728 98.2281C81.728 97.9417 81.8218 97.7047 82.0093 97.5172C82.202 97.3245 82.4676 97.2281 82.8062 97.2281C83.1395 97.2281 83.4025 97.3245 83.5952 97.5172C83.7879 97.7047 83.8843 97.9417 83.8843 98.2281C83.8843 98.5094 83.7879 98.7437 83.5952 98.9312C83.4025 99.1187 83.1395 99.2125 82.8062 99.2125C82.4676 99.2125 82.202 99.1187 82.0093 98.9312C81.8218 98.7437 81.728 98.5094 81.728 98.2281ZM89.2593 107.556C89.5666 107.556 89.8426 107.496 90.0874 107.377C90.3374 107.252 90.5379 107.08 90.689 106.861C90.8452 106.642 90.9312 106.39 90.9468 106.103H92.7202C92.7098 106.65 92.5483 107.147 92.2358 107.595C91.9233 108.043 91.5093 108.4 90.9937 108.666C90.478 108.926 89.9077 109.056 89.2827 109.056C88.6369 109.056 88.0744 108.947 87.5952 108.728C87.116 108.504 86.7176 108.197 86.3999 107.806C86.0822 107.416 85.8426 106.965 85.6812 106.455C85.5249 105.944 85.4468 105.397 85.4468 104.814V104.541C85.4468 103.957 85.5249 103.41 85.6812 102.9C85.8426 102.384 86.0822 101.931 86.3999 101.541C86.7176 101.15 87.116 100.845 87.5952 100.627C88.0744 100.403 88.6343 100.291 89.2749 100.291C89.952 100.291 90.5457 100.426 91.0562 100.697C91.5666 100.962 91.9676 101.335 92.2593 101.814C92.5562 102.288 92.7098 102.84 92.7202 103.47H90.9468C90.9312 103.158 90.853 102.877 90.7124 102.627C90.577 102.371 90.3843 102.168 90.1343 102.017C89.8895 101.866 89.5952 101.791 89.2515 101.791C88.8713 101.791 88.5562 101.869 88.3062 102.025C88.0562 102.176 87.8608 102.384 87.7202 102.65C87.5796 102.91 87.478 103.205 87.4155 103.533C87.3582 103.856 87.3296 104.192 87.3296 104.541V104.814C87.3296 105.163 87.3582 105.502 87.4155 105.83C87.4728 106.158 87.5718 106.452 87.7124 106.712C87.8582 106.968 88.0562 107.173 88.3062 107.33C88.5562 107.481 88.8739 107.556 89.2593 107.556ZM98.9312 107.205V103.173C98.9312 102.871 98.8765 102.611 98.7671 102.392C98.6577 102.173 98.491 102.004 98.2671 101.884C98.0483 101.765 97.7723 101.705 97.439 101.705C97.1317 101.705 96.866 101.757 96.6421 101.861C96.4181 101.965 96.2437 102.106 96.1187 102.283C95.9937 102.46 95.9312 102.66 95.9312 102.884H94.0562C94.0562 102.551 94.1369 102.228 94.2983 101.916C94.4598 101.603 94.6942 101.324 95.0015 101.08C95.3088 100.835 95.6759 100.642 96.103 100.502C96.5301 100.361 97.0093 100.291 97.5405 100.291C98.1759 100.291 98.7384 100.397 99.228 100.611C99.7228 100.824 100.111 101.147 100.392 101.58C100.679 102.007 100.822 102.543 100.822 103.189V106.947C100.822 107.332 100.848 107.679 100.9 107.986C100.957 108.288 101.038 108.551 101.142 108.775V108.9H99.2124C99.1239 108.697 99.0535 108.439 99.0015 108.127C98.9546 107.809 98.9312 107.502 98.9312 107.205ZM99.2046 103.759L99.2202 104.923H97.8687C97.5197 104.923 97.2124 104.957 96.9468 105.025C96.6812 105.087 96.4598 105.181 96.2827 105.306C96.1056 105.431 95.9728 105.582 95.8843 105.759C95.7957 105.936 95.7515 106.137 95.7515 106.361C95.7515 106.585 95.8035 106.791 95.9077 106.978C96.0119 107.16 96.1629 107.304 96.3608 107.408C96.564 107.512 96.8088 107.564 97.0952 107.564C97.4806 107.564 97.8166 107.486 98.103 107.33C98.3947 107.168 98.6239 106.973 98.7905 106.744C98.9572 106.509 99.0457 106.288 99.0562 106.08L99.6655 106.916C99.603 107.129 99.4963 107.358 99.3452 107.603C99.1942 107.848 98.9963 108.082 98.7515 108.306C98.5119 108.525 98.2228 108.705 97.8843 108.845C97.5509 108.986 97.1655 109.056 96.728 109.056C96.1759 109.056 95.6838 108.947 95.2515 108.728C94.8192 108.504 94.4806 108.205 94.2358 107.83C93.991 107.449 93.8687 107.02 93.8687 106.541C93.8687 106.093 93.952 105.697 94.1187 105.353C94.2905 105.004 94.5405 104.712 94.8687 104.478C95.202 104.244 95.6082 104.067 96.0874 103.947C96.5666 103.822 97.1134 103.759 97.728 103.759H99.2046ZM104.806 96.9V108.9H102.916V96.9H104.806ZM32.0015 126.345V127.9H25.9624V126.345H32.0015ZM26.5171 116.525V127.9H24.5562V116.525H26.5171ZM31.2124 121.275V122.806H25.9624V121.275H31.2124ZM31.9624 116.525V118.087H25.9624V116.525H31.9624ZM35.2827 121.252V127.9H33.3999V119.447H35.1733L35.2827 121.252ZM34.9468 123.361L34.3374 123.353C34.3426 122.754 34.4259 122.205 34.5874 121.705C34.7541 121.205 34.9832 120.775 35.2749 120.416C35.5718 120.056 35.9259 119.78 36.3374 119.587C36.7489 119.39 37.2072 119.291 37.7124 119.291C38.1187 119.291 38.4858 119.348 38.814 119.462C39.1473 119.572 39.4312 119.752 39.6655 120.002C39.9051 120.252 40.0874 120.577 40.2124 120.978C40.3374 121.374 40.3999 121.861 40.3999 122.439V127.9H38.5093V122.431C38.5093 122.025 38.4494 121.705 38.3296 121.47C38.215 121.231 38.0457 121.061 37.8218 120.962C37.603 120.858 37.3296 120.806 37.0015 120.806C36.6785 120.806 36.3895 120.874 36.1343 121.009C35.8791 121.145 35.6629 121.33 35.4858 121.564C35.314 121.798 35.1812 122.069 35.0874 122.377C34.9937 122.684 34.9468 123.012 34.9468 123.361ZM47.7358 119.447H49.4468V127.666C49.4468 128.426 49.2853 129.072 48.9624 129.603C48.6395 130.134 48.189 130.538 47.6108 130.814C47.0327 131.095 46.3634 131.236 45.603 131.236C45.2801 131.236 44.9207 131.189 44.5249 131.095C44.1343 131.002 43.7541 130.851 43.3843 130.642C43.0197 130.439 42.715 130.171 42.4702 129.837L43.353 128.728C43.6551 129.087 43.9884 129.351 44.353 129.517C44.7176 129.684 45.1004 129.767 45.5015 129.767C45.9338 129.767 46.3009 129.686 46.603 129.525C46.9103 129.369 47.1473 129.137 47.314 128.83C47.4806 128.522 47.564 128.147 47.564 127.705V121.361L47.7358 119.447ZM41.9937 123.767V123.603C41.9937 122.962 42.0718 122.379 42.228 121.853C42.3843 121.322 42.6082 120.866 42.8999 120.486C43.1916 120.101 43.5457 119.806 43.9624 119.603C44.3791 119.395 44.8504 119.291 45.3765 119.291C45.9233 119.291 46.3895 119.39 46.7749 119.587C47.1655 119.785 47.491 120.069 47.7515 120.439C48.0119 120.804 48.215 121.241 48.3608 121.752C48.5119 122.257 48.6239 122.819 48.6968 123.439V123.962C48.6291 124.567 48.5145 125.119 48.353 125.619C48.1916 126.119 47.978 126.551 47.7124 126.916C47.4468 127.28 47.1187 127.561 46.728 127.759C46.3426 127.957 45.8869 128.056 45.3608 128.056C44.8452 128.056 44.3791 127.949 43.9624 127.736C43.5509 127.522 43.1968 127.223 42.8999 126.837C42.6082 126.452 42.3843 125.999 42.228 125.478C42.0718 124.952 41.9937 124.382 41.9937 123.767ZM43.8765 123.603V123.767C43.8765 124.153 43.9129 124.512 43.9858 124.845C44.064 125.179 44.1812 125.473 44.3374 125.728C44.4989 125.978 44.702 126.176 44.9468 126.322C45.1968 126.462 45.491 126.533 45.8296 126.533C46.2723 126.533 46.6343 126.439 46.9155 126.252C47.202 126.064 47.4207 125.811 47.5718 125.494C47.728 125.171 47.8374 124.811 47.8999 124.416V123.002C47.8687 122.694 47.8035 122.408 47.7046 122.142C47.6108 121.877 47.4832 121.645 47.3218 121.447C47.1603 121.244 46.9572 121.087 46.7124 120.978C46.4676 120.864 46.1785 120.806 45.8452 120.806C45.5067 120.806 45.2124 120.879 44.9624 121.025C44.7124 121.171 44.5067 121.371 44.3452 121.627C44.189 121.882 44.0718 122.179 43.9937 122.517C43.9155 122.856 43.8765 123.218 43.8765 123.603ZM53.4155 119.447V127.9H51.5249V119.447H53.4155ZM51.3999 117.228C51.3999 116.942 51.4937 116.705 51.6812 116.517C51.8739 116.324 52.1395 116.228 52.478 116.228C52.8114 116.228 53.0744 116.324 53.2671 116.517C53.4598 116.705 53.5562 116.942 53.5562 117.228C53.5562 117.509 53.4598 117.744 53.2671 117.931C53.0744 118.119 52.8114 118.212 52.478 118.212C52.1395 118.212 51.8739 118.119 51.6812 117.931C51.4937 117.744 51.3999 117.509 51.3999 117.228ZM57.3452 121.252V127.9H55.4624V119.447H57.2358L57.3452 121.252ZM57.0093 123.361L56.3999 123.353C56.4051 122.754 56.4884 122.205 56.6499 121.705C56.8166 121.205 57.0457 120.775 57.3374 120.416C57.6343 120.056 57.9884 119.78 58.3999 119.587C58.8114 119.39 59.2697 119.291 59.7749 119.291C60.1812 119.291 60.5483 119.348 60.8765 119.462C61.2098 119.572 61.4937 119.752 61.728 120.002C61.9676 120.252 62.1499 120.577 62.2749 120.978C62.3999 121.374 62.4624 121.861 62.4624 122.439V127.9H60.5718V122.431C60.5718 122.025 60.5119 121.705 60.3921 121.47C60.2775 121.231 60.1082 121.061 59.8843 120.962C59.6655 120.858 59.3921 120.806 59.064 120.806C58.741 120.806 58.452 120.874 58.1968 121.009C57.9416 121.145 57.7254 121.33 57.5483 121.564C57.3765 121.798 57.2437 122.069 57.1499 122.377C57.0562 122.684 57.0093 123.012 57.0093 123.361ZM68.1108 128.056C67.4858 128.056 66.9207 127.955 66.4155 127.752C65.9155 127.543 65.4884 127.254 65.1343 126.884C64.7853 126.515 64.5171 126.08 64.3296 125.58C64.1421 125.08 64.0483 124.541 64.0483 123.962V123.65C64.0483 122.989 64.1447 122.39 64.3374 121.853C64.5301 121.317 64.7983 120.858 65.1421 120.478C65.4858 120.093 65.8921 119.798 66.3608 119.595C66.8296 119.392 67.3374 119.291 67.8843 119.291C68.4884 119.291 69.0171 119.392 69.4702 119.595C69.9233 119.798 70.2983 120.085 70.5952 120.455C70.8973 120.819 71.1213 121.254 71.2671 121.759C71.4181 122.265 71.4937 122.822 71.4937 123.431V124.236H64.9624V122.884H69.6343V122.736C69.6239 122.397 69.5562 122.08 69.4312 121.783C69.3114 121.486 69.1265 121.246 68.8765 121.064C68.6265 120.882 68.2931 120.791 67.8765 120.791C67.564 120.791 67.2853 120.858 67.0405 120.994C66.8009 121.124 66.6004 121.314 66.439 121.564C66.2775 121.814 66.1525 122.116 66.064 122.47C65.9806 122.819 65.939 123.212 65.939 123.65V123.962C65.939 124.332 65.9884 124.676 66.0874 124.994C66.1916 125.306 66.3426 125.58 66.5405 125.814C66.7384 126.048 66.978 126.233 67.2593 126.369C67.5405 126.499 67.8608 126.564 68.2202 126.564C68.6733 126.564 69.077 126.473 69.4312 126.291C69.7853 126.108 70.0926 125.851 70.353 125.517L71.3452 126.478C71.1629 126.744 70.9259 126.999 70.6343 127.244C70.3426 127.483 69.9858 127.679 69.564 127.83C69.1473 127.981 68.6629 128.056 68.1108 128.056ZM76.689 128.056C76.064 128.056 75.4989 127.955 74.9937 127.752C74.4937 127.543 74.0666 127.254 73.7124 126.884C73.3634 126.515 73.0952 126.08 72.9077 125.58C72.7202 125.08 72.6265 124.541 72.6265 123.962V123.65C72.6265 122.989 72.7228 122.39 72.9155 121.853C73.1082 121.317 73.3765 120.858 73.7202 120.478C74.064 120.093 74.4702 119.798 74.939 119.595C75.4077 119.392 75.9155 119.291 76.4624 119.291C77.0666 119.291 77.5952 119.392 78.0483 119.595C78.5015 119.798 78.8765 120.085 79.1733 120.455C79.4754 120.819 79.6994 121.254 79.8452 121.759C79.9963 122.265 80.0718 122.822 80.0718 123.431V124.236H73.5405V122.884H78.2124V122.736C78.202 122.397 78.1343 122.08 78.0093 121.783C77.8895 121.486 77.7046 121.246 77.4546 121.064C77.2046 120.882 76.8713 120.791 76.4546 120.791C76.1421 120.791 75.8634 120.858 75.6187 120.994C75.3791 121.124 75.1785 121.314 75.0171 121.564C74.8556 121.814 74.7306 122.116 74.6421 122.47C74.5588 122.819 74.5171 123.212 74.5171 123.65V123.962C74.5171 124.332 74.5666 124.676 74.6655 124.994C74.7697 125.306 74.9207 125.58 75.1187 125.814C75.3166 126.048 75.5562 126.233 75.8374 126.369C76.1187 126.499 76.439 126.564 76.7983 126.564C77.2515 126.564 77.6551 126.473 78.0093 126.291C78.3634 126.108 78.6707 125.851 78.9312 125.517L79.9233 126.478C79.741 126.744 79.5041 126.999 79.2124 127.244C78.9207 127.483 78.564 127.679 78.1421 127.83C77.7254 127.981 77.241 128.056 76.689 128.056ZM83.4312 121.056V127.9H81.5483V119.447H83.3452L83.4312 121.056ZM86.0171 119.392L86.0015 121.142C85.8869 121.121 85.7619 121.106 85.6265 121.095C85.4963 121.085 85.366 121.08 85.2358 121.08C84.9129 121.08 84.6291 121.127 84.3843 121.22C84.1395 121.309 83.9338 121.439 83.7671 121.611C83.6056 121.778 83.4806 121.981 83.3921 122.22C83.3035 122.46 83.2515 122.728 83.2358 123.025L82.8062 123.056C82.8062 122.525 82.8582 122.033 82.9624 121.58C83.0666 121.127 83.2228 120.728 83.4312 120.384C83.6447 120.041 83.9103 119.772 84.228 119.58C84.5509 119.387 84.9233 119.291 85.3452 119.291C85.4598 119.291 85.5822 119.301 85.7124 119.322C85.8478 119.343 85.9494 119.366 86.0171 119.392ZM89.2124 119.447V127.9H87.3218V119.447H89.2124ZM87.1968 117.228C87.1968 116.942 87.2905 116.705 87.478 116.517C87.6707 116.324 87.9364 116.228 88.2749 116.228C88.6082 116.228 88.8713 116.324 89.064 116.517C89.2567 116.705 89.353 116.942 89.353 117.228C89.353 117.509 89.2567 117.744 89.064 117.931C88.8713 118.119 88.6082 118.212 88.2749 118.212C87.9364 118.212 87.6707 118.119 87.478 117.931C87.2905 117.744 87.1968 117.509 87.1968 117.228ZM93.1421 121.252V127.9H91.2593V119.447H93.0327L93.1421 121.252ZM92.8062 123.361L92.1968 123.353C92.202 122.754 92.2853 122.205 92.4468 121.705C92.6134 121.205 92.8426 120.775 93.1343 120.416C93.4312 120.056 93.7853 119.78 94.1968 119.587C94.6082 119.39 95.0666 119.291 95.5718 119.291C95.978 119.291 96.3452 119.348 96.6733 119.462C97.0067 119.572 97.2905 119.752 97.5249 120.002C97.7645 120.252 97.9468 120.577 98.0718 120.978C98.1968 121.374 98.2593 121.861 98.2593 122.439V127.9H96.3687V122.431C96.3687 122.025 96.3088 121.705 96.189 121.47C96.0744 121.231 95.9051 121.061 95.6812 120.962C95.4624 120.858 95.189 120.806 94.8608 120.806C94.5379 120.806 94.2489 120.874 93.9937 121.009C93.7384 121.145 93.5223 121.33 93.3452 121.564C93.1733 121.798 93.0405 122.069 92.9468 122.377C92.853 122.684 92.8062 123.012 92.8062 123.361ZM105.595 119.447H107.306V127.666C107.306 128.426 107.145 129.072 106.822 129.603C106.499 130.134 106.048 130.538 105.47 130.814C104.892 131.095 104.223 131.236 103.462 131.236C103.139 131.236 102.78 131.189 102.384 131.095C101.994 131.002 101.613 130.851 101.244 130.642C100.879 130.439 100.574 130.171 100.33 129.837L101.212 128.728C101.514 129.087 101.848 129.351 102.212 129.517C102.577 129.684 102.96 129.767 103.361 129.767C103.793 129.767 104.16 129.686 104.462 129.525C104.77 129.369 105.007 129.137 105.173 128.83C105.34 128.522 105.423 128.147 105.423 127.705V121.361L105.595 119.447ZM99.853 123.767V123.603C99.853 122.962 99.9312 122.379 100.087 121.853C100.244 121.322 100.468 120.866 100.759 120.486C101.051 120.101 101.405 119.806 101.822 119.603C102.238 119.395 102.71 119.291 103.236 119.291C103.783 119.291 104.249 119.39 104.634 119.587C105.025 119.785 105.35 120.069 105.611 120.439C105.871 120.804 106.074 121.241 106.22 121.752C106.371 122.257 106.483 122.819 106.556 123.439V123.962C106.488 124.567 106.374 125.119 106.212 125.619C106.051 126.119 105.837 126.551 105.572 126.916C105.306 127.28 104.978 127.561 104.587 127.759C104.202 127.957 103.746 128.056 103.22 128.056C102.705 128.056 102.238 127.949 101.822 127.736C101.41 127.522 101.056 127.223 100.759 126.837C100.468 126.452 100.244 125.999 100.087 125.478C99.9312 124.952 99.853 124.382 99.853 123.767ZM101.736 123.603V123.767C101.736 124.153 101.772 124.512 101.845 124.845C101.923 125.179 102.041 125.473 102.197 125.728C102.358 125.978 102.561 126.176 102.806 126.322C103.056 126.462 103.35 126.533 103.689 126.533C104.132 126.533 104.494 126.439 104.775 126.252C105.061 126.064 105.28 125.811 105.431 125.494C105.587 125.171 105.697 124.811 105.759 124.416V123.002C105.728 122.694 105.663 122.408 105.564 122.142C105.47 121.877 105.343 121.645 105.181 121.447C105.02 121.244 104.817 121.087 104.572 120.978C104.327 120.864 104.038 120.806 103.705 120.806C103.366 120.806 103.072 120.879 102.822 121.025C102.572 121.171 102.366 121.371 102.205 121.627C102.048 121.882 101.931 122.179 101.853 122.517C101.775 122.856 101.736 123.218 101.736 123.603Z" fill="#023047"/>
<a href="http://www.me.iitb.ac.in/">
<rect fill="black" fill-opacity="0" y="0.125" width="86.4766" height="18.75"/>
</a>
<a href="http://www.me.iitb.ac.in/">
<rect fill="black" fill-opacity="0" y="19.125" width="84.8828" height="18.75"/>
</a>
</g>
</g>
</g>
<defs>
<filter id="filter0_d_4295_1708" x="0" y="1" width="187.2" height="187.2" filterUnits="userSpaceOnUse" color-interpolation-filters="sRGB">
<feFlood flood-opacity="0" result="BackgroundImageFix"/>
<feColorMatrix in="SourceAlpha" type="matrix" values="0 0 0 0 0 0 0 0 0 0 0 0 0 0 0 0 0 0 127 0" result="hardAlpha"/>
<feOffset dx="3.6" dy="3.6"/>
<feGaussianBlur stdDeviation="1.8"/>
<feComposite in2="hardAlpha" operator="out"/>
<feColorMatrix type="matrix" values="0 0 0 0 0 0 0 0 0 0 0 0 0 0 0 0 0 0 0.25 0"/>
<feBlend mode="normal" in2="BackgroundImageFix" result="effect1_dropShadow_4295_1708"/>
<feBlend mode="normal" in="SourceGraphic" in2="effect1_dropShadow_4295_1708" result="shape"/>
</filter>
<linearGradient id="paint0_linear_4295_1708" x1="5.31818" y1="7.95455" x2="174.273" y2="45.5909" gradientUnits="userSpaceOnUse">
<stop stop-color="#023047"/>
<stop offset="0.472141" stop-color="#063E56"/>
<stop offset="1" stop-color="#219EBC"/>
</linearGradient>
</defs>
</svg>
