<svg width="188" height="189" viewBox="0 0 188 189" fill="none" xmlns="http://www.w3.org/2000/svg">
<g id="Department card">
<g id="Rectangle 38" filter="url(#filter0_d_4295_1075)">
<path d="M3.6 23.5C3.6 13.0618 12.0618 4.6 22.5 4.6H157.5C167.938 4.6 176.4 13.0618 176.4 23.5V158.5C176.4 168.938 167.938 177.4 157.5 177.4H22.5C12.0618 177.4 3.6 168.938 3.6 158.5V23.5Z" stroke="url(#paint0_linear_4295_1075)" stroke-width="7.2" shape-rendering="crispEdges"/>
</g>
<g id="Form design">
<g id="Mask group">
<mask id="mask0_4295_1075" style="mask-type:alpha" maskUnits="userSpaceOnUse" x="60" y="-50" width="184" height="100">
<path id="Ellipse 6" d="M243.768 -49.4425C243.768 -36.436 241.395 -23.5569 236.785 -11.5405C232.175 0.475876 225.418 11.3942 216.899 20.5912C208.381 29.7881 198.268 37.0836 187.139 42.0609C176.009 47.0383 164.08 49.6001 152.034 49.6001C139.987 49.6001 128.058 47.0383 116.929 42.0609C105.799 37.0835 95.6863 29.7881 87.168 20.5912C78.6498 11.3942 71.8927 0.475861 67.2826 -11.5405C62.6726 -23.5569 60.2998 -36.436 60.2998 -49.4425L152.034 -49.4425H243.768Z" fill="#061C21"/>
</mask>
<g mask="url(#mask0_4295_1075)">
<rect id="Rectangle 15" x="54.8506" y="1.87653" width="118.679" height="79.1033" rx="13.86" fill="#023047"/>
</g>
</g>
<g id="Mask group_2">
<g id="Mask group_3">
<mask id="mask1_4295_1075" style="mask-type:alpha" maskUnits="userSpaceOnUse" x="86" y="-53" width="184" height="100">
<path id="Ellipse 7" d="M270 -52.0574C270 -39.051 267.627 -26.1719 263.017 -14.1555C258.407 -2.13911 251.65 8.77925 243.132 17.9762C234.614 27.1731 224.501 34.4686 213.371 39.4459C202.242 44.4233 190.313 46.9851 178.266 46.9851C166.219 46.9851 154.291 44.4233 143.161 39.4459C132.031 34.4686 121.919 27.1731 113.4 17.9762C104.882 8.77924 98.1251 -2.13913 93.5151 -14.1555C88.905 -26.1719 86.5322 -39.051 86.5322 -52.0575L178.266 -52.0574H270Z" fill="#061C21"/>
</mask>
<g mask="url(#mask1_4295_1075)">
<rect id="Rectangle 14" x="56.9619" y="0.976746" width="117.468" height="92.832" rx="16.2" fill="#219EBC"/>
</g>
</g>
</g>
</g>
<g id="Group 15">
<g id="Frame 41">
<path id="EE" d="M35.4971 73.0529H38.854C38.7645 74.241 38.4349 75.2949 37.8652 76.2145C37.2956 77.1259 36.5021 77.8421 35.4849 78.3629C34.4676 78.8837 33.2347 79.1442 31.7861 79.1442C30.6712 79.1442 29.6662 78.9489 28.771 78.5582C27.884 78.1595 27.123 77.5939 26.4883 76.8615C25.8617 76.1209 25.3815 75.2338 25.0479 74.2003C24.7142 73.1587 24.5474 71.9908 24.5474 70.6969V69.3419C24.5474 68.048 24.7183 66.8802 25.0601 65.8385C25.4019 64.7968 25.8901 63.9098 26.5249 63.1774C27.1678 62.4368 27.9368 61.8671 28.832 61.4684C29.7354 61.0696 30.7445 60.8702 31.8594 60.8702C33.3079 60.8702 34.5327 61.1388 35.5337 61.6759C36.5347 62.2049 37.3118 62.9332 37.8652 63.861C38.4186 64.7887 38.7523 65.8548 38.8662 67.0592H35.5093C35.4442 66.3105 35.2814 65.6757 35.021 65.1549C34.7687 64.6341 34.3862 64.2394 33.8735 63.9708C33.369 63.6941 32.6976 63.5558 31.8594 63.5558C31.2083 63.5558 30.6346 63.6779 30.1382 63.922C29.6499 64.1661 29.243 64.5323 28.9175 65.0206C28.592 65.5008 28.3478 66.103 28.1851 66.8273C28.0223 67.5434 27.9409 68.3735 27.9409 69.3175V70.6969C27.9409 71.6002 28.0142 72.41 28.1606 73.1261C28.3071 73.8422 28.535 74.4485 28.8442 74.9449C29.1535 75.4414 29.5522 75.8198 30.0405 76.0802C30.5288 76.3406 31.1107 76.4708 31.7861 76.4708C32.6081 76.4708 33.2754 76.3406 33.7881 76.0802C34.3089 75.8198 34.7036 75.4373 34.9722 74.9327C35.2489 74.4282 35.4238 73.8016 35.4971 73.0529ZM53.2339 76.2633V78.9H43.7856V76.2633H53.2339ZM44.811 61.1266V78.9H41.4541V61.1266H44.811ZM52.001 68.463V71.0387H43.7856V68.463H52.001ZM53.1973 61.1266V63.7755H43.7856V61.1266H53.1973Z" fill="#023047"/>
<path id="Electrical engineering" d="M31.2749 105.197H33.228C33.1655 105.942 32.9572 106.606 32.603 107.189C32.2489 107.767 31.7515 108.223 31.1108 108.556C30.4702 108.89 29.6916 109.056 28.7749 109.056C28.0718 109.056 27.439 108.931 26.8765 108.681C26.314 108.426 25.8322 108.067 25.4312 107.603C25.0301 107.134 24.7228 106.569 24.5093 105.908C24.3009 105.246 24.1968 104.507 24.1968 103.689V102.744C24.1968 101.926 24.3035 101.186 24.5171 100.525C24.7358 99.8636 25.0483 99.2985 25.4546 98.8297C25.8608 98.3558 26.3478 97.9938 26.9155 97.7438C27.4884 97.4938 28.1317 97.3688 28.8452 97.3688C29.7515 97.3688 30.5171 97.5354 31.1421 97.8688C31.7671 98.2021 32.2515 98.663 32.5952 99.2516C32.9442 99.8401 33.1577 100.515 33.2358 101.275H31.2827C31.2306 100.785 31.116 100.366 30.939 100.017C30.7671 99.6683 30.5119 99.4026 30.1733 99.2203C29.8348 99.0328 29.3921 98.9391 28.8452 98.9391C28.3973 98.9391 28.0067 99.0224 27.6733 99.1891C27.34 99.3558 27.0614 99.6005 26.8374 99.9235C26.6134 100.246 26.4442 100.645 26.3296 101.119C26.2202 101.588 26.1655 102.124 26.1655 102.728V103.689C26.1655 104.262 26.215 104.783 26.314 105.252C26.4181 105.715 26.5744 106.114 26.7827 106.447C26.9963 106.78 27.2671 107.038 27.5952 107.22C27.9233 107.403 28.3166 107.494 28.7749 107.494C29.3322 107.494 29.7827 107.405 30.1265 107.228C30.4754 107.051 30.7384 106.793 30.9155 106.455C31.0978 106.111 31.2176 105.692 31.2749 105.197ZM36.8374 100.447V108.9H34.9468V100.447H36.8374ZM34.8218 98.2281C34.8218 97.9417 34.9155 97.7047 35.103 97.5172C35.2957 97.3245 35.5614 97.2281 35.8999 97.2281C36.2332 97.2281 36.4963 97.3245 36.689 97.5172C36.8817 97.7047 36.978 97.9417 36.978 98.2281C36.978 98.5094 36.8817 98.7438 36.689 98.9313C36.4963 99.1188 36.2332 99.2125 35.8999 99.2125C35.5614 99.2125 35.2957 99.1188 35.103 98.9313C34.9155 98.7438 34.8218 98.5094 34.8218 98.2281ZM41.6499 107.408L43.7202 100.447H45.6733L42.7358 108.9H41.5171L41.6499 107.408ZM40.064 100.447L42.1733 107.439L42.2749 108.9H41.0562L38.103 100.447H40.064ZM48.853 100.447V108.9H46.9624V100.447H48.853ZM46.8374 98.2281C46.8374 97.9417 46.9312 97.7047 47.1187 97.5172C47.3114 97.3245 47.577 97.2281 47.9155 97.2281C48.2489 97.2281 48.5119 97.3245 48.7046 97.5172C48.8973 97.7047 48.9937 97.9417 48.9937 98.2281C48.9937 98.5094 48.8973 98.7438 48.7046 98.9313C48.5119 99.1188 48.2489 99.2125 47.9155 99.2125C47.577 99.2125 47.3114 99.1188 47.1187 98.9313C46.9312 98.7438 46.8374 98.5094 46.8374 98.2281ZM52.9312 96.9V108.9H51.0405V96.9H52.9312ZM66.6108 107.345V108.9H60.5718V107.345H66.6108ZM61.1265 97.525V108.9H59.1655V97.525H61.1265ZM65.8218 102.275V103.806H60.5718V102.275H65.8218ZM66.5718 97.525V99.0875H60.5718V97.525H66.5718ZM69.8921 102.252V108.9H68.0093V100.447H69.7827L69.8921 102.252ZM69.5562 104.361L68.9468 104.353C68.952 103.754 69.0353 103.205 69.1968 102.705C69.3634 102.205 69.5926 101.775 69.8843 101.416C70.1812 101.056 70.5353 100.78 70.9468 100.588C71.3582 100.39 71.8166 100.291 72.3218 100.291C72.728 100.291 73.0952 100.348 73.4233 100.463C73.7567 100.572 74.0405 100.752 74.2749 101.002C74.5145 101.252 74.6968 101.577 74.8218 101.978C74.9468 102.374 75.0093 102.861 75.0093 103.439V108.9H73.1187V103.431C73.1187 103.025 73.0588 102.705 72.939 102.47C72.8244 102.231 72.6551 102.061 72.4312 101.963C72.2124 101.858 71.939 101.806 71.6108 101.806C71.2879 101.806 70.9989 101.874 70.7437 102.009C70.4884 102.145 70.2723 102.33 70.0952 102.564C69.9233 102.798 69.7905 103.069 69.6968 103.377C69.603 103.684 69.5562 104.012 69.5562 104.361ZM82.3452 100.447H84.0562V108.666C84.0562 109.426 83.8947 110.072 83.5718 110.603C83.2489 111.134 82.7983 111.538 82.2202 111.814C81.6421 112.095 80.9728 112.236 80.2124 112.236C79.8895 112.236 79.5301 112.189 79.1343 112.095C78.7437 112.002 78.3634 111.851 77.9937 111.642C77.6291 111.439 77.3244 111.171 77.0796 110.838L77.9624 109.728C78.2645 110.088 78.5978 110.351 78.9624 110.517C79.327 110.684 79.7098 110.767 80.1108 110.767C80.5431 110.767 80.9103 110.686 81.2124 110.525C81.5197 110.369 81.7567 110.137 81.9233 109.83C82.09 109.522 82.1733 109.147 82.1733 108.705V102.361L82.3452 100.447ZM76.603 104.767V104.603C76.603 103.963 76.6812 103.379 76.8374 102.853C76.9937 102.322 77.2176 101.866 77.5093 101.486C77.8009 101.101 78.1551 100.806 78.5718 100.603C78.9884 100.395 79.4598 100.291 79.9858 100.291C80.5327 100.291 80.9989 100.39 81.3843 100.588C81.7749 100.785 82.1004 101.069 82.3608 101.439C82.6213 101.804 82.8244 102.241 82.9702 102.752C83.1213 103.257 83.2332 103.819 83.3062 104.439V104.963C83.2384 105.567 83.1239 106.119 82.9624 106.619C82.8009 107.119 82.5874 107.551 82.3218 107.916C82.0562 108.28 81.728 108.561 81.3374 108.759C80.952 108.957 80.4963 109.056 79.9702 109.056C79.4546 109.056 78.9884 108.95 78.5718 108.736C78.1603 108.522 77.8062 108.223 77.5093 107.838C77.2176 107.452 76.9937 106.999 76.8374 106.478C76.6812 105.952 76.603 105.382 76.603 104.767ZM78.4858 104.603V104.767C78.4858 105.153 78.5223 105.512 78.5952 105.845C78.6733 106.179 78.7905 106.473 78.9468 106.728C79.1082 106.978 79.3114 107.176 79.5562 107.322C79.8062 107.463 80.1004 107.533 80.439 107.533C80.8817 107.533 81.2437 107.439 81.5249 107.252C81.8114 107.064 82.0301 106.811 82.1812 106.494C82.3374 106.171 82.4468 105.811 82.5093 105.416V104.002C82.478 103.694 82.4129 103.408 82.314 103.142C82.2202 102.877 82.0926 102.645 81.9312 102.447C81.7697 102.244 81.5666 102.088 81.3218 101.978C81.077 101.864 80.7879 101.806 80.4546 101.806C80.116 101.806 79.8218 101.879 79.5718 102.025C79.3218 102.171 79.116 102.371 78.9546 102.627C78.7983 102.882 78.6812 103.179 78.603 103.517C78.5249 103.856 78.4858 104.218 78.4858 104.603ZM88.0249 100.447V108.9H86.1343V100.447H88.0249ZM86.0093 98.2281C86.0093 97.9417 86.103 97.7047 86.2905 97.5172C86.4832 97.3245 86.7489 97.2281 87.0874 97.2281C87.4207 97.2281 87.6838 97.3245 87.8765 97.5172C88.0692 97.7047 88.1655 97.9417 88.1655 98.2281C88.1655 98.5094 88.0692 98.7438 87.8765 98.9313C87.6838 99.1188 87.4207 99.2125 87.0874 99.2125C86.7489 99.2125 86.4832 99.1188 86.2905 98.9313C86.103 98.7438 86.0093 98.5094 86.0093 98.2281ZM91.9546 102.252V108.9H90.0718V100.447H91.8452L91.9546 102.252ZM91.6187 104.361L91.0093 104.353C91.0145 103.754 91.0978 103.205 91.2593 102.705C91.4259 102.205 91.6551 101.775 91.9468 101.416C92.2437 101.056 92.5978 100.78 93.0093 100.588C93.4207 100.39 93.8791 100.291 94.3843 100.291C94.7905 100.291 95.1577 100.348 95.4858 100.463C95.8192 100.572 96.103 100.752 96.3374 101.002C96.577 101.252 96.7593 101.577 96.8843 101.978C97.0093 102.374 97.0718 102.861 97.0718 103.439V108.9H95.1812V103.431C95.1812 103.025 95.1213 102.705 95.0015 102.47C94.8869 102.231 94.7176 102.061 94.4937 101.963C94.2749 101.858 94.0015 101.806 93.6733 101.806C93.3504 101.806 93.0614 101.874 92.8062 102.009C92.5509 102.145 92.3348 102.33 92.1577 102.564C91.9858 102.798 91.853 103.069 91.7593 103.377C91.6655 103.684 91.6187 104.012 91.6187 104.361ZM102.72 109.056C102.095 109.056 101.53 108.955 101.025 108.752C100.525 108.543 100.098 108.254 99.7437 107.884C99.3947 107.515 99.1265 107.08 98.939 106.58C98.7515 106.08 98.6577 105.541 98.6577 104.963V104.65C98.6577 103.989 98.7541 103.39 98.9468 102.853C99.1395 102.317 99.4077 101.858 99.7515 101.478C100.095 101.093 100.501 100.798 100.97 100.595C101.439 100.392 101.947 100.291 102.494 100.291C103.098 100.291 103.626 100.392 104.08 100.595C104.533 100.798 104.908 101.085 105.205 101.455C105.507 101.819 105.731 102.254 105.876 102.759C106.028 103.265 106.103 103.822 106.103 104.431V105.236H99.5718V103.884H104.244V103.736C104.233 103.397 104.166 103.08 104.041 102.783C103.921 102.486 103.736 102.246 103.486 102.064C103.236 101.882 102.903 101.791 102.486 101.791C102.173 101.791 101.895 101.858 101.65 101.994C101.41 102.124 101.21 102.314 101.048 102.564C100.887 102.814 100.762 103.116 100.673 103.47C100.59 103.819 100.548 104.213 100.548 104.65V104.963C100.548 105.332 100.598 105.676 100.697 105.994C100.801 106.306 100.952 106.58 101.15 106.814C101.348 107.048 101.587 107.233 101.869 107.369C102.15 107.499 102.47 107.564 102.83 107.564C103.283 107.564 103.686 107.473 104.041 107.291C104.395 107.108 104.702 106.851 104.962 106.517L105.955 107.478C105.772 107.744 105.535 107.999 105.244 108.244C104.952 108.483 104.595 108.679 104.173 108.83C103.757 108.981 103.272 109.056 102.72 109.056ZM111.298 109.056C110.673 109.056 110.108 108.955 109.603 108.752C109.103 108.543 108.676 108.254 108.322 107.884C107.973 107.515 107.705 107.08 107.517 106.58C107.33 106.08 107.236 105.541 107.236 104.963V104.65C107.236 103.989 107.332 103.39 107.525 102.853C107.718 102.317 107.986 101.858 108.33 101.478C108.673 101.093 109.08 100.798 109.548 100.595C110.017 100.392 110.525 100.291 111.072 100.291C111.676 100.291 112.205 100.392 112.658 100.595C113.111 100.798 113.486 101.085 113.783 101.455C114.085 101.819 114.309 102.254 114.455 102.759C114.606 103.265 114.681 103.822 114.681 104.431V105.236H108.15V103.884H112.822V103.736C112.811 103.397 112.744 103.08 112.619 102.783C112.499 102.486 112.314 102.246 112.064 102.064C111.814 101.882 111.481 101.791 111.064 101.791C110.751 101.791 110.473 101.858 110.228 101.994C109.988 102.124 109.788 102.314 109.626 102.564C109.465 102.814 109.34 103.116 109.251 103.47C109.168 103.819 109.126 104.213 109.126 104.65V104.963C109.126 105.332 109.176 105.676 109.275 105.994C109.379 106.306 109.53 106.58 109.728 106.814C109.926 107.048 110.166 107.233 110.447 107.369C110.728 107.499 111.048 107.564 111.408 107.564C111.861 107.564 112.264 107.473 112.619 107.291C112.973 107.108 113.28 106.851 113.541 106.517L114.533 107.478C114.35 107.744 114.113 107.999 113.822 108.244C113.53 108.483 113.173 108.679 112.751 108.83C112.335 108.981 111.85 109.056 111.298 109.056ZM118.041 102.056V108.9H116.158V100.447H117.955L118.041 102.056ZM120.626 100.392L120.611 102.142C120.496 102.121 120.371 102.106 120.236 102.095C120.106 102.085 119.975 102.08 119.845 102.08C119.522 102.08 119.238 102.127 118.994 102.22C118.749 102.309 118.543 102.439 118.376 102.611C118.215 102.778 118.09 102.981 118.001 103.22C117.913 103.46 117.861 103.728 117.845 104.025L117.416 104.056C117.416 103.525 117.468 103.033 117.572 102.58C117.676 102.127 117.832 101.728 118.041 101.384C118.254 101.041 118.52 100.772 118.837 100.58C119.16 100.387 119.533 100.291 119.955 100.291C120.069 100.291 120.192 100.301 120.322 100.322C120.457 100.343 120.559 100.366 120.626 100.392ZM123.822 100.447V108.9H121.931V100.447H123.822ZM121.806 98.2281C121.806 97.9417 121.9 97.7047 122.087 97.5172C122.28 97.3245 122.546 97.2281 122.884 97.2281C123.218 97.2281 123.481 97.3245 123.673 97.5172C123.866 97.7047 123.962 97.9417 123.962 98.2281C123.962 98.5094 123.866 98.7438 123.673 98.9313C123.481 99.1188 123.218 99.2125 122.884 99.2125C122.546 99.2125 122.28 99.1188 122.087 98.9313C121.9 98.7438 121.806 98.5094 121.806 98.2281ZM127.751 102.252V108.9H125.869V100.447H127.642L127.751 102.252ZM127.416 104.361L126.806 104.353C126.811 103.754 126.895 103.205 127.056 102.705C127.223 102.205 127.452 101.775 127.744 101.416C128.041 101.056 128.395 100.78 128.806 100.588C129.218 100.39 129.676 100.291 130.181 100.291C130.587 100.291 130.955 100.348 131.283 100.463C131.616 100.572 131.9 100.752 132.134 101.002C132.374 101.252 132.556 101.577 132.681 101.978C132.806 102.374 132.869 102.861 132.869 103.439V108.9H130.978V103.431C130.978 103.025 130.918 102.705 130.798 102.47C130.684 102.231 130.514 102.061 130.291 101.963C130.072 101.858 129.798 101.806 129.47 101.806C129.147 101.806 128.858 101.874 128.603 102.009C128.348 102.145 128.132 102.33 127.955 102.564C127.783 102.798 127.65 103.069 127.556 103.377C127.462 103.684 127.416 104.012 127.416 104.361ZM140.205 100.447H141.916V108.666C141.916 109.426 141.754 110.072 141.431 110.603C141.108 111.134 140.658 111.538 140.08 111.814C139.501 112.095 138.832 112.236 138.072 112.236C137.749 112.236 137.389 112.189 136.994 112.095C136.603 112.002 136.223 111.851 135.853 111.642C135.488 111.439 135.184 111.171 134.939 110.838L135.822 109.728C136.124 110.088 136.457 110.351 136.822 110.517C137.186 110.684 137.569 110.767 137.97 110.767C138.403 110.767 138.77 110.686 139.072 110.525C139.379 110.369 139.616 110.137 139.783 109.83C139.949 109.522 140.033 109.147 140.033 108.705V102.361L140.205 100.447ZM134.462 104.767V104.603C134.462 103.963 134.541 103.379 134.697 102.853C134.853 102.322 135.077 101.866 135.369 101.486C135.66 101.101 136.014 100.806 136.431 100.603C136.848 100.395 137.319 100.291 137.845 100.291C138.392 100.291 138.858 100.39 139.244 100.588C139.634 100.785 139.96 101.069 140.22 101.439C140.481 101.804 140.684 102.241 140.83 102.752C140.981 103.257 141.093 103.819 141.166 104.439V104.963C141.098 105.567 140.983 106.119 140.822 106.619C140.66 107.119 140.447 107.551 140.181 107.916C139.916 108.28 139.587 108.561 139.197 108.759C138.811 108.957 138.356 109.056 137.83 109.056C137.314 109.056 136.848 108.95 136.431 108.736C136.02 108.522 135.666 108.223 135.369 107.838C135.077 107.452 134.853 106.999 134.697 106.478C134.541 105.952 134.462 105.382 134.462 104.767ZM136.345 104.603V104.767C136.345 105.153 136.382 105.512 136.455 105.845C136.533 106.179 136.65 106.473 136.806 106.728C136.968 106.978 137.171 107.176 137.416 107.322C137.666 107.463 137.96 107.533 138.298 107.533C138.741 107.533 139.103 107.439 139.384 107.252C139.671 107.064 139.889 106.811 140.041 106.494C140.197 106.171 140.306 105.811 140.369 105.416V104.002C140.337 103.694 140.272 103.408 140.173 103.142C140.08 102.877 139.952 102.645 139.791 102.447C139.629 102.244 139.426 102.088 139.181 101.978C138.936 101.864 138.647 101.806 138.314 101.806C137.975 101.806 137.681 101.879 137.431 102.025C137.181 102.171 136.975 102.371 136.814 102.627C136.658 102.882 136.541 103.179 136.462 103.517C136.384 103.856 136.345 104.218 136.345 104.603Z" fill="#023047"/>
<a href="http://www.civil.iitb.ac.in/">
<rect fill="black" fill-opacity="0" y="0.125" width="119.492" height="18.75"/>
</a>
</g>
</g>
</g>
<defs>
<filter id="filter0_d_4295_1075" x="0" y="1" width="187.2" height="187.2" filterUnits="userSpaceOnUse" color-interpolation-filters="sRGB">
<feFlood flood-opacity="0" result="BackgroundImageFix"/>
<feColorMatrix in="SourceAlpha" type="matrix" values="0 0 0 0 0 0 0 0 0 0 0 0 0 0 0 0 0 0 127 0" result="hardAlpha"/>
<feOffset dx="3.6" dy="3.6"/>
<feGaussianBlur stdDeviation="1.8"/>
<feComposite in2="hardAlpha" operator="out"/>
<feColorMatrix type="matrix" values="0 0 0 0 0 0 0 0 0 0 0 0 0 0 0 0 0 0 0.25 0"/>
<feBlend mode="normal" in2="BackgroundImageFix" result="effect1_dropShadow_4295_1075"/>
<feBlend mode="normal" in="SourceGraphic" in2="effect1_dropShadow_4295_1075" result="shape"/>
</filter>
<linearGradient id="paint0_linear_4295_1075" x1="5.31818" y1="7.95455" x2="174.273" y2="45.5909" gradientUnits="userSpaceOnUse">
<stop stop-color="#023047"/>
<stop offset="0.472141" stop-color="#063E56"/>
<stop offset="1" stop-color="#219EBC"/>
</linearGradient>
</defs>
</svg>
