<svg width="188" height="189" viewBox="0 0 188 189" fill="none" xmlns="http://www.w3.org/2000/svg">
<g id="Department card">
<g id="Rectangle 38" filter="url(#filter0_d_4295_1047)">
<path d="M3.6 23.5C3.6 13.0618 12.0618 4.6 22.5 4.6H157.5C167.938 4.6 176.4 13.0618 176.4 23.5V158.5C176.4 168.938 167.938 177.4 157.5 177.4H22.5C12.0618 177.4 3.6 168.938 3.6 158.5V23.5Z" stroke="url(#paint0_linear_4295_1047)" stroke-width="7.2" shape-rendering="crispEdges"/>
</g>
<g id="Form design">
<g id="Mask group">
<mask id="mask0_4295_1047" style="mask-type:alpha" maskUnits="userSpaceOnUse" x="60" y="-50" width="184" height="100">
<path id="Ellipse 6" d="M243.768 -49.4425C243.768 -36.436 241.395 -23.5569 236.785 -11.5405C232.175 0.475876 225.418 11.3942 216.899 20.5912C208.381 29.7881 198.268 37.0836 187.139 42.0609C176.009 47.0383 164.08 49.6001 152.034 49.6001C139.987 49.6001 128.058 47.0383 116.929 42.0609C105.799 37.0835 95.6863 29.7881 87.168 20.5912C78.6498 11.3942 71.8927 0.475861 67.2826 -11.5405C62.6726 -23.5569 60.2998 -36.436 60.2998 -49.4425L152.034 -49.4425H243.768Z" fill="#061C21"/>
</mask>
<g mask="url(#mask0_4295_1047)">
<rect id="Rectangle 15" x="54.8506" y="1.87653" width="118.679" height="79.1033" rx="13.86" fill="#023047"/>
</g>
</g>
<g id="Mask group_2">
<g id="Mask group_3">
<mask id="mask1_4295_1047" style="mask-type:alpha" maskUnits="userSpaceOnUse" x="86" y="-53" width="184" height="100">
<path id="Ellipse 7" d="M270 -52.0574C270 -39.051 267.627 -26.1719 263.017 -14.1555C258.407 -2.13911 251.65 8.77925 243.132 17.9762C234.614 27.1731 224.501 34.4686 213.371 39.4459C202.242 44.4233 190.313 46.9851 178.266 46.9851C166.219 46.9851 154.291 44.4233 143.161 39.4459C132.031 34.4686 121.919 27.1731 113.4 17.9762C104.882 8.77924 98.1251 -2.13913 93.5151 -14.1555C88.905 -26.1719 86.5322 -39.051 86.5322 -52.0575L178.266 -52.0574H270Z" fill="#061C21"/>
</mask>
<g mask="url(#mask1_4295_1047)">
<rect id="Rectangle 14" x="56.9619" y="0.976746" width="117.468" height="92.832" rx="16.2" fill="#219EBC"/>
</g>
</g>
</g>
</g>
<g id="Group 15">
<g id="Frame 41">
<path id="EE" d="M35.4971 73.0529H38.854C38.7645 74.241 38.4349 75.2949 37.8652 76.2145C37.2956 77.1259 36.5021 77.8421 35.4849 78.3629C34.4676 78.8837 33.2347 79.1442 31.7861 79.1442C30.6712 79.1442 29.6662 78.9489 28.771 78.5582C27.884 78.1595 27.123 77.5939 26.4883 76.8615C25.8617 76.1209 25.3815 75.2338 25.0479 74.2003C24.7142 73.1587 24.5474 71.9908 24.5474 70.6969V69.3419C24.5474 68.048 24.7183 66.8802 25.0601 65.8385C25.4019 64.7968 25.8901 63.9098 26.5249 63.1774C27.1678 62.4368 27.9368 61.8671 28.832 61.4684C29.7354 61.0696 30.7445 60.8702 31.8594 60.8702C33.3079 60.8702 34.5327 61.1388 35.5337 61.6759C36.5347 62.2049 37.3118 62.9332 37.8652 63.861C38.4186 64.7887 38.7523 65.8548 38.8662 67.0592H35.5093C35.4442 66.3105 35.2814 65.6757 35.021 65.1549C34.7687 64.6341 34.3862 64.2394 33.8735 63.9708C33.369 63.6941 32.6976 63.5558 31.8594 63.5558C31.2083 63.5558 30.6346 63.6779 30.1382 63.922C29.6499 64.1661 29.243 64.5323 28.9175 65.0206C28.592 65.5008 28.3478 66.103 28.1851 66.8273C28.0223 67.5434 27.9409 68.3735 27.9409 69.3175V70.6969C27.9409 71.6002 28.0142 72.41 28.1606 73.1261C28.3071 73.8422 28.535 74.4485 28.8442 74.9449C29.1535 75.4414 29.5522 75.8198 30.0405 76.0802C30.5288 76.3406 31.1107 76.4708 31.7861 76.4708C32.6081 76.4708 33.2754 76.3406 33.7881 76.0802C34.3089 75.8198 34.7036 75.4373 34.9722 74.9327C35.2489 74.4282 35.4238 73.8016 35.4971 73.0529ZM44.3716 60.15V78.9H41.1367V60.15H44.3716ZM43.8589 71.8199H42.9067C42.9067 70.9003 43.0288 70.054 43.2729 69.2809C43.5171 68.5078 43.863 67.8364 44.3105 67.2667C44.7581 66.6889 45.2912 66.2413 45.9097 65.924C46.5363 65.6066 47.228 65.4479 47.9849 65.4479C48.6359 65.4479 49.2259 65.5415 49.7549 65.7286C50.292 65.9077 50.7518 66.1966 51.1343 66.5953C51.5168 66.9941 51.8097 67.5149 52.0132 68.1578C52.2248 68.7926 52.3306 69.5657 52.3306 70.4772V78.9H49.0835V70.4528C49.0835 69.8424 48.994 69.3623 48.8149 69.0123C48.6359 68.6543 48.3796 68.3979 48.0459 68.2433C47.7204 68.0887 47.3175 68.0114 46.8374 68.0114C46.3166 68.0114 45.869 68.1131 45.4946 68.3165C45.1203 68.5118 44.811 68.7845 44.5669 69.1344C44.3309 69.4843 44.1519 69.8872 44.0298 70.3429C43.9159 70.7986 43.8589 71.291 43.8589 71.8199ZM67.1987 76.2633V78.9H57.7505V76.2633H67.1987ZM58.7759 61.1266V78.9H55.4189V61.1266H58.7759ZM65.9658 68.463V71.0387H57.7505V68.463H65.9658ZM67.1621 61.1266V63.7755H57.7505V61.1266H67.1621Z" fill="#023047"/>
<path id="Electrical engineering" d="M31.2749 105.197H33.228C33.1655 105.942 32.9572 106.606 32.603 107.189C32.2489 107.767 31.7515 108.223 31.1108 108.556C30.4702 108.89 29.6916 109.056 28.7749 109.056C28.0718 109.056 27.439 108.931 26.8765 108.681C26.314 108.426 25.8322 108.067 25.4312 107.603C25.0301 107.134 24.7228 106.569 24.5093 105.908C24.3009 105.246 24.1968 104.507 24.1968 103.689V102.744C24.1968 101.926 24.3035 101.186 24.5171 100.525C24.7358 99.8636 25.0483 99.2985 25.4546 98.8297C25.8608 98.3558 26.3478 97.9938 26.9155 97.7438C27.4884 97.4938 28.1317 97.3688 28.8452 97.3688C29.7515 97.3688 30.5171 97.5354 31.1421 97.8688C31.7671 98.2021 32.2515 98.663 32.5952 99.2516C32.9442 99.8401 33.1577 100.515 33.2358 101.275H31.2827C31.2306 100.785 31.116 100.366 30.939 100.017C30.7671 99.6683 30.5119 99.4026 30.1733 99.2203C29.8348 99.0328 29.3921 98.9391 28.8452 98.9391C28.3973 98.9391 28.0067 99.0224 27.6733 99.1891C27.34 99.3558 27.0614 99.6005 26.8374 99.9235C26.6134 100.246 26.4442 100.645 26.3296 101.119C26.2202 101.588 26.1655 102.124 26.1655 102.728V103.689C26.1655 104.262 26.215 104.783 26.314 105.252C26.4181 105.715 26.5744 106.114 26.7827 106.447C26.9963 106.78 27.2671 107.038 27.5952 107.22C27.9233 107.403 28.3166 107.494 28.7749 107.494C29.3322 107.494 29.7827 107.405 30.1265 107.228C30.4754 107.051 30.7384 106.793 30.9155 106.455C31.0978 106.111 31.2176 105.692 31.2749 105.197ZM36.6812 96.9V108.9H34.8062V96.9H36.6812ZM36.353 104.361L35.7437 104.353C35.7489 103.77 35.8296 103.231 35.9858 102.736C36.1473 102.241 36.3713 101.811 36.6577 101.447C36.9494 101.077 37.2983 100.793 37.7046 100.595C38.1108 100.392 38.5614 100.291 39.0562 100.291C39.4728 100.291 39.8478 100.348 40.1812 100.463C40.5197 100.577 40.8114 100.762 41.0562 101.017C41.3009 101.267 41.4858 101.595 41.6108 102.002C41.741 102.403 41.8062 102.892 41.8062 103.47V108.9H39.9155V103.455C39.9155 103.048 39.8556 102.726 39.7358 102.486C39.6213 102.246 39.452 102.075 39.228 101.97C39.0041 101.861 38.7306 101.806 38.4077 101.806C38.0692 101.806 37.7697 101.874 37.5093 102.009C37.2541 102.145 37.0405 102.33 36.8687 102.564C36.6968 102.798 36.5666 103.069 36.478 103.377C36.3947 103.684 36.353 104.012 36.353 104.361ZM47.439 109.056C46.814 109.056 46.2489 108.955 45.7437 108.752C45.2437 108.543 44.8166 108.254 44.4624 107.884C44.1134 107.515 43.8452 107.08 43.6577 106.58C43.4702 106.08 43.3765 105.541 43.3765 104.963V104.65C43.3765 103.989 43.4728 103.39 43.6655 102.853C43.8582 102.317 44.1265 101.858 44.4702 101.478C44.814 101.093 45.2202 100.798 45.689 100.595C46.1577 100.392 46.6655 100.291 47.2124 100.291C47.8166 100.291 48.3452 100.392 48.7983 100.595C49.2515 100.798 49.6265 101.085 49.9233 101.455C50.2254 101.819 50.4494 102.254 50.5952 102.759C50.7463 103.265 50.8218 103.822 50.8218 104.431V105.236H44.2905V103.884H48.9624V103.736C48.952 103.397 48.8843 103.08 48.7593 102.783C48.6395 102.486 48.4546 102.246 48.2046 102.064C47.9546 101.882 47.6213 101.791 47.2046 101.791C46.8921 101.791 46.6134 101.858 46.3687 101.994C46.1291 102.124 45.9285 102.314 45.7671 102.564C45.6056 102.814 45.4806 103.116 45.3921 103.47C45.3088 103.819 45.2671 104.213 45.2671 104.65V104.963C45.2671 105.332 45.3166 105.676 45.4155 105.994C45.5197 106.306 45.6707 106.58 45.8687 106.814C46.0666 107.048 46.3062 107.233 46.5874 107.369C46.8687 107.499 47.189 107.564 47.5483 107.564C48.0015 107.564 48.4051 107.473 48.7593 107.291C49.1134 107.108 49.4207 106.851 49.6812 106.517L50.6733 107.478C50.491 107.744 50.2541 107.999 49.9624 108.244C49.6707 108.483 49.314 108.679 48.8921 108.83C48.4754 108.981 47.991 109.056 47.439 109.056ZM54.1733 102.166V108.9H52.2905V100.447H54.064L54.1733 102.166ZM53.8687 104.361L53.228 104.353C53.228 103.77 53.3009 103.231 53.4468 102.736C53.5926 102.241 53.8062 101.811 54.0874 101.447C54.3687 101.077 54.7176 100.793 55.1343 100.595C55.5562 100.392 56.0431 100.291 56.5952 100.291C56.9806 100.291 57.3322 100.348 57.6499 100.463C57.9728 100.572 58.2515 100.746 58.4858 100.986C58.7254 101.226 58.9077 101.533 59.0327 101.908C59.1629 102.283 59.228 102.736 59.228 103.267V108.9H57.3452V103.431C57.3452 103.02 57.2827 102.697 57.1577 102.463C57.0379 102.228 56.8634 102.061 56.6343 101.963C56.4103 101.858 56.1421 101.806 55.8296 101.806C55.4754 101.806 55.1733 101.874 54.9233 102.009C54.6785 102.145 54.478 102.33 54.3218 102.564C54.1655 102.798 54.0509 103.069 53.978 103.377C53.9051 103.684 53.8687 104.012 53.8687 104.361ZM59.1108 103.861L58.228 104.056C58.228 103.546 58.2983 103.064 58.439 102.611C58.5848 102.153 58.7957 101.752 59.0718 101.408C59.353 101.059 59.6994 100.785 60.1108 100.588C60.5223 100.39 60.9937 100.291 61.5249 100.291C61.9572 100.291 62.3426 100.351 62.6812 100.47C63.0249 100.585 63.3166 100.767 63.5562 101.017C63.7957 101.267 63.978 101.593 64.103 101.994C64.228 102.39 64.2905 102.869 64.2905 103.431V108.9H62.3999V103.423C62.3999 102.996 62.3374 102.666 62.2124 102.431C62.0926 102.197 61.9207 102.035 61.6968 101.947C61.4728 101.853 61.2046 101.806 60.8921 101.806C60.6004 101.806 60.3426 101.861 60.1187 101.97C59.8999 102.075 59.715 102.223 59.564 102.416C59.4129 102.603 59.2983 102.819 59.2202 103.064C59.1473 103.309 59.1108 103.575 59.1108 103.861ZM68.2437 100.447V108.9H66.353V100.447H68.2437ZM66.228 98.2281C66.228 97.9417 66.3218 97.7047 66.5093 97.5172C66.702 97.3245 66.9676 97.2281 67.3062 97.2281C67.6395 97.2281 67.9025 97.3245 68.0952 97.5172C68.2879 97.7047 68.3843 97.9417 68.3843 98.2281C68.3843 98.5094 68.2879 98.7438 68.0952 98.9313C67.9025 99.1188 67.6395 99.2125 67.3062 99.2125C66.9676 99.2125 66.702 99.1188 66.5093 98.9313C66.3218 98.7438 66.228 98.5094 66.228 98.2281ZM73.7593 107.556C74.0666 107.556 74.3426 107.496 74.5874 107.377C74.8374 107.252 75.0379 107.08 75.189 106.861C75.3452 106.642 75.4312 106.39 75.4468 106.103H77.2202C77.2098 106.65 77.0483 107.147 76.7358 107.595C76.4233 108.043 76.0093 108.4 75.4937 108.666C74.978 108.926 74.4077 109.056 73.7827 109.056C73.1369 109.056 72.5744 108.947 72.0952 108.728C71.616 108.504 71.2176 108.197 70.8999 107.806C70.5822 107.416 70.3426 106.965 70.1812 106.455C70.0249 105.944 69.9468 105.397 69.9468 104.814V104.541C69.9468 103.957 70.0249 103.41 70.1812 102.9C70.3426 102.384 70.5822 101.931 70.8999 101.541C71.2176 101.15 71.616 100.845 72.0952 100.627C72.5744 100.403 73.1343 100.291 73.7749 100.291C74.452 100.291 75.0457 100.426 75.5562 100.697C76.0666 100.963 76.4676 101.335 76.7593 101.814C77.0562 102.288 77.2098 102.84 77.2202 103.47H75.4468C75.4312 103.158 75.353 102.877 75.2124 102.627C75.077 102.371 74.8843 102.168 74.6343 102.017C74.3895 101.866 74.0952 101.791 73.7515 101.791C73.3713 101.791 73.0562 101.869 72.8062 102.025C72.5562 102.176 72.3608 102.384 72.2202 102.65C72.0796 102.91 71.978 103.205 71.9155 103.533C71.8582 103.856 71.8296 104.192 71.8296 104.541V104.814C71.8296 105.163 71.8582 105.502 71.9155 105.83C71.9728 106.158 72.0718 106.452 72.2124 106.713C72.3582 106.968 72.5562 107.173 72.8062 107.33C73.0562 107.481 73.3739 107.556 73.7593 107.556ZM83.4312 107.205V103.173C83.4312 102.871 83.3765 102.611 83.2671 102.392C83.1577 102.173 82.991 102.004 82.7671 101.884C82.5483 101.765 82.2723 101.705 81.939 101.705C81.6317 101.705 81.366 101.757 81.1421 101.861C80.9181 101.965 80.7437 102.106 80.6187 102.283C80.4937 102.46 80.4312 102.66 80.4312 102.884H78.5562C78.5562 102.551 78.6369 102.228 78.7983 101.916C78.9598 101.603 79.1942 101.325 79.5015 101.08C79.8088 100.835 80.1759 100.642 80.603 100.502C81.0301 100.361 81.5093 100.291 82.0405 100.291C82.6759 100.291 83.2384 100.397 83.728 100.611C84.2228 100.825 84.6108 101.147 84.8921 101.58C85.1785 102.007 85.3218 102.543 85.3218 103.189V106.947C85.3218 107.332 85.3478 107.679 85.3999 107.986C85.4572 108.288 85.5379 108.551 85.6421 108.775V108.9H83.7124C83.6239 108.697 83.5535 108.439 83.5015 108.127C83.4546 107.809 83.4312 107.502 83.4312 107.205ZM83.7046 103.759L83.7202 104.923H82.3687C82.0197 104.923 81.7124 104.957 81.4468 105.025C81.1812 105.088 80.9598 105.181 80.7827 105.306C80.6056 105.431 80.4728 105.582 80.3843 105.759C80.2957 105.936 80.2515 106.137 80.2515 106.361C80.2515 106.585 80.3035 106.791 80.4077 106.978C80.5119 107.16 80.6629 107.304 80.8608 107.408C81.064 107.512 81.3088 107.564 81.5952 107.564C81.9806 107.564 82.3166 107.486 82.603 107.33C82.8947 107.168 83.1239 106.973 83.2905 106.744C83.4572 106.509 83.5457 106.288 83.5562 106.08L84.1655 106.916C84.103 107.129 83.9963 107.358 83.8452 107.603C83.6942 107.848 83.4963 108.082 83.2515 108.306C83.0119 108.525 82.7228 108.705 82.3843 108.845C82.0509 108.986 81.6655 109.056 81.228 109.056C80.6759 109.056 80.1838 108.947 79.7515 108.728C79.3192 108.504 78.9806 108.205 78.7358 107.83C78.491 107.45 78.3687 107.02 78.3687 106.541C78.3687 106.093 78.452 105.697 78.6187 105.353C78.7905 105.004 79.0405 104.713 79.3687 104.478C79.702 104.244 80.1082 104.067 80.5874 103.947C81.0666 103.822 81.6134 103.759 82.228 103.759H83.7046ZM89.3062 96.9V108.9H87.4155V96.9H89.3062ZM32.0015 126.345V127.9H25.9624V126.345H32.0015ZM26.5171 116.525V127.9H24.5562V116.525H26.5171ZM31.2124 121.275V122.806H25.9624V121.275H31.2124ZM31.9624 116.525V118.088H25.9624V116.525H31.9624ZM35.2827 121.252V127.9H33.3999V119.447H35.1733L35.2827 121.252ZM34.9468 123.361L34.3374 123.353C34.3426 122.754 34.4259 122.205 34.5874 121.705C34.7541 121.205 34.9832 120.775 35.2749 120.416C35.5718 120.056 35.9259 119.78 36.3374 119.588C36.7489 119.39 37.2072 119.291 37.7124 119.291C38.1187 119.291 38.4858 119.348 38.814 119.463C39.1473 119.572 39.4312 119.752 39.6655 120.002C39.9051 120.252 40.0874 120.577 40.2124 120.978C40.3374 121.374 40.3999 121.861 40.3999 122.439V127.9H38.5093V122.431C38.5093 122.025 38.4494 121.705 38.3296 121.47C38.215 121.231 38.0457 121.061 37.8218 120.963C37.603 120.858 37.3296 120.806 37.0015 120.806C36.6785 120.806 36.3895 120.874 36.1343 121.009C35.8791 121.145 35.6629 121.33 35.4858 121.564C35.314 121.798 35.1812 122.069 35.0874 122.377C34.9937 122.684 34.9468 123.012 34.9468 123.361ZM47.7358 119.447H49.4468V127.666C49.4468 128.426 49.2853 129.072 48.9624 129.603C48.6395 130.134 48.189 130.538 47.6108 130.814C47.0327 131.095 46.3634 131.236 45.603 131.236C45.2801 131.236 44.9207 131.189 44.5249 131.095C44.1343 131.002 43.7541 130.851 43.3843 130.642C43.0197 130.439 42.715 130.171 42.4702 129.838L43.353 128.728C43.6551 129.088 43.9884 129.351 44.353 129.517C44.7176 129.684 45.1004 129.767 45.5015 129.767C45.9338 129.767 46.3009 129.686 46.603 129.525C46.9103 129.369 47.1473 129.137 47.314 128.83C47.4806 128.522 47.564 128.147 47.564 127.705V121.361L47.7358 119.447ZM41.9937 123.767V123.603C41.9937 122.963 42.0718 122.379 42.228 121.853C42.3843 121.322 42.6082 120.866 42.8999 120.486C43.1916 120.101 43.5457 119.806 43.9624 119.603C44.3791 119.395 44.8504 119.291 45.3765 119.291C45.9233 119.291 46.3895 119.39 46.7749 119.588C47.1655 119.785 47.491 120.069 47.7515 120.439C48.0119 120.804 48.215 121.241 48.3608 121.752C48.5119 122.257 48.6239 122.819 48.6968 123.439V123.963C48.6291 124.567 48.5145 125.119 48.353 125.619C48.1916 126.119 47.978 126.551 47.7124 126.916C47.4468 127.28 47.1187 127.561 46.728 127.759C46.3426 127.957 45.8869 128.056 45.3608 128.056C44.8452 128.056 44.3791 127.95 43.9624 127.736C43.5509 127.522 43.1968 127.223 42.8999 126.838C42.6082 126.452 42.3843 125.999 42.228 125.478C42.0718 124.952 41.9937 124.382 41.9937 123.767ZM43.8765 123.603V123.767C43.8765 124.153 43.9129 124.512 43.9858 124.845C44.064 125.179 44.1812 125.473 44.3374 125.728C44.4989 125.978 44.702 126.176 44.9468 126.322C45.1968 126.463 45.491 126.533 45.8296 126.533C46.2723 126.533 46.6343 126.439 46.9155 126.252C47.202 126.064 47.4207 125.811 47.5718 125.494C47.728 125.171 47.8374 124.811 47.8999 124.416V123.002C47.8687 122.694 47.8035 122.408 47.7046 122.142C47.6108 121.877 47.4832 121.645 47.3218 121.447C47.1603 121.244 46.9572 121.088 46.7124 120.978C46.4676 120.864 46.1785 120.806 45.8452 120.806C45.5067 120.806 45.2124 120.879 44.9624 121.025C44.7124 121.171 44.5067 121.371 44.3452 121.627C44.189 121.882 44.0718 122.179 43.9937 122.517C43.9155 122.856 43.8765 123.218 43.8765 123.603ZM53.4155 119.447V127.9H51.5249V119.447H53.4155ZM51.3999 117.228C51.3999 116.942 51.4937 116.705 51.6812 116.517C51.8739 116.325 52.1395 116.228 52.478 116.228C52.8114 116.228 53.0744 116.325 53.2671 116.517C53.4598 116.705 53.5562 116.942 53.5562 117.228C53.5562 117.509 53.4598 117.744 53.2671 117.931C53.0744 118.119 52.8114 118.213 52.478 118.213C52.1395 118.213 51.8739 118.119 51.6812 117.931C51.4937 117.744 51.3999 117.509 51.3999 117.228ZM57.3452 121.252V127.9H55.4624V119.447H57.2358L57.3452 121.252ZM57.0093 123.361L56.3999 123.353C56.4051 122.754 56.4884 122.205 56.6499 121.705C56.8166 121.205 57.0457 120.775 57.3374 120.416C57.6343 120.056 57.9884 119.78 58.3999 119.588C58.8114 119.39 59.2697 119.291 59.7749 119.291C60.1812 119.291 60.5483 119.348 60.8765 119.463C61.2098 119.572 61.4937 119.752 61.728 120.002C61.9676 120.252 62.1499 120.577 62.2749 120.978C62.3999 121.374 62.4624 121.861 62.4624 122.439V127.9H60.5718V122.431C60.5718 122.025 60.5119 121.705 60.3921 121.47C60.2775 121.231 60.1082 121.061 59.8843 120.963C59.6655 120.858 59.3921 120.806 59.064 120.806C58.741 120.806 58.452 120.874 58.1968 121.009C57.9416 121.145 57.7254 121.33 57.5483 121.564C57.3765 121.798 57.2437 122.069 57.1499 122.377C57.0562 122.684 57.0093 123.012 57.0093 123.361ZM68.1108 128.056C67.4858 128.056 66.9207 127.955 66.4155 127.752C65.9155 127.543 65.4884 127.254 65.1343 126.884C64.7853 126.515 64.5171 126.08 64.3296 125.58C64.1421 125.08 64.0483 124.541 64.0483 123.963V123.65C64.0483 122.989 64.1447 122.39 64.3374 121.853C64.5301 121.317 64.7983 120.858 65.1421 120.478C65.4858 120.093 65.8921 119.798 66.3608 119.595C66.8296 119.392 67.3374 119.291 67.8843 119.291C68.4884 119.291 69.0171 119.392 69.4702 119.595C69.9233 119.798 70.2983 120.085 70.5952 120.455C70.8973 120.819 71.1213 121.254 71.2671 121.759C71.4181 122.265 71.4937 122.822 71.4937 123.431V124.236H64.9624V122.884H69.6343V122.736C69.6239 122.397 69.5562 122.08 69.4312 121.783C69.3114 121.486 69.1265 121.246 68.8765 121.064C68.6265 120.882 68.2931 120.791 67.8765 120.791C67.564 120.791 67.2853 120.858 67.0405 120.994C66.8009 121.124 66.6004 121.314 66.439 121.564C66.2775 121.814 66.1525 122.116 66.064 122.47C65.9806 122.819 65.939 123.213 65.939 123.65V123.963C65.939 124.332 65.9884 124.676 66.0874 124.994C66.1916 125.306 66.3426 125.58 66.5405 125.814C66.7384 126.048 66.978 126.233 67.2593 126.369C67.5405 126.499 67.8608 126.564 68.2202 126.564C68.6733 126.564 69.077 126.473 69.4312 126.291C69.7853 126.108 70.0926 125.851 70.353 125.517L71.3452 126.478C71.1629 126.744 70.9259 126.999 70.6343 127.244C70.3426 127.483 69.9858 127.679 69.564 127.83C69.1473 127.981 68.6629 128.056 68.1108 128.056ZM76.689 128.056C76.064 128.056 75.4989 127.955 74.9937 127.752C74.4937 127.543 74.0666 127.254 73.7124 126.884C73.3634 126.515 73.0952 126.08 72.9077 125.58C72.7202 125.08 72.6265 124.541 72.6265 123.963V123.65C72.6265 122.989 72.7228 122.39 72.9155 121.853C73.1082 121.317 73.3765 120.858 73.7202 120.478C74.064 120.093 74.4702 119.798 74.939 119.595C75.4077 119.392 75.9155 119.291 76.4624 119.291C77.0666 119.291 77.5952 119.392 78.0483 119.595C78.5015 119.798 78.8765 120.085 79.1733 120.455C79.4754 120.819 79.6994 121.254 79.8452 121.759C79.9963 122.265 80.0718 122.822 80.0718 123.431V124.236H73.5405V122.884H78.2124V122.736C78.202 122.397 78.1343 122.08 78.0093 121.783C77.8895 121.486 77.7046 121.246 77.4546 121.064C77.2046 120.882 76.8713 120.791 76.4546 120.791C76.1421 120.791 75.8634 120.858 75.6187 120.994C75.3791 121.124 75.1785 121.314 75.0171 121.564C74.8556 121.814 74.7306 122.116 74.6421 122.47C74.5588 122.819 74.5171 123.213 74.5171 123.65V123.963C74.5171 124.332 74.5666 124.676 74.6655 124.994C74.7697 125.306 74.9207 125.58 75.1187 125.814C75.3166 126.048 75.5562 126.233 75.8374 126.369C76.1187 126.499 76.439 126.564 76.7983 126.564C77.2515 126.564 77.6551 126.473 78.0093 126.291C78.3634 126.108 78.6707 125.851 78.9312 125.517L79.9233 126.478C79.741 126.744 79.5041 126.999 79.2124 127.244C78.9207 127.483 78.564 127.679 78.1421 127.83C77.7254 127.981 77.241 128.056 76.689 128.056ZM83.4312 121.056V127.9H81.5483V119.447H83.3452L83.4312 121.056ZM86.0171 119.392L86.0015 121.142C85.8869 121.121 85.7619 121.106 85.6265 121.095C85.4963 121.085 85.366 121.08 85.2358 121.08C84.9129 121.08 84.6291 121.127 84.3843 121.22C84.1395 121.309 83.9338 121.439 83.7671 121.611C83.6056 121.778 83.4806 121.981 83.3921 122.22C83.3035 122.46 83.2515 122.728 83.2358 123.025L82.8062 123.056C82.8062 122.525 82.8582 122.033 82.9624 121.58C83.0666 121.127 83.2228 120.728 83.4312 120.384C83.6447 120.041 83.9103 119.772 84.228 119.58C84.5509 119.387 84.9233 119.291 85.3452 119.291C85.4598 119.291 85.5822 119.301 85.7124 119.322C85.8478 119.343 85.9494 119.366 86.0171 119.392ZM89.2124 119.447V127.9H87.3218V119.447H89.2124ZM87.1968 117.228C87.1968 116.942 87.2905 116.705 87.478 116.517C87.6707 116.325 87.9364 116.228 88.2749 116.228C88.6082 116.228 88.8713 116.325 89.064 116.517C89.2567 116.705 89.353 116.942 89.353 117.228C89.353 117.509 89.2567 117.744 89.064 117.931C88.8713 118.119 88.6082 118.213 88.2749 118.213C87.9364 118.213 87.6707 118.119 87.478 117.931C87.2905 117.744 87.1968 117.509 87.1968 117.228ZM93.1421 121.252V127.9H91.2593V119.447H93.0327L93.1421 121.252ZM92.8062 123.361L92.1968 123.353C92.202 122.754 92.2853 122.205 92.4468 121.705C92.6134 121.205 92.8426 120.775 93.1343 120.416C93.4312 120.056 93.7853 119.78 94.1968 119.588C94.6082 119.39 95.0666 119.291 95.5718 119.291C95.978 119.291 96.3452 119.348 96.6733 119.463C97.0067 119.572 97.2905 119.752 97.5249 120.002C97.7645 120.252 97.9468 120.577 98.0718 120.978C98.1968 121.374 98.2593 121.861 98.2593 122.439V127.9H96.3687V122.431C96.3687 122.025 96.3088 121.705 96.189 121.47C96.0744 121.231 95.9051 121.061 95.6812 120.963C95.4624 120.858 95.189 120.806 94.8608 120.806C94.5379 120.806 94.2489 120.874 93.9937 121.009C93.7384 121.145 93.5223 121.33 93.3452 121.564C93.1733 121.798 93.0405 122.069 92.9468 122.377C92.853 122.684 92.8062 123.012 92.8062 123.361ZM105.595 119.447H107.306V127.666C107.306 128.426 107.145 129.072 106.822 129.603C106.499 130.134 106.048 130.538 105.47 130.814C104.892 131.095 104.223 131.236 103.462 131.236C103.139 131.236 102.78 131.189 102.384 131.095C101.994 131.002 101.613 130.851 101.244 130.642C100.879 130.439 100.574 130.171 100.33 129.838L101.212 128.728C101.514 129.088 101.848 129.351 102.212 129.517C102.577 129.684 102.96 129.767 103.361 129.767C103.793 129.767 104.16 129.686 104.462 129.525C104.77 129.369 105.007 129.137 105.173 128.83C105.34 128.522 105.423 128.147 105.423 127.705V121.361L105.595 119.447ZM99.853 123.767V123.603C99.853 122.963 99.9312 122.379 100.087 121.853C100.244 121.322 100.468 120.866 100.759 120.486C101.051 120.101 101.405 119.806 101.822 119.603C102.238 119.395 102.71 119.291 103.236 119.291C103.783 119.291 104.249 119.39 104.634 119.588C105.025 119.785 105.35 120.069 105.611 120.439C105.871 120.804 106.074 121.241 106.22 121.752C106.371 122.257 106.483 122.819 106.556 123.439V123.963C106.488 124.567 106.374 125.119 106.212 125.619C106.051 126.119 105.837 126.551 105.572 126.916C105.306 127.28 104.978 127.561 104.587 127.759C104.202 127.957 103.746 128.056 103.22 128.056C102.705 128.056 102.238 127.95 101.822 127.736C101.41 127.522 101.056 127.223 100.759 126.838C100.468 126.452 100.244 125.999 100.087 125.478C99.9312 124.952 99.853 124.382 99.853 123.767ZM101.736 123.603V123.767C101.736 124.153 101.772 124.512 101.845 124.845C101.923 125.179 102.041 125.473 102.197 125.728C102.358 125.978 102.561 126.176 102.806 126.322C103.056 126.463 103.35 126.533 103.689 126.533C104.132 126.533 104.494 126.439 104.775 126.252C105.061 126.064 105.28 125.811 105.431 125.494C105.587 125.171 105.697 124.811 105.759 124.416V123.002C105.728 122.694 105.663 122.408 105.564 122.142C105.47 121.877 105.343 121.645 105.181 121.447C105.02 121.244 104.817 121.088 104.572 120.978C104.327 120.864 104.038 120.806 103.705 120.806C103.366 120.806 103.072 120.879 102.822 121.025C102.572 121.171 102.366 121.371 102.205 121.627C102.048 121.882 101.931 122.179 101.853 122.517C101.775 122.856 101.736 123.218 101.736 123.603Z" fill="#023047"/>
<a href="http://www.che.iitb.ac.in/">
<rect fill="black" fill-opacity="0" y="0.125" width="70.9766" height="18.75"/>
</a>
<a href="http://www.che.iitb.ac.in/">
<rect fill="black" fill-opacity="0" y="19.125" width="84.8828" height="18.75"/>
</a>
</g>
</g>
</g>
<defs>
<filter id="filter0_d_4295_1047" x="0" y="1" width="187.2" height="187.2" filterUnits="userSpaceOnUse" color-interpolation-filters="sRGB">
<feFlood flood-opacity="0" result="BackgroundImageFix"/>
<feColorMatrix in="SourceAlpha" type="matrix" values="0 0 0 0 0 0 0 0 0 0 0 0 0 0 0 0 0 0 127 0" result="hardAlpha"/>
<feOffset dx="3.6" dy="3.6"/>
<feGaussianBlur stdDeviation="1.8"/>
<feComposite in2="hardAlpha" operator="out"/>
<feColorMatrix type="matrix" values="0 0 0 0 0 0 0 0 0 0 0 0 0 0 0 0 0 0 0.25 0"/>
<feBlend mode="normal" in2="BackgroundImageFix" result="effect1_dropShadow_4295_1047"/>
<feBlend mode="normal" in="SourceGraphic" in2="effect1_dropShadow_4295_1047" result="shape"/>
</filter>
<linearGradient id="paint0_linear_4295_1047" x1="5.31818" y1="7.95455" x2="174.273" y2="45.5909" gradientUnits="userSpaceOnUse">
<stop stop-color="#023047"/>
<stop offset="0.472141" stop-color="#063E56"/>
<stop offset="1" stop-color="#219EBC"/>
</linearGradient>
</defs>
</svg>
