<svg width="188" height="189" viewBox="0 0 188 189" fill="none" xmlns="http://www.w3.org/2000/svg">
<g id="Department card">
<g id="Rectangle 38" filter="url(#filter0_d_4295_1190)">
<path d="M3.6 23.5C3.6 13.0618 12.0618 4.6 22.5 4.6H157.5C167.938 4.6 176.4 13.0618 176.4 23.5V158.5C176.4 168.938 167.938 177.4 157.5 177.4H22.5C12.0618 177.4 3.6 168.938 3.6 158.5V23.5Z" stroke="url(#paint0_linear_4295_1190)" stroke-width="7.2" shape-rendering="crispEdges"/>
</g>
<g id="Form design">
<g id="Mask group">
<mask id="mask0_4295_1190" style="mask-type:alpha" maskUnits="userSpaceOnUse" x="60" y="-50" width="184" height="100">
<path id="Ellipse 6" d="M243.768 -49.4425C243.768 -36.436 241.395 -23.5569 236.785 -11.5405C232.175 0.475876 225.418 11.3942 216.899 20.5912C208.381 29.7881 198.268 37.0836 187.139 42.0609C176.009 47.0383 164.08 49.6001 152.034 49.6001C139.987 49.6001 128.058 47.0383 116.929 42.0609C105.799 37.0835 95.6863 29.7881 87.168 20.5912C78.6498 11.3942 71.8927 0.475861 67.2826 -11.5405C62.6726 -23.5569 60.2998 -36.436 60.2998 -49.4425L152.034 -49.4425H243.768Z" fill="#061C21"/>
</mask>
<g mask="url(#mask0_4295_1190)">
<rect id="Rectangle 15" x="54.8506" y="1.87653" width="118.679" height="79.1033" rx="13.86" fill="#023047"/>
</g>
</g>
<g id="Mask group_2">
<g id="Mask group_3">
<mask id="mask1_4295_1190" style="mask-type:alpha" maskUnits="userSpaceOnUse" x="86" y="-53" width="184" height="100">
<path id="Ellipse 7" d="M270 -52.0574C270 -39.051 267.627 -26.1719 263.017 -14.1555C258.407 -2.13911 251.65 8.77925 243.132 17.9762C234.614 27.1731 224.501 34.4686 213.371 39.4459C202.242 44.4233 190.313 46.9851 178.266 46.9851C166.219 46.9851 154.291 44.4233 143.161 39.4459C132.031 34.4686 121.919 27.1731 113.4 17.9762C104.882 8.77924 98.1251 -2.13913 93.5151 -14.1555C88.905 -26.1719 86.5322 -39.051 86.5322 -52.0575L178.266 -52.0574H270Z" fill="#061C21"/>
</mask>
<g mask="url(#mask1_4295_1190)">
<rect id="Rectangle 14" x="56.9619" y="0.976746" width="117.468" height="92.832" rx="16.2" fill="#219EBC"/>
</g>
</g>
</g>
</g>
<g id="Group 15">
<g id="Frame 41">
<path id="EE" d="M35.4971 73.0529H38.854C38.7645 74.241 38.4349 75.2949 37.8652 76.2145C37.2956 77.1259 36.5021 77.8421 35.4849 78.3629C34.4676 78.8837 33.2347 79.1442 31.7861 79.1442C30.6712 79.1442 29.6662 78.9489 28.771 78.5582C27.884 78.1595 27.123 77.5939 26.4883 76.8615C25.8617 76.1209 25.3815 75.2338 25.0479 74.2003C24.7142 73.1587 24.5474 71.9908 24.5474 70.6969V69.3419C24.5474 68.048 24.7183 66.8802 25.0601 65.8385C25.4019 64.7968 25.8901 63.9098 26.5249 63.1774C27.1678 62.4368 27.9368 61.8671 28.832 61.4684C29.7354 61.0696 30.7445 60.8702 31.8594 60.8702C33.3079 60.8702 34.5327 61.1388 35.5337 61.6759C36.5347 62.2049 37.3118 62.9332 37.8652 63.861C38.4186 64.7887 38.7523 65.8548 38.8662 67.0592H35.5093C35.4442 66.3105 35.2814 65.6757 35.021 65.1549C34.7687 64.6341 34.3862 64.2394 33.8735 63.9708C33.369 63.6941 32.6976 63.5558 31.8594 63.5558C31.2083 63.5558 30.6346 63.6779 30.1382 63.922C29.6499 64.1661 29.243 64.5323 28.9175 65.0206C28.592 65.5008 28.3478 66.103 28.1851 66.8273C28.0223 67.5434 27.9409 68.3735 27.9409 69.3175V70.6969C27.9409 71.6002 28.0142 72.41 28.1606 73.1261C28.3071 73.8422 28.535 74.4485 28.8442 74.9449C29.1535 75.4414 29.5522 75.8198 30.0405 76.0802C30.5288 76.3406 31.1107 76.4708 31.7861 76.4708C32.6081 76.4708 33.2754 76.3406 33.7881 76.0802C34.3089 75.8198 34.7036 75.4373 34.9722 74.9327C35.2489 74.4282 35.4238 73.8016 35.4971 73.0529ZM50.7559 74.2858C50.7559 73.944 50.703 73.6388 50.5972 73.3702C50.4995 73.0935 50.3164 72.8453 50.0479 72.6256C49.7874 72.3977 49.4172 72.178 48.937 71.9664C48.465 71.7467 47.8547 71.5188 47.106 71.2828C46.2759 71.0224 45.5028 70.7295 44.7866 70.4039C44.0705 70.0784 43.4398 69.7 42.8945 69.2687C42.3574 68.8374 41.9383 68.3409 41.6372 67.7794C41.3361 67.2098 41.1855 66.5506 41.1855 65.8019C41.1855 65.0695 41.3402 64.4021 41.6494 63.7999C41.9668 63.1977 42.4144 62.6809 42.9922 62.2496C43.57 61.8102 44.2495 61.4725 45.0308 61.2365C45.8201 61.0004 46.6909 60.8824 47.6431 60.8824C48.9614 60.8824 50.1007 61.1225 51.061 61.6027C52.0295 62.0828 52.7782 62.7338 53.3071 63.5558C53.8361 64.3777 54.1006 65.3014 54.1006 66.3268H50.7559C50.7559 65.7734 50.6379 65.2851 50.4019 64.8619C50.174 64.4388 49.8241 64.1051 49.3521 63.861C48.8882 63.6168 48.3022 63.4948 47.5942 63.4948C46.9106 63.4948 46.341 63.5965 45.8853 63.7999C45.4377 64.0034 45.0999 64.2801 44.8721 64.63C44.6523 64.9799 44.5425 65.3706 44.5425 65.8019C44.5425 66.1274 44.6198 66.4204 44.7744 66.6808C44.929 66.9331 45.161 67.1731 45.4702 67.401C45.7795 67.6207 46.1619 67.8282 46.6177 68.0236C47.0815 68.2107 47.6187 68.3979 48.229 68.5851C49.2056 68.8781 50.0601 69.2036 50.7925 69.5616C51.533 69.9197 52.1475 70.3266 52.6357 70.7823C53.1322 71.2381 53.5024 71.7508 53.7466 72.3204C53.9989 72.8901 54.125 73.5371 54.125 74.2614C54.125 75.0263 53.9744 75.7099 53.6733 76.3121C53.3722 76.9143 52.9409 77.427 52.3794 77.8502C51.8179 78.2734 51.1424 78.5948 50.353 78.8146C49.5718 79.0343 48.6969 79.1442 47.7285 79.1442C46.8659 79.1442 46.0114 79.0302 45.165 78.8024C44.3268 78.5664 43.5659 78.2164 42.8823 77.7526C42.1987 77.2806 41.6535 76.6865 41.2466 75.9703C40.8397 75.2461 40.6362 74.3997 40.6362 73.4313H44.0054C44.0054 73.9928 44.0949 74.4729 44.2739 74.8717C44.4611 75.2623 44.7215 75.5838 45.0552 75.8361C45.397 76.0802 45.7957 76.2592 46.2515 76.3732C46.7072 76.4871 47.1995 76.5441 47.7285 76.5441C48.4121 76.5441 48.9736 76.4505 49.4131 76.2633C49.8607 76.068 50.1943 75.7994 50.4141 75.4576C50.6419 75.1158 50.7559 74.7252 50.7559 74.2858ZM68.4927 76.2633V78.9H59.0444V76.2633H68.4927ZM60.0698 61.1266V78.9H56.7129V61.1266H60.0698ZM67.2598 68.463V71.0387H59.0444V68.463H67.2598ZM68.4561 61.1266V63.7755H59.0444V61.1266H68.4561Z" fill="#023047"/>
<path id="Electrical engineering" d="M31.2749 105.197H33.228C33.1655 105.942 32.9572 106.606 32.603 107.189C32.2489 107.767 31.7515 108.223 31.1108 108.556C30.4702 108.89 29.6916 109.056 28.7749 109.056C28.0718 109.056 27.439 108.931 26.8765 108.681C26.314 108.426 25.8322 108.067 25.4312 107.603C25.0301 107.134 24.7228 106.569 24.5093 105.908C24.3009 105.246 24.1968 104.507 24.1968 103.689V102.744C24.1968 101.926 24.3035 101.186 24.5171 100.525C24.7358 99.8636 25.0483 99.2985 25.4546 98.8297C25.8608 98.3558 26.3478 97.9938 26.9155 97.7438C27.4884 97.4938 28.1317 97.3688 28.8452 97.3688C29.7515 97.3688 30.5171 97.5354 31.1421 97.8688C31.7671 98.2021 32.2515 98.663 32.5952 99.2516C32.9442 99.8401 33.1577 100.515 33.2358 101.275H31.2827C31.2306 100.785 31.116 100.366 30.939 100.017C30.7671 99.6683 30.5119 99.4026 30.1733 99.2203C29.8348 99.0328 29.3921 98.9391 28.8452 98.9391C28.3973 98.9391 28.0067 99.0224 27.6733 99.1891C27.34 99.3558 27.0614 99.6005 26.8374 99.9235C26.6134 100.246 26.4442 100.645 26.3296 101.119C26.2202 101.588 26.1655 102.124 26.1655 102.728V103.689C26.1655 104.262 26.215 104.783 26.314 105.252C26.4181 105.715 26.5744 106.114 26.7827 106.447C26.9963 106.78 27.2671 107.038 27.5952 107.22C27.9233 107.403 28.3166 107.494 28.7749 107.494C29.3322 107.494 29.7827 107.405 30.1265 107.228C30.4754 107.051 30.7384 106.793 30.9155 106.455C31.0978 106.111 31.2176 105.692 31.2749 105.197ZM34.4624 104.767V104.588C34.4624 103.978 34.5509 103.413 34.728 102.892C34.9051 102.366 35.1603 101.91 35.4937 101.525C35.8322 101.134 36.2437 100.832 36.728 100.619C37.2176 100.4 37.7697 100.291 38.3843 100.291C39.0041 100.291 39.5562 100.4 40.0405 100.619C40.5301 100.832 40.9442 101.134 41.2827 101.525C41.6213 101.91 41.8791 102.366 42.0562 102.892C42.2332 103.413 42.3218 103.978 42.3218 104.588V104.767C42.3218 105.377 42.2332 105.942 42.0562 106.463C41.8791 106.983 41.6213 107.439 41.2827 107.83C40.9442 108.215 40.5327 108.517 40.0483 108.736C39.564 108.95 39.0145 109.056 38.3999 109.056C37.7801 109.056 37.2254 108.95 36.7358 108.736C36.2515 108.517 35.84 108.215 35.5015 107.83C35.1629 107.439 34.9051 106.983 34.728 106.463C34.5509 105.942 34.4624 105.377 34.4624 104.767ZM36.3452 104.588V104.767C36.3452 105.147 36.3843 105.507 36.4624 105.845C36.5405 106.184 36.6629 106.481 36.8296 106.736C36.9963 106.991 37.2098 107.192 37.4702 107.338C37.7306 107.483 38.0405 107.556 38.3999 107.556C38.7489 107.556 39.0509 107.483 39.3062 107.338C39.5666 107.192 39.7801 106.991 39.9468 106.736C40.1134 106.481 40.2358 106.184 40.314 105.845C40.3973 105.507 40.439 105.147 40.439 104.767V104.588C40.439 104.213 40.3973 103.858 40.314 103.525C40.2358 103.186 40.1108 102.887 39.939 102.627C39.7723 102.366 39.5588 102.163 39.2983 102.017C39.0431 101.866 38.7384 101.791 38.3843 101.791C38.0301 101.791 37.7228 101.866 37.4624 102.017C37.2072 102.163 36.9963 102.366 36.8296 102.627C36.6629 102.887 36.5405 103.186 36.4624 103.525C36.3843 103.858 36.3452 104.213 36.3452 104.588ZM45.7827 102.166V108.9H43.8999V100.447H45.6733L45.7827 102.166ZM45.478 104.361L44.8374 104.353C44.8374 103.77 44.9103 103.231 45.0562 102.736C45.202 102.241 45.4155 101.811 45.6968 101.447C45.978 101.077 46.327 100.793 46.7437 100.595C47.1655 100.392 47.6525 100.291 48.2046 100.291C48.59 100.291 48.9416 100.348 49.2593 100.463C49.5822 100.572 49.8608 100.746 50.0952 100.986C50.3348 101.226 50.5171 101.533 50.6421 101.908C50.7723 102.283 50.8374 102.736 50.8374 103.267V108.9H48.9546V103.431C48.9546 103.02 48.8921 102.697 48.7671 102.463C48.6473 102.228 48.4728 102.061 48.2437 101.963C48.0197 101.858 47.7515 101.806 47.439 101.806C47.0848 101.806 46.7827 101.874 46.5327 102.009C46.2879 102.145 46.0874 102.33 45.9312 102.564C45.7749 102.798 45.6603 103.069 45.5874 103.377C45.5145 103.684 45.478 104.012 45.478 104.361ZM50.7202 103.861L49.8374 104.056C49.8374 103.546 49.9077 103.064 50.0483 102.611C50.1942 102.153 50.4051 101.752 50.6812 101.408C50.9624 101.059 51.3088 100.785 51.7202 100.588C52.1317 100.39 52.603 100.291 53.1343 100.291C53.5666 100.291 53.952 100.351 54.2905 100.47C54.6343 100.585 54.9259 100.767 55.1655 101.017C55.4051 101.267 55.5874 101.593 55.7124 101.994C55.8374 102.39 55.8999 102.869 55.8999 103.431V108.9H54.0093V103.423C54.0093 102.996 53.9468 102.666 53.8218 102.431C53.702 102.197 53.5301 102.035 53.3062 101.947C53.0822 101.853 52.814 101.806 52.5015 101.806C52.2098 101.806 51.952 101.861 51.728 101.97C51.5093 102.075 51.3244 102.223 51.1733 102.416C51.0223 102.603 50.9077 102.819 50.8296 103.064C50.7567 103.309 50.7202 103.575 50.7202 103.861ZM59.728 102.072V112.15H57.8452V100.447H59.5796L59.728 102.072ZM65.2358 104.595V104.759C65.2358 105.374 65.1629 105.944 65.0171 106.47C64.8765 106.991 64.6655 107.447 64.3843 107.838C64.1082 108.223 63.7671 108.522 63.3608 108.736C62.9546 108.95 62.4858 109.056 61.9546 109.056C61.4285 109.056 60.9676 108.96 60.5718 108.767C60.1812 108.569 59.8504 108.291 59.5796 107.931C59.3088 107.572 59.09 107.15 58.9233 106.666C58.7619 106.176 58.6473 105.64 58.5796 105.056V104.423C58.6473 103.804 58.7619 103.241 58.9233 102.736C59.09 102.231 59.3088 101.796 59.5796 101.431C59.8504 101.067 60.1812 100.785 60.5718 100.588C60.9624 100.39 61.4181 100.291 61.939 100.291C62.4702 100.291 62.9416 100.395 63.353 100.603C63.7645 100.806 64.1108 101.098 64.3921 101.478C64.6733 101.853 64.8843 102.306 65.0249 102.838C65.1655 103.364 65.2358 103.95 65.2358 104.595ZM63.353 104.759V104.595C63.353 104.205 63.3166 103.843 63.2437 103.509C63.1707 103.171 63.0562 102.874 62.8999 102.619C62.7437 102.364 62.5431 102.166 62.2983 102.025C62.0588 101.879 61.7697 101.806 61.4312 101.806C61.0978 101.806 60.8114 101.864 60.5718 101.978C60.3322 102.088 60.1317 102.241 59.9702 102.439C59.8088 102.637 59.6838 102.869 59.5952 103.134C59.5067 103.395 59.4442 103.679 59.4077 103.986V105.502C59.4702 105.877 59.577 106.22 59.728 106.533C59.8791 106.845 60.0926 107.095 60.3687 107.283C60.6499 107.465 61.0093 107.556 61.4468 107.556C61.7853 107.556 62.0744 107.483 62.314 107.338C62.5535 107.192 62.7489 106.991 62.8999 106.736C63.0562 106.476 63.1707 106.176 63.2437 105.838C63.3166 105.499 63.353 105.14 63.353 104.759ZM71.9233 106.908V100.447H73.814V108.9H72.0327L71.9233 106.908ZM72.189 105.15L72.8218 105.134C72.8218 105.702 72.7593 106.226 72.6343 106.705C72.5093 107.179 72.3166 107.593 72.0562 107.947C71.7957 108.296 71.4624 108.569 71.0562 108.767C70.6499 108.96 70.1629 109.056 69.5952 109.056C69.1838 109.056 68.8062 108.996 68.4624 108.877C68.1187 108.757 67.8218 108.572 67.5718 108.322C67.327 108.072 67.1369 107.746 67.0015 107.345C66.866 106.944 66.7983 106.465 66.7983 105.908V100.447H68.6812V105.923C68.6812 106.231 68.7176 106.489 68.7905 106.697C68.8634 106.9 68.9624 107.064 69.0874 107.189C69.2124 107.314 69.3582 107.403 69.5249 107.455C69.6916 107.507 69.8687 107.533 70.0562 107.533C70.5926 107.533 71.0145 107.429 71.3218 107.22C71.6343 107.007 71.8556 106.72 71.9858 106.361C72.1213 106.002 72.189 105.598 72.189 105.15ZM79.6187 100.447V101.822H74.853V100.447H79.6187ZM76.228 98.3766H78.1108V106.564C78.1108 106.825 78.1473 107.025 78.2202 107.166C78.2983 107.301 78.4051 107.392 78.5405 107.439C78.6759 107.486 78.8348 107.509 79.0171 107.509C79.1473 107.509 79.2723 107.502 79.3921 107.486C79.5119 107.47 79.6082 107.455 79.6812 107.439L79.689 108.877C79.5327 108.923 79.3504 108.965 79.1421 109.002C78.939 109.038 78.7046 109.056 78.439 109.056C78.0067 109.056 77.6239 108.981 77.2905 108.83C76.9572 108.673 76.6968 108.421 76.5093 108.072C76.3218 107.723 76.228 107.259 76.228 106.681V98.3766ZM84.7983 109.056C84.1733 109.056 83.6082 108.955 83.103 108.752C82.603 108.543 82.1759 108.254 81.8218 107.884C81.4728 107.515 81.2046 107.08 81.0171 106.58C80.8296 106.08 80.7358 105.541 80.7358 104.963V104.65C80.7358 103.989 80.8322 103.39 81.0249 102.853C81.2176 102.317 81.4858 101.858 81.8296 101.478C82.1733 101.093 82.5796 100.798 83.0483 100.595C83.5171 100.392 84.0249 100.291 84.5718 100.291C85.1759 100.291 85.7046 100.392 86.1577 100.595C86.6108 100.798 86.9858 101.085 87.2827 101.455C87.5848 101.819 87.8088 102.254 87.9546 102.759C88.1056 103.265 88.1812 103.822 88.1812 104.431V105.236H81.6499V103.884H86.3218V103.736C86.3114 103.397 86.2437 103.08 86.1187 102.783C85.9989 102.486 85.814 102.246 85.564 102.064C85.314 101.882 84.9806 101.791 84.564 101.791C84.2515 101.791 83.9728 101.858 83.728 101.994C83.4884 102.124 83.2879 102.314 83.1265 102.564C82.965 102.814 82.84 103.116 82.7515 103.47C82.6681 103.819 82.6265 104.213 82.6265 104.65V104.963C82.6265 105.332 82.6759 105.676 82.7749 105.994C82.8791 106.306 83.0301 106.58 83.228 106.814C83.4259 107.048 83.6655 107.233 83.9468 107.369C84.228 107.499 84.5483 107.564 84.9077 107.564C85.3608 107.564 85.7645 107.473 86.1187 107.291C86.4728 107.108 86.7801 106.851 87.0405 106.517L88.0327 107.478C87.8504 107.744 87.6134 107.999 87.3218 108.244C87.0301 108.483 86.6733 108.679 86.2515 108.83C85.8348 108.981 85.3504 109.056 84.7983 109.056ZM91.5405 102.056V108.9H89.6577V100.447H91.4546L91.5405 102.056ZM94.1265 100.392L94.1108 102.142C93.9963 102.121 93.8713 102.106 93.7358 102.095C93.6056 102.085 93.4754 102.08 93.3452 102.08C93.0223 102.08 92.7384 102.127 92.4937 102.22C92.2489 102.309 92.0431 102.439 91.8765 102.611C91.715 102.778 91.59 102.981 91.5015 103.22C91.4129 103.46 91.3608 103.728 91.3452 104.025L90.9155 104.056C90.9155 103.525 90.9676 103.033 91.0718 102.58C91.1759 102.127 91.3322 101.728 91.5405 101.384C91.7541 101.041 92.0197 100.772 92.3374 100.58C92.6603 100.387 93.0327 100.291 93.4546 100.291C93.5692 100.291 93.6916 100.301 93.8218 100.322C93.9572 100.343 94.0588 100.366 94.1265 100.392ZM105.462 105.97C105.462 105.736 105.426 105.528 105.353 105.345C105.285 105.163 105.163 104.996 104.986 104.845C104.809 104.694 104.559 104.548 104.236 104.408C103.918 104.262 103.512 104.114 103.017 103.963C102.475 103.796 101.975 103.611 101.517 103.408C101.064 103.2 100.668 102.96 100.33 102.689C99.991 102.413 99.728 102.098 99.5405 101.744C99.353 101.384 99.2593 100.97 99.2593 100.502C99.2593 100.038 99.3556 99.6162 99.5483 99.236C99.7463 98.8558 100.025 98.5276 100.384 98.2516C100.749 97.9703 101.179 97.7542 101.673 97.6031C102.168 97.4469 102.715 97.3688 103.314 97.3688C104.158 97.3688 104.884 97.525 105.494 97.8375C106.108 98.15 106.58 98.5693 106.908 99.0953C107.241 99.6214 107.408 100.202 107.408 100.838H105.462C105.462 100.463 105.382 100.132 105.22 99.8453C105.064 99.5537 104.824 99.3245 104.501 99.1578C104.184 98.9912 103.78 98.9078 103.291 98.9078C102.827 98.9078 102.442 98.9781 102.134 99.1188C101.827 99.2594 101.598 99.4495 101.447 99.6891C101.296 99.9287 101.22 100.2 101.22 100.502C101.22 100.715 101.27 100.91 101.369 101.088C101.468 101.259 101.619 101.421 101.822 101.572C102.025 101.718 102.28 101.856 102.587 101.986C102.895 102.116 103.257 102.241 103.673 102.361C104.304 102.548 104.853 102.757 105.322 102.986C105.791 103.21 106.181 103.465 106.494 103.752C106.806 104.038 107.041 104.364 107.197 104.728C107.353 105.088 107.431 105.496 107.431 105.955C107.431 106.434 107.335 106.866 107.142 107.252C106.949 107.632 106.673 107.957 106.314 108.228C105.96 108.494 105.533 108.7 105.033 108.845C104.538 108.986 103.986 109.056 103.376 109.056C102.83 109.056 102.291 108.983 101.759 108.838C101.233 108.692 100.754 108.47 100.322 108.173C99.8895 107.871 99.5457 107.496 99.2905 107.048C99.0353 106.595 98.9077 106.067 98.9077 105.463H100.869C100.869 105.832 100.931 106.147 101.056 106.408C101.186 106.668 101.366 106.882 101.595 107.048C101.824 107.21 102.09 107.33 102.392 107.408C102.699 107.486 103.028 107.525 103.376 107.525C103.835 107.525 104.218 107.46 104.525 107.33C104.837 107.2 105.072 107.017 105.228 106.783C105.384 106.548 105.462 106.278 105.462 105.97ZM112.431 107.556C112.738 107.556 113.014 107.496 113.259 107.377C113.509 107.252 113.71 107.08 113.861 106.861C114.017 106.642 114.103 106.39 114.119 106.103H115.892C115.882 106.65 115.72 107.147 115.408 107.595C115.095 108.043 114.681 108.4 114.166 108.666C113.65 108.926 113.08 109.056 112.455 109.056C111.809 109.056 111.246 108.947 110.767 108.728C110.288 108.504 109.889 108.197 109.572 107.806C109.254 107.416 109.014 106.965 108.853 106.455C108.697 105.944 108.619 105.397 108.619 104.814V104.541C108.619 103.957 108.697 103.41 108.853 102.9C109.014 102.384 109.254 101.931 109.572 101.541C109.889 101.15 110.288 100.845 110.767 100.627C111.246 100.403 111.806 100.291 112.447 100.291C113.124 100.291 113.718 100.426 114.228 100.697C114.738 100.963 115.139 101.335 115.431 101.814C115.728 102.288 115.882 102.84 115.892 103.47H114.119C114.103 103.158 114.025 102.877 113.884 102.627C113.749 102.371 113.556 102.168 113.306 102.017C113.061 101.866 112.767 101.791 112.423 101.791C112.043 101.791 111.728 101.869 111.478 102.025C111.228 102.176 111.033 102.384 110.892 102.65C110.751 102.91 110.65 103.205 110.587 103.533C110.53 103.856 110.501 104.192 110.501 104.541V104.814C110.501 105.163 110.53 105.502 110.587 105.83C110.645 106.158 110.744 106.452 110.884 106.713C111.03 106.968 111.228 107.173 111.478 107.33C111.728 107.481 112.046 107.556 112.431 107.556ZM119.353 100.447V108.9H117.462V100.447H119.353ZM117.337 98.2281C117.337 97.9417 117.431 97.7047 117.619 97.5172C117.811 97.3245 118.077 97.2281 118.416 97.2281C118.749 97.2281 119.012 97.3245 119.205 97.5172C119.397 97.7047 119.494 97.9417 119.494 98.2281C119.494 98.5094 119.397 98.7438 119.205 98.9313C119.012 99.1188 118.749 99.2125 118.416 99.2125C118.077 99.2125 117.811 99.1188 117.619 98.9313C117.431 98.7438 117.337 98.5094 117.337 98.2281ZM125.142 109.056C124.517 109.056 123.952 108.955 123.447 108.752C122.947 108.543 122.52 108.254 122.166 107.884C121.817 107.515 121.548 107.08 121.361 106.58C121.173 106.08 121.08 105.541 121.08 104.963V104.65C121.08 103.989 121.176 103.39 121.369 102.853C121.561 102.317 121.83 101.858 122.173 101.478C122.517 101.093 122.923 100.798 123.392 100.595C123.861 100.392 124.369 100.291 124.916 100.291C125.52 100.291 126.048 100.392 126.501 100.595C126.955 100.798 127.33 101.085 127.626 101.455C127.929 101.819 128.153 102.254 128.298 102.759C128.449 103.265 128.525 103.822 128.525 104.431V105.236H121.994V103.884H126.666V103.736C126.655 103.397 126.587 103.08 126.462 102.783C126.343 102.486 126.158 102.246 125.908 102.064C125.658 101.882 125.324 101.791 124.908 101.791C124.595 101.791 124.317 101.858 124.072 101.994C123.832 102.124 123.632 102.314 123.47 102.564C123.309 102.814 123.184 103.116 123.095 103.47C123.012 103.819 122.97 104.213 122.97 104.65V104.963C122.97 105.332 123.02 105.676 123.119 105.994C123.223 106.306 123.374 106.58 123.572 106.814C123.77 107.048 124.009 107.233 124.291 107.369C124.572 107.499 124.892 107.564 125.251 107.564C125.705 107.564 126.108 107.473 126.462 107.291C126.817 107.108 127.124 106.851 127.384 106.517L128.376 107.478C128.194 107.744 127.957 107.999 127.666 108.244C127.374 108.483 127.017 108.679 126.595 108.83C126.179 108.981 125.694 109.056 125.142 109.056ZM131.861 102.252V108.9H129.978V100.447H131.751L131.861 102.252ZM131.525 104.361L130.916 104.353C130.921 103.754 131.004 103.205 131.166 102.705C131.332 102.205 131.561 101.775 131.853 101.416C132.15 101.056 132.504 100.78 132.916 100.588C133.327 100.39 133.785 100.291 134.291 100.291C134.697 100.291 135.064 100.348 135.392 100.463C135.725 100.572 136.009 100.752 136.244 101.002C136.483 101.252 136.666 101.577 136.791 101.978C136.916 102.374 136.978 102.861 136.978 103.439V108.9H135.087V103.431C135.087 103.025 135.028 102.705 134.908 102.47C134.793 102.231 134.624 102.061 134.4 101.963C134.181 101.858 133.908 101.806 133.58 101.806C133.257 101.806 132.968 101.874 132.712 102.009C132.457 102.145 132.241 102.33 132.064 102.564C131.892 102.798 131.759 103.069 131.666 103.377C131.572 103.684 131.525 104.012 131.525 104.361ZM142.353 107.556C142.66 107.556 142.936 107.496 143.181 107.377C143.431 107.252 143.632 107.08 143.783 106.861C143.939 106.642 144.025 106.39 144.041 106.103H145.814C145.804 106.65 145.642 107.147 145.33 107.595C145.017 108.043 144.603 108.4 144.087 108.666C143.572 108.926 143.001 109.056 142.376 109.056C141.731 109.056 141.168 108.947 140.689 108.728C140.21 108.504 139.811 108.197 139.494 107.806C139.176 107.416 138.936 106.965 138.775 106.455C138.619 105.944 138.541 105.397 138.541 104.814V104.541C138.541 103.957 138.619 103.41 138.775 102.9C138.936 102.384 139.176 101.931 139.494 101.541C139.811 101.15 140.21 100.845 140.689 100.627C141.168 100.403 141.728 100.291 142.369 100.291C143.046 100.291 143.639 100.426 144.15 100.697C144.66 100.963 145.061 101.335 145.353 101.814C145.65 102.288 145.804 102.84 145.814 103.47H144.041C144.025 103.158 143.947 102.877 143.806 102.627C143.671 102.371 143.478 102.168 143.228 102.017C142.983 101.866 142.689 101.791 142.345 101.791C141.965 101.791 141.65 101.869 141.4 102.025C141.15 102.176 140.955 102.384 140.814 102.65C140.673 102.91 140.572 103.205 140.509 103.533C140.452 103.856 140.423 104.192 140.423 104.541V104.814C140.423 105.163 140.452 105.502 140.509 105.83C140.567 106.158 140.666 106.452 140.806 106.713C140.952 106.968 141.15 107.173 141.4 107.33C141.65 107.481 141.968 107.556 142.353 107.556ZM150.986 109.056C150.361 109.056 149.796 108.955 149.291 108.752C148.791 108.543 148.363 108.254 148.009 107.884C147.66 107.515 147.392 107.08 147.205 106.58C147.017 106.08 146.923 105.541 146.923 104.963V104.65C146.923 103.989 147.02 103.39 147.212 102.853C147.405 102.317 147.673 101.858 148.017 101.478C148.361 101.093 148.767 100.798 149.236 100.595C149.705 100.392 150.212 100.291 150.759 100.291C151.363 100.291 151.892 100.392 152.345 100.595C152.798 100.798 153.173 101.085 153.47 101.455C153.772 101.819 153.996 102.254 154.142 102.759C154.293 103.265 154.369 103.822 154.369 104.431V105.236H147.837V103.884H152.509V103.736C152.499 103.397 152.431 103.08 152.306 102.783C152.186 102.486 152.001 102.246 151.751 102.064C151.501 101.882 151.168 101.791 150.751 101.791C150.439 101.791 150.16 101.858 149.916 101.994C149.676 102.124 149.475 102.314 149.314 102.564C149.153 102.814 149.028 103.116 148.939 103.47C148.856 103.819 148.814 104.213 148.814 104.65V104.963C148.814 105.332 148.863 105.676 148.962 105.994C149.067 106.306 149.218 106.58 149.416 106.814C149.613 107.048 149.853 107.233 150.134 107.369C150.416 107.499 150.736 107.564 151.095 107.564C151.548 107.564 151.952 107.473 152.306 107.291C152.66 107.108 152.968 106.851 153.228 106.517L154.22 107.478C154.038 107.744 153.801 107.999 153.509 108.244C153.218 108.483 152.861 108.679 152.439 108.83C152.022 108.981 151.538 109.056 150.986 109.056ZM26.314 121.713L28.2749 120.392C28.603 120.173 28.8374 119.96 28.978 119.752C29.1187 119.538 29.189 119.272 29.189 118.955C29.189 118.684 29.0848 118.434 28.8765 118.205C28.6681 117.976 28.3739 117.861 27.9937 117.861C27.728 117.861 27.5041 117.923 27.3218 118.048C27.1395 118.168 27.0015 118.33 26.9077 118.533C26.8192 118.731 26.7749 118.952 26.7749 119.197C26.7749 119.431 26.8348 119.673 26.9546 119.923C27.0744 120.168 27.2384 120.426 27.4468 120.697C27.6551 120.963 27.8895 121.249 28.1499 121.556L33.5249 127.9H31.3452L26.9546 122.736C26.5744 122.278 26.2384 121.858 25.9468 121.478C25.6551 121.093 25.4285 120.72 25.2671 120.361C25.1056 119.996 25.0249 119.621 25.0249 119.236C25.0249 118.642 25.1473 118.132 25.3921 117.705C25.6369 117.278 25.9832 116.95 26.4312 116.72C26.8791 116.486 27.4025 116.369 28.0015 116.369C28.5796 116.369 29.077 116.486 29.4937 116.72C29.9155 116.95 30.2384 117.254 30.4624 117.634C30.6916 118.015 30.8062 118.431 30.8062 118.884C30.8062 119.244 30.741 119.572 30.6108 119.869C30.4806 120.166 30.3009 120.436 30.0718 120.681C29.8426 120.926 29.577 121.158 29.2749 121.377L26.8921 123.111C26.616 123.335 26.4103 123.551 26.2749 123.759C26.1447 123.963 26.0588 124.15 26.0171 124.322C25.9754 124.494 25.9546 124.645 25.9546 124.775C25.9546 125.108 26.0249 125.41 26.1655 125.681C26.3114 125.952 26.5223 126.168 26.7983 126.33C27.0796 126.486 27.4207 126.564 27.8218 126.564C28.2541 126.564 28.6733 126.468 29.0796 126.275C29.4858 126.077 29.8504 125.798 30.1733 125.439C30.4963 125.08 30.7515 124.65 30.939 124.15C31.1317 123.65 31.228 123.095 31.228 122.486H32.853C32.853 123.038 32.7983 123.561 32.689 124.056C32.5848 124.551 32.4155 125.009 32.1812 125.431C31.952 125.853 31.6499 126.231 31.2749 126.564C31.2384 126.601 31.1968 126.647 31.1499 126.705C31.1082 126.757 31.0666 126.801 31.0249 126.838C30.577 127.249 30.0744 127.556 29.5171 127.759C28.965 127.957 28.3765 128.056 27.7515 128.056C26.9963 128.056 26.3426 127.918 25.7905 127.642C25.2384 127.366 24.8114 126.986 24.5093 126.502C24.2124 126.017 24.064 125.463 24.064 124.838C24.064 124.374 24.1603 123.968 24.353 123.619C24.5457 123.265 24.8088 122.936 25.1421 122.634C25.4806 122.327 25.8713 122.02 26.314 121.713ZM46.2515 126.345V127.9H40.2124V126.345H46.2515ZM40.7671 116.525V127.9H38.8062V116.525H40.7671ZM45.4624 121.275V122.806H40.2124V121.275H45.4624ZM46.2124 116.525V118.088H40.2124V116.525H46.2124ZM49.5327 121.252V127.9H47.6499V119.447H49.4233L49.5327 121.252ZM49.1968 123.361L48.5874 123.353C48.5926 122.754 48.6759 122.205 48.8374 121.705C49.0041 121.205 49.2332 120.775 49.5249 120.416C49.8218 120.056 50.1759 119.78 50.5874 119.588C50.9989 119.39 51.4572 119.291 51.9624 119.291C52.3687 119.291 52.7358 119.348 53.064 119.463C53.3973 119.572 53.6812 119.752 53.9155 120.002C54.1551 120.252 54.3374 120.577 54.4624 120.978C54.5874 121.374 54.6499 121.861 54.6499 122.439V127.9H52.7593V122.431C52.7593 122.025 52.6994 121.705 52.5796 121.47C52.465 121.231 52.2957 121.061 52.0718 120.963C51.853 120.858 51.5796 120.806 51.2515 120.806C50.9285 120.806 50.6395 120.874 50.3843 121.009C50.1291 121.145 49.9129 121.33 49.7358 121.564C49.564 121.798 49.4312 122.069 49.3374 122.377C49.2437 122.684 49.1968 123.012 49.1968 123.361ZM61.9858 119.447H63.6968V127.666C63.6968 128.426 63.5353 129.072 63.2124 129.603C62.8895 130.134 62.439 130.538 61.8608 130.814C61.2827 131.095 60.6134 131.236 59.853 131.236C59.5301 131.236 59.1707 131.189 58.7749 131.095C58.3843 131.002 58.0041 130.851 57.6343 130.642C57.2697 130.439 56.965 130.171 56.7202 129.838L57.603 128.728C57.9051 129.088 58.2384 129.351 58.603 129.517C58.9676 129.684 59.3504 129.767 59.7515 129.767C60.1838 129.767 60.5509 129.686 60.853 129.525C61.1603 129.369 61.3973 129.137 61.564 128.83C61.7306 128.522 61.814 128.147 61.814 127.705V121.361L61.9858 119.447ZM56.2437 123.767V123.603C56.2437 122.963 56.3218 122.379 56.478 121.853C56.6343 121.322 56.8582 120.866 57.1499 120.486C57.4416 120.101 57.7957 119.806 58.2124 119.603C58.6291 119.395 59.1004 119.291 59.6265 119.291C60.1733 119.291 60.6395 119.39 61.0249 119.588C61.4155 119.785 61.741 120.069 62.0015 120.439C62.2619 120.804 62.465 121.241 62.6108 121.752C62.7619 122.257 62.8739 122.819 62.9468 123.439V123.963C62.8791 124.567 62.7645 125.119 62.603 125.619C62.4416 126.119 62.228 126.551 61.9624 126.916C61.6968 127.28 61.3687 127.561 60.978 127.759C60.5926 127.957 60.1369 128.056 59.6108 128.056C59.0952 128.056 58.6291 127.95 58.2124 127.736C57.8009 127.522 57.4468 127.223 57.1499 126.838C56.8582 126.452 56.6343 125.999 56.478 125.478C56.3218 124.952 56.2437 124.382 56.2437 123.767ZM58.1265 123.603V123.767C58.1265 124.153 58.1629 124.512 58.2358 124.845C58.314 125.179 58.4312 125.473 58.5874 125.728C58.7489 125.978 58.952 126.176 59.1968 126.322C59.4468 126.463 59.741 126.533 60.0796 126.533C60.5223 126.533 60.8843 126.439 61.1655 126.252C61.452 126.064 61.6707 125.811 61.8218 125.494C61.978 125.171 62.0874 124.811 62.1499 124.416V123.002C62.1187 122.694 62.0535 122.408 61.9546 122.142C61.8608 121.877 61.7332 121.645 61.5718 121.447C61.4103 121.244 61.2072 121.088 60.9624 120.978C60.7176 120.864 60.4285 120.806 60.0952 120.806C59.7567 120.806 59.4624 120.879 59.2124 121.025C58.9624 121.171 58.7567 121.371 58.5952 121.627C58.439 121.882 58.3218 122.179 58.2437 122.517C58.1655 122.856 58.1265 123.218 58.1265 123.603ZM67.6655 119.447V127.9H65.7749V119.447H67.6655ZM65.6499 117.228C65.6499 116.942 65.7437 116.705 65.9312 116.517C66.1239 116.325 66.3895 116.228 66.728 116.228C67.0614 116.228 67.3244 116.325 67.5171 116.517C67.7098 116.705 67.8062 116.942 67.8062 117.228C67.8062 117.509 67.7098 117.744 67.5171 117.931C67.3244 118.119 67.0614 118.213 66.728 118.213C66.3895 118.213 66.1239 118.119 65.9312 117.931C65.7437 117.744 65.6499 117.509 65.6499 117.228ZM71.5952 121.252V127.9H69.7124V119.447H71.4858L71.5952 121.252ZM71.2593 123.361L70.6499 123.353C70.6551 122.754 70.7384 122.205 70.8999 121.705C71.0666 121.205 71.2957 120.775 71.5874 120.416C71.8843 120.056 72.2384 119.78 72.6499 119.588C73.0614 119.39 73.5197 119.291 74.0249 119.291C74.4312 119.291 74.7983 119.348 75.1265 119.463C75.4598 119.572 75.7437 119.752 75.978 120.002C76.2176 120.252 76.3999 120.577 76.5249 120.978C76.6499 121.374 76.7124 121.861 76.7124 122.439V127.9H74.8218V122.431C74.8218 122.025 74.7619 121.705 74.6421 121.47C74.5275 121.231 74.3582 121.061 74.1343 120.963C73.9155 120.858 73.6421 120.806 73.314 120.806C72.991 120.806 72.702 120.874 72.4468 121.009C72.1916 121.145 71.9754 121.33 71.7983 121.564C71.6265 121.798 71.4937 122.069 71.3999 122.377C71.3062 122.684 71.2593 123.012 71.2593 123.361ZM82.3608 128.056C81.7358 128.056 81.1707 127.955 80.6655 127.752C80.1655 127.543 79.7384 127.254 79.3843 126.884C79.0353 126.515 78.7671 126.08 78.5796 125.58C78.3921 125.08 78.2983 124.541 78.2983 123.963V123.65C78.2983 122.989 78.3947 122.39 78.5874 121.853C78.7801 121.317 79.0483 120.858 79.3921 120.478C79.7358 120.093 80.1421 119.798 80.6108 119.595C81.0796 119.392 81.5874 119.291 82.1343 119.291C82.7384 119.291 83.2671 119.392 83.7202 119.595C84.1733 119.798 84.5483 120.085 84.8452 120.455C85.1473 120.819 85.3713 121.254 85.5171 121.759C85.6681 122.265 85.7437 122.822 85.7437 123.431V124.236H79.2124V122.884H83.8843V122.736C83.8739 122.397 83.8062 122.08 83.6812 121.783C83.5614 121.486 83.3765 121.246 83.1265 121.064C82.8765 120.882 82.5431 120.791 82.1265 120.791C81.814 120.791 81.5353 120.858 81.2905 120.994C81.0509 121.124 80.8504 121.314 80.689 121.564C80.5275 121.814 80.4025 122.116 80.314 122.47C80.2306 122.819 80.189 123.213 80.189 123.65V123.963C80.189 124.332 80.2384 124.676 80.3374 124.994C80.4416 125.306 80.5926 125.58 80.7905 125.814C80.9884 126.048 81.228 126.233 81.5093 126.369C81.7905 126.499 82.1108 126.564 82.4702 126.564C82.9233 126.564 83.327 126.473 83.6812 126.291C84.0353 126.108 84.3426 125.851 84.603 125.517L85.5952 126.478C85.4129 126.744 85.1759 126.999 84.8843 127.244C84.5926 127.483 84.2358 127.679 83.814 127.83C83.3973 127.981 82.9129 128.056 82.3608 128.056ZM90.939 128.056C90.314 128.056 89.7489 127.955 89.2437 127.752C88.7437 127.543 88.3166 127.254 87.9624 126.884C87.6134 126.515 87.3452 126.08 87.1577 125.58C86.9702 125.08 86.8765 124.541 86.8765 123.963V123.65C86.8765 122.989 86.9728 122.39 87.1655 121.853C87.3582 121.317 87.6265 120.858 87.9702 120.478C88.314 120.093 88.7202 119.798 89.189 119.595C89.6577 119.392 90.1655 119.291 90.7124 119.291C91.3166 119.291 91.8452 119.392 92.2983 119.595C92.7515 119.798 93.1265 120.085 93.4233 120.455C93.7254 120.819 93.9494 121.254 94.0952 121.759C94.2463 122.265 94.3218 122.822 94.3218 123.431V124.236H87.7905V122.884H92.4624V122.736C92.452 122.397 92.3843 122.08 92.2593 121.783C92.1395 121.486 91.9546 121.246 91.7046 121.064C91.4546 120.882 91.1213 120.791 90.7046 120.791C90.3921 120.791 90.1134 120.858 89.8687 120.994C89.6291 121.124 89.4285 121.314 89.2671 121.564C89.1056 121.814 88.9806 122.116 88.8921 122.47C88.8088 122.819 88.7671 123.213 88.7671 123.65V123.963C88.7671 124.332 88.8166 124.676 88.9155 124.994C89.0197 125.306 89.1707 125.58 89.3687 125.814C89.5666 126.048 89.8062 126.233 90.0874 126.369C90.3687 126.499 90.689 126.564 91.0483 126.564C91.5015 126.564 91.9051 126.473 92.2593 126.291C92.6134 126.108 92.9207 125.851 93.1812 125.517L94.1733 126.478C93.991 126.744 93.7541 126.999 93.4624 127.244C93.1707 127.483 92.814 127.679 92.3921 127.83C91.9754 127.981 91.491 128.056 90.939 128.056ZM97.6812 121.056V127.9H95.7983V119.447H97.5952L97.6812 121.056ZM100.267 119.392L100.251 121.142C100.137 121.121 100.012 121.106 99.8765 121.095C99.7463 121.085 99.616 121.08 99.4858 121.08C99.1629 121.08 98.8791 121.127 98.6343 121.22C98.3895 121.309 98.1838 121.439 98.0171 121.611C97.8556 121.778 97.7306 121.981 97.6421 122.22C97.5535 122.46 97.5015 122.728 97.4858 123.025L97.0562 123.056C97.0562 122.525 97.1082 122.033 97.2124 121.58C97.3166 121.127 97.4728 120.728 97.6812 120.384C97.8947 120.041 98.1603 119.772 98.478 119.58C98.8009 119.387 99.1733 119.291 99.5952 119.291C99.7098 119.291 99.8322 119.301 99.9624 119.322C100.098 119.343 100.199 119.366 100.267 119.392ZM103.462 119.447V127.9H101.572V119.447H103.462ZM101.447 117.228C101.447 116.942 101.541 116.705 101.728 116.517C101.921 116.325 102.186 116.228 102.525 116.228C102.858 116.228 103.121 116.325 103.314 116.517C103.507 116.705 103.603 116.942 103.603 117.228C103.603 117.509 103.507 117.744 103.314 117.931C103.121 118.119 102.858 118.213 102.525 118.213C102.186 118.213 101.921 118.119 101.728 117.931C101.541 117.744 101.447 117.509 101.447 117.228ZM107.392 121.252V127.9H105.509V119.447H107.283L107.392 121.252ZM107.056 123.361L106.447 123.353C106.452 122.754 106.535 122.205 106.697 121.705C106.863 121.205 107.093 120.775 107.384 120.416C107.681 120.056 108.035 119.78 108.447 119.588C108.858 119.39 109.317 119.291 109.822 119.291C110.228 119.291 110.595 119.348 110.923 119.463C111.257 119.572 111.541 119.752 111.775 120.002C112.014 120.252 112.197 120.577 112.322 120.978C112.447 121.374 112.509 121.861 112.509 122.439V127.9H110.619V122.431C110.619 122.025 110.559 121.705 110.439 121.47C110.324 121.231 110.155 121.061 109.931 120.963C109.712 120.858 109.439 120.806 109.111 120.806C108.788 120.806 108.499 120.874 108.244 121.009C107.988 121.145 107.772 121.33 107.595 121.564C107.423 121.798 107.291 122.069 107.197 122.377C107.103 122.684 107.056 123.012 107.056 123.361ZM119.845 119.447H121.556V127.666C121.556 128.426 121.395 129.072 121.072 129.603C120.749 130.134 120.298 130.538 119.72 130.814C119.142 131.095 118.473 131.236 117.712 131.236C117.389 131.236 117.03 131.189 116.634 131.095C116.244 131.002 115.863 130.851 115.494 130.642C115.129 130.439 114.824 130.171 114.58 129.838L115.462 128.728C115.764 129.088 116.098 129.351 116.462 129.517C116.827 129.684 117.21 129.767 117.611 129.767C118.043 129.767 118.41 129.686 118.712 129.525C119.02 129.369 119.257 129.137 119.423 128.83C119.59 128.522 119.673 128.147 119.673 127.705V121.361L119.845 119.447ZM114.103 123.767V123.603C114.103 122.963 114.181 122.379 114.337 121.853C114.494 121.322 114.718 120.866 115.009 120.486C115.301 120.101 115.655 119.806 116.072 119.603C116.488 119.395 116.96 119.291 117.486 119.291C118.033 119.291 118.499 119.39 118.884 119.588C119.275 119.785 119.6 120.069 119.861 120.439C120.121 120.804 120.324 121.241 120.47 121.752C120.621 122.257 120.733 122.819 120.806 123.439V123.963C120.738 124.567 120.624 125.119 120.462 125.619C120.301 126.119 120.087 126.551 119.822 126.916C119.556 127.28 119.228 127.561 118.837 127.759C118.452 127.957 117.996 128.056 117.47 128.056C116.955 128.056 116.488 127.95 116.072 127.736C115.66 127.522 115.306 127.223 115.009 126.838C114.718 126.452 114.494 125.999 114.337 125.478C114.181 124.952 114.103 124.382 114.103 123.767ZM115.986 123.603V123.767C115.986 124.153 116.022 124.512 116.095 124.845C116.173 125.179 116.291 125.473 116.447 125.728C116.608 125.978 116.811 126.176 117.056 126.322C117.306 126.463 117.6 126.533 117.939 126.533C118.382 126.533 118.744 126.439 119.025 126.252C119.311 126.064 119.53 125.811 119.681 125.494C119.837 125.171 119.947 124.811 120.009 124.416V123.002C119.978 122.694 119.913 122.408 119.814 122.142C119.72 121.877 119.593 121.645 119.431 121.447C119.27 121.244 119.067 121.088 118.822 120.978C118.577 120.864 118.288 120.806 117.955 120.806C117.616 120.806 117.322 120.879 117.072 121.025C116.822 121.171 116.616 121.371 116.455 121.627C116.298 121.882 116.181 122.179 116.103 122.517C116.025 122.856 115.986 123.218 115.986 123.603Z" fill="#023047"/>
<a href="http://www.cse.iitb.ac.in/">
<rect fill="black" fill-opacity="0" y="0.125" width="135.445" height="18.75"/>
</a>
<a href="http://www.cse.iitb.ac.in/">
<rect fill="black" fill-opacity="0" y="19.125" width="99.1328" height="18.75"/>
</a>
</g>
</g>
</g>
<defs>
<filter id="filter0_d_4295_1190" x="0" y="1" width="187.2" height="187.2" filterUnits="userSpaceOnUse" color-interpolation-filters="sRGB">
<feFlood flood-opacity="0" result="BackgroundImageFix"/>
<feColorMatrix in="SourceAlpha" type="matrix" values="0 0 0 0 0 0 0 0 0 0 0 0 0 0 0 0 0 0 127 0" result="hardAlpha"/>
<feOffset dx="3.6" dy="3.6"/>
<feGaussianBlur stdDeviation="1.8"/>
<feComposite in2="hardAlpha" operator="out"/>
<feColorMatrix type="matrix" values="0 0 0 0 0 0 0 0 0 0 0 0 0 0 0 0 0 0 0.25 0"/>
<feBlend mode="normal" in2="BackgroundImageFix" result="effect1_dropShadow_4295_1190"/>
<feBlend mode="normal" in="SourceGraphic" in2="effect1_dropShadow_4295_1190" result="shape"/>
</filter>
<linearGradient id="paint0_linear_4295_1190" x1="5.31818" y1="7.95455" x2="174.273" y2="45.5909" gradientUnits="userSpaceOnUse">
<stop stop-color="#023047"/>
<stop offset="0.472141" stop-color="#063E56"/>
<stop offset="1" stop-color="#219EBC"/>
</linearGradient>
</defs>
</svg>
