<svg width="188" height="189" viewBox="0 0 188 189" fill="none" xmlns="http://www.w3.org/2000/svg">
<g id="Department card">
<g id="Rectangle 38" filter="url(#filter0_d_4295_1232)">
<path d="M3.6 23.5C3.6 13.0618 12.0618 4.6 22.5 4.6H157.5C167.938 4.6 176.4 13.0618 176.4 23.5V158.5C176.4 168.938 167.938 177.4 157.5 177.4H22.5C12.0618 177.4 3.6 168.938 3.6 158.5V23.5Z" stroke="url(#paint0_linear_4295_1232)" stroke-width="7.2" shape-rendering="crispEdges"/>
</g>
<g id="Form design">
<g id="Mask group">
<mask id="mask0_4295_1232" style="mask-type:alpha" maskUnits="userSpaceOnUse" x="60" y="-50" width="184" height="100">
<path id="Ellipse 6" d="M243.768 -49.4425C243.768 -36.436 241.395 -23.5569 236.785 -11.5405C232.175 0.475876 225.418 11.3942 216.899 20.5912C208.381 29.7881 198.268 37.0836 187.139 42.0609C176.009 47.0383 164.08 49.6001 152.034 49.6001C139.987 49.6001 128.058 47.0383 116.929 42.0609C105.799 37.0835 95.6863 29.7881 87.168 20.5912C78.6498 11.3942 71.8927 0.475861 67.2826 -11.5405C62.6726 -23.5569 60.2998 -36.436 60.2998 -49.4425L152.034 -49.4425H243.768Z" fill="#061C21"/>
</mask>
<g mask="url(#mask0_4295_1232)">
<rect id="Rectangle 15" x="54.8506" y="1.87653" width="118.679" height="79.1033" rx="13.86" fill="#023047"/>
</g>
</g>
<g id="Mask group_2">
<g id="Mask group_3">
<mask id="mask1_4295_1232" style="mask-type:alpha" maskUnits="userSpaceOnUse" x="86" y="-53" width="184" height="100">
<path id="Ellipse 7" d="M270 -52.0574C270 -39.051 267.627 -26.1719 263.017 -14.1555C258.407 -2.13911 251.65 8.77925 243.132 17.9762C234.614 27.1731 224.501 34.4686 213.371 39.4459C202.242 44.4233 190.313 46.9851 178.266 46.9851C166.219 46.9851 154.291 44.4233 143.161 39.4459C132.031 34.4686 121.919 27.1731 113.4 17.9762C104.882 8.77924 98.1251 -2.13913 93.5151 -14.1555C88.905 -26.1719 86.5322 -39.051 86.5322 -52.0575L178.266 -52.0574H270Z" fill="#061C21"/>
</mask>
<g mask="url(#mask1_4295_1232)">
<rect id="Rectangle 14" x="56.9619" y="0.976746" width="117.468" height="92.832" rx="16.2" fill="#219EBC"/>
</g>
</g>
</g>
</g>
<g id="Group 15">
<g id="Frame 41">
<path id="EE" d="M36.8765 76.2633V78.9H27.4282V76.2633H36.8765ZM28.4536 61.1266V78.9H25.0967V61.1266H28.4536ZM35.6436 68.463V71.0387H27.4282V68.463H35.6436ZM36.8398 61.1266V63.7755H27.4282V61.1266H36.8398ZM50.9878 76.2633V78.9H41.5396V76.2633H50.9878ZM42.5649 61.1266V78.9H39.208V61.1266H42.5649ZM49.7549 68.463V71.0387H41.5396V68.463H49.7549ZM50.9512 61.1266V63.7755H41.5396V61.1266H50.9512Z" fill="#023047"/>
<path id="Electrical engineering" d="M32.0015 107.345V108.9H25.9624V107.345H32.0015ZM26.5171 97.525V108.9H24.5562V97.525H26.5171ZM31.2124 102.275V103.806H25.9624V102.275H31.2124ZM31.9624 97.525V99.0875H25.9624V97.525H31.9624ZM35.4312 96.9V108.9H33.5405V96.9H35.4312ZM41.2202 109.056C40.5952 109.056 40.0301 108.955 39.5249 108.752C39.0249 108.543 38.5978 108.254 38.2437 107.884C37.8947 107.515 37.6265 107.08 37.439 106.58C37.2515 106.08 37.1577 105.541 37.1577 104.963V104.65C37.1577 103.989 37.2541 103.39 37.4468 102.853C37.6395 102.317 37.9077 101.858 38.2515 101.478C38.5952 101.093 39.0015 100.798 39.4702 100.595C39.939 100.392 40.4468 100.291 40.9937 100.291C41.5978 100.291 42.1265 100.392 42.5796 100.595C43.0327 100.798 43.4077 101.085 43.7046 101.455C44.0067 101.819 44.2306 102.254 44.3765 102.759C44.5275 103.265 44.603 103.822 44.603 104.431V105.236H38.0718V103.884H42.7437V103.736C42.7332 103.397 42.6655 103.08 42.5405 102.783C42.4207 102.486 42.2358 102.246 41.9858 102.064C41.7358 101.882 41.4025 101.791 40.9858 101.791C40.6733 101.791 40.3947 101.858 40.1499 101.994C39.9103 102.124 39.7098 102.314 39.5483 102.564C39.3869 102.814 39.2619 103.116 39.1733 103.47C39.09 103.819 39.0483 104.213 39.0483 104.65V104.963C39.0483 105.332 39.0978 105.676 39.1968 105.994C39.3009 106.306 39.452 106.58 39.6499 106.814C39.8478 107.048 40.0874 107.233 40.3687 107.369C40.6499 107.499 40.9702 107.564 41.3296 107.564C41.7827 107.564 42.1864 107.473 42.5405 107.291C42.8947 107.108 43.202 106.851 43.4624 106.517L44.4546 107.478C44.2723 107.744 44.0353 107.999 43.7437 108.244C43.452 108.483 43.0952 108.679 42.6733 108.83C42.2567 108.981 41.7723 109.056 41.2202 109.056ZM49.5249 107.556C49.8322 107.556 50.1082 107.496 50.353 107.377C50.603 107.252 50.8035 107.08 50.9546 106.861C51.1108 106.642 51.1968 106.39 51.2124 106.103H52.9858C52.9754 106.65 52.814 107.147 52.5015 107.595C52.189 108.043 51.7749 108.4 51.2593 108.666C50.7437 108.926 50.1733 109.056 49.5483 109.056C48.9025 109.056 48.34 108.947 47.8608 108.728C47.3817 108.504 46.9832 108.197 46.6655 107.806C46.3478 107.416 46.1082 106.965 45.9468 106.455C45.7905 105.944 45.7124 105.397 45.7124 104.814V104.541C45.7124 103.957 45.7905 103.41 45.9468 102.9C46.1082 102.384 46.3478 101.931 46.6655 101.541C46.9832 101.15 47.3817 100.845 47.8608 100.627C48.34 100.403 48.8999 100.291 49.5405 100.291C50.2176 100.291 50.8114 100.426 51.3218 100.697C51.8322 100.963 52.2332 101.335 52.5249 101.814C52.8218 102.288 52.9754 102.84 52.9858 103.47H51.2124C51.1968 103.158 51.1187 102.877 50.978 102.627C50.8426 102.371 50.6499 102.168 50.3999 102.017C50.1551 101.866 49.8608 101.791 49.5171 101.791C49.1369 101.791 48.8218 101.869 48.5718 102.025C48.3218 102.176 48.1265 102.384 47.9858 102.65C47.8452 102.91 47.7437 103.205 47.6812 103.533C47.6239 103.856 47.5952 104.192 47.5952 104.541V104.814C47.5952 105.163 47.6239 105.502 47.6812 105.83C47.7384 106.158 47.8374 106.452 47.978 106.713C48.1239 106.968 48.3218 107.173 48.5718 107.33C48.8218 107.481 49.1395 107.556 49.5249 107.556ZM58.3062 100.447V101.822H53.5405V100.447H58.3062ZM54.9155 98.3766H56.7983V106.564C56.7983 106.825 56.8348 107.025 56.9077 107.166C56.9858 107.301 57.0926 107.392 57.228 107.439C57.3634 107.486 57.5223 107.509 57.7046 107.509C57.8348 107.509 57.9598 107.502 58.0796 107.486C58.1994 107.47 58.2957 107.455 58.3687 107.439L58.3765 108.877C58.2202 108.923 58.0379 108.965 57.8296 109.002C57.6265 109.038 57.3921 109.056 57.1265 109.056C56.6942 109.056 56.3114 108.981 55.978 108.83C55.6447 108.673 55.3843 108.421 55.1968 108.072C55.0093 107.723 54.9155 107.259 54.9155 106.681V98.3766ZM61.6499 102.056V108.9H59.7671V100.447H61.564L61.6499 102.056ZM64.2358 100.392L64.2202 102.142C64.1056 102.121 63.9806 102.106 63.8452 102.095C63.715 102.085 63.5848 102.08 63.4546 102.08C63.1317 102.08 62.8478 102.127 62.603 102.22C62.3582 102.309 62.1525 102.439 61.9858 102.611C61.8244 102.778 61.6994 102.981 61.6108 103.22C61.5223 103.46 61.4702 103.728 61.4546 104.025L61.0249 104.056C61.0249 103.525 61.077 103.033 61.1812 102.58C61.2853 102.127 61.4416 101.728 61.6499 101.384C61.8634 101.041 62.1291 100.772 62.4468 100.58C62.7697 100.387 63.1421 100.291 63.564 100.291C63.6785 100.291 63.8009 100.301 63.9312 100.322C64.0666 100.343 64.1681 100.366 64.2358 100.392ZM67.4312 100.447V108.9H65.5405V100.447H67.4312ZM65.4155 98.2281C65.4155 97.9417 65.5093 97.7047 65.6968 97.5172C65.8895 97.3245 66.1551 97.2281 66.4937 97.2281C66.827 97.2281 67.09 97.3245 67.2827 97.5172C67.4754 97.7047 67.5718 97.9417 67.5718 98.2281C67.5718 98.5094 67.4754 98.7438 67.2827 98.9313C67.09 99.1188 66.827 99.2125 66.4937 99.2125C66.1551 99.2125 65.8895 99.1188 65.6968 98.9313C65.5093 98.7438 65.4155 98.5094 65.4155 98.2281ZM72.9468 107.556C73.2541 107.556 73.5301 107.496 73.7749 107.377C74.0249 107.252 74.2254 107.08 74.3765 106.861C74.5327 106.642 74.6187 106.39 74.6343 106.103H76.4077C76.3973 106.65 76.2358 107.147 75.9233 107.595C75.6108 108.043 75.1968 108.4 74.6812 108.666C74.1655 108.926 73.5952 109.056 72.9702 109.056C72.3244 109.056 71.7619 108.947 71.2827 108.728C70.8035 108.504 70.4051 108.197 70.0874 107.806C69.7697 107.416 69.5301 106.965 69.3687 106.455C69.2124 105.944 69.1343 105.397 69.1343 104.814V104.541C69.1343 103.957 69.2124 103.41 69.3687 102.9C69.5301 102.384 69.7697 101.931 70.0874 101.541C70.4051 101.15 70.8035 100.845 71.2827 100.627C71.7619 100.403 72.3218 100.291 72.9624 100.291C73.6395 100.291 74.2332 100.426 74.7437 100.697C75.2541 100.963 75.6551 101.335 75.9468 101.814C76.2437 102.288 76.3973 102.84 76.4077 103.47H74.6343C74.6187 103.158 74.5405 102.877 74.3999 102.627C74.2645 102.371 74.0718 102.168 73.8218 102.017C73.577 101.866 73.2827 101.791 72.939 101.791C72.5588 101.791 72.2437 101.869 71.9937 102.025C71.7437 102.176 71.5483 102.384 71.4077 102.65C71.2671 102.91 71.1655 103.205 71.103 103.533C71.0457 103.856 71.0171 104.192 71.0171 104.541V104.814C71.0171 105.163 71.0457 105.502 71.103 105.83C71.1603 106.158 71.2593 106.452 71.3999 106.713C71.5457 106.968 71.7437 107.173 71.9937 107.33C72.2437 107.481 72.5614 107.556 72.9468 107.556ZM82.6187 107.205V103.173C82.6187 102.871 82.564 102.611 82.4546 102.392C82.3452 102.173 82.1785 102.004 81.9546 101.884C81.7358 101.765 81.4598 101.705 81.1265 101.705C80.8192 101.705 80.5535 101.757 80.3296 101.861C80.1056 101.965 79.9312 102.106 79.8062 102.283C79.6812 102.46 79.6187 102.66 79.6187 102.884H77.7437C77.7437 102.551 77.8244 102.228 77.9858 101.916C78.1473 101.603 78.3817 101.325 78.689 101.08C78.9963 100.835 79.3634 100.642 79.7905 100.502C80.2176 100.361 80.6968 100.291 81.228 100.291C81.8634 100.291 82.4259 100.397 82.9155 100.611C83.4103 100.825 83.7983 101.147 84.0796 101.58C84.366 102.007 84.5093 102.543 84.5093 103.189V106.947C84.5093 107.332 84.5353 107.679 84.5874 107.986C84.6447 108.288 84.7254 108.551 84.8296 108.775V108.9H82.8999C82.8114 108.697 82.741 108.439 82.689 108.127C82.6421 107.809 82.6187 107.502 82.6187 107.205ZM82.8921 103.759L82.9077 104.923H81.5562C81.2072 104.923 80.8999 104.957 80.6343 105.025C80.3687 105.088 80.1473 105.181 79.9702 105.306C79.7931 105.431 79.6603 105.582 79.5718 105.759C79.4832 105.936 79.439 106.137 79.439 106.361C79.439 106.585 79.491 106.791 79.5952 106.978C79.6994 107.16 79.8504 107.304 80.0483 107.408C80.2515 107.512 80.4963 107.564 80.7827 107.564C81.1681 107.564 81.5041 107.486 81.7905 107.33C82.0822 107.168 82.3114 106.973 82.478 106.744C82.6447 106.509 82.7332 106.288 82.7437 106.08L83.353 106.916C83.2905 107.129 83.1838 107.358 83.0327 107.603C82.8817 107.848 82.6838 108.082 82.439 108.306C82.1994 108.525 81.9103 108.705 81.5718 108.845C81.2384 108.986 80.853 109.056 80.4155 109.056C79.8634 109.056 79.3713 108.947 78.939 108.728C78.5067 108.504 78.1681 108.205 77.9233 107.83C77.6785 107.45 77.5562 107.02 77.5562 106.541C77.5562 106.093 77.6395 105.697 77.8062 105.353C77.978 105.004 78.228 104.713 78.5562 104.478C78.8895 104.244 79.2957 104.067 79.7749 103.947C80.2541 103.822 80.8009 103.759 81.4155 103.759H82.8921ZM88.4937 96.9V108.9H86.603V96.9H88.4937ZM32.0015 126.345V127.9H25.9624V126.345H32.0015ZM26.5171 116.525V127.9H24.5562V116.525H26.5171ZM31.2124 121.275V122.806H25.9624V121.275H31.2124ZM31.9624 116.525V118.088H25.9624V116.525H31.9624ZM35.2827 121.252V127.9H33.3999V119.447H35.1733L35.2827 121.252ZM34.9468 123.361L34.3374 123.353C34.3426 122.754 34.4259 122.205 34.5874 121.705C34.7541 121.205 34.9832 120.775 35.2749 120.416C35.5718 120.056 35.9259 119.78 36.3374 119.588C36.7489 119.39 37.2072 119.291 37.7124 119.291C38.1187 119.291 38.4858 119.348 38.814 119.463C39.1473 119.572 39.4312 119.752 39.6655 120.002C39.9051 120.252 40.0874 120.577 40.2124 120.978C40.3374 121.374 40.3999 121.861 40.3999 122.439V127.9H38.5093V122.431C38.5093 122.025 38.4494 121.705 38.3296 121.47C38.215 121.231 38.0457 121.061 37.8218 120.963C37.603 120.858 37.3296 120.806 37.0015 120.806C36.6785 120.806 36.3895 120.874 36.1343 121.009C35.8791 121.145 35.6629 121.33 35.4858 121.564C35.314 121.798 35.1812 122.069 35.0874 122.377C34.9937 122.684 34.9468 123.012 34.9468 123.361ZM47.7358 119.447H49.4468V127.666C49.4468 128.426 49.2853 129.072 48.9624 129.603C48.6395 130.134 48.189 130.538 47.6108 130.814C47.0327 131.095 46.3634 131.236 45.603 131.236C45.2801 131.236 44.9207 131.189 44.5249 131.095C44.1343 131.002 43.7541 130.851 43.3843 130.642C43.0197 130.439 42.715 130.171 42.4702 129.838L43.353 128.728C43.6551 129.088 43.9884 129.351 44.353 129.517C44.7176 129.684 45.1004 129.767 45.5015 129.767C45.9338 129.767 46.3009 129.686 46.603 129.525C46.9103 129.369 47.1473 129.137 47.314 128.83C47.4806 128.522 47.564 128.147 47.564 127.705V121.361L47.7358 119.447ZM41.9937 123.767V123.603C41.9937 122.963 42.0718 122.379 42.228 121.853C42.3843 121.322 42.6082 120.866 42.8999 120.486C43.1916 120.101 43.5457 119.806 43.9624 119.603C44.3791 119.395 44.8504 119.291 45.3765 119.291C45.9233 119.291 46.3895 119.39 46.7749 119.588C47.1655 119.785 47.491 120.069 47.7515 120.439C48.0119 120.804 48.215 121.241 48.3608 121.752C48.5119 122.257 48.6239 122.819 48.6968 123.439V123.963C48.6291 124.567 48.5145 125.119 48.353 125.619C48.1916 126.119 47.978 126.551 47.7124 126.916C47.4468 127.28 47.1187 127.561 46.728 127.759C46.3426 127.957 45.8869 128.056 45.3608 128.056C44.8452 128.056 44.3791 127.95 43.9624 127.736C43.5509 127.522 43.1968 127.223 42.8999 126.838C42.6082 126.452 42.3843 125.999 42.228 125.478C42.0718 124.952 41.9937 124.382 41.9937 123.767ZM43.8765 123.603V123.767C43.8765 124.153 43.9129 124.512 43.9858 124.845C44.064 125.179 44.1812 125.473 44.3374 125.728C44.4989 125.978 44.702 126.176 44.9468 126.322C45.1968 126.463 45.491 126.533 45.8296 126.533C46.2723 126.533 46.6343 126.439 46.9155 126.252C47.202 126.064 47.4207 125.811 47.5718 125.494C47.728 125.171 47.8374 124.811 47.8999 124.416V123.002C47.8687 122.694 47.8035 122.408 47.7046 122.142C47.6108 121.877 47.4832 121.645 47.3218 121.447C47.1603 121.244 46.9572 121.088 46.7124 120.978C46.4676 120.864 46.1785 120.806 45.8452 120.806C45.5067 120.806 45.2124 120.879 44.9624 121.025C44.7124 121.171 44.5067 121.371 44.3452 121.627C44.189 121.882 44.0718 122.179 43.9937 122.517C43.9155 122.856 43.8765 123.218 43.8765 123.603ZM53.4155 119.447V127.9H51.5249V119.447H53.4155ZM51.3999 117.228C51.3999 116.942 51.4937 116.705 51.6812 116.517C51.8739 116.325 52.1395 116.228 52.478 116.228C52.8114 116.228 53.0744 116.325 53.2671 116.517C53.4598 116.705 53.5562 116.942 53.5562 117.228C53.5562 117.509 53.4598 117.744 53.2671 117.931C53.0744 118.119 52.8114 118.213 52.478 118.213C52.1395 118.213 51.8739 118.119 51.6812 117.931C51.4937 117.744 51.3999 117.509 51.3999 117.228ZM57.3452 121.252V127.9H55.4624V119.447H57.2358L57.3452 121.252ZM57.0093 123.361L56.3999 123.353C56.4051 122.754 56.4884 122.205 56.6499 121.705C56.8166 121.205 57.0457 120.775 57.3374 120.416C57.6343 120.056 57.9884 119.78 58.3999 119.588C58.8114 119.39 59.2697 119.291 59.7749 119.291C60.1812 119.291 60.5483 119.348 60.8765 119.463C61.2098 119.572 61.4937 119.752 61.728 120.002C61.9676 120.252 62.1499 120.577 62.2749 120.978C62.3999 121.374 62.4624 121.861 62.4624 122.439V127.9H60.5718V122.431C60.5718 122.025 60.5119 121.705 60.3921 121.47C60.2775 121.231 60.1082 121.061 59.8843 120.963C59.6655 120.858 59.3921 120.806 59.064 120.806C58.741 120.806 58.452 120.874 58.1968 121.009C57.9416 121.145 57.7254 121.33 57.5483 121.564C57.3765 121.798 57.2437 122.069 57.1499 122.377C57.0562 122.684 57.0093 123.012 57.0093 123.361ZM68.1108 128.056C67.4858 128.056 66.9207 127.955 66.4155 127.752C65.9155 127.543 65.4884 127.254 65.1343 126.884C64.7853 126.515 64.5171 126.08 64.3296 125.58C64.1421 125.08 64.0483 124.541 64.0483 123.963V123.65C64.0483 122.989 64.1447 122.39 64.3374 121.853C64.5301 121.317 64.7983 120.858 65.1421 120.478C65.4858 120.093 65.8921 119.798 66.3608 119.595C66.8296 119.392 67.3374 119.291 67.8843 119.291C68.4884 119.291 69.0171 119.392 69.4702 119.595C69.9233 119.798 70.2983 120.085 70.5952 120.455C70.8973 120.819 71.1213 121.254 71.2671 121.759C71.4181 122.265 71.4937 122.822 71.4937 123.431V124.236H64.9624V122.884H69.6343V122.736C69.6239 122.397 69.5562 122.08 69.4312 121.783C69.3114 121.486 69.1265 121.246 68.8765 121.064C68.6265 120.882 68.2931 120.791 67.8765 120.791C67.564 120.791 67.2853 120.858 67.0405 120.994C66.8009 121.124 66.6004 121.314 66.439 121.564C66.2775 121.814 66.1525 122.116 66.064 122.47C65.9806 122.819 65.939 123.213 65.939 123.65V123.963C65.939 124.332 65.9884 124.676 66.0874 124.994C66.1916 125.306 66.3426 125.58 66.5405 125.814C66.7384 126.048 66.978 126.233 67.2593 126.369C67.5405 126.499 67.8608 126.564 68.2202 126.564C68.6733 126.564 69.077 126.473 69.4312 126.291C69.7853 126.108 70.0926 125.851 70.353 125.517L71.3452 126.478C71.1629 126.744 70.9259 126.999 70.6343 127.244C70.3426 127.483 69.9858 127.679 69.564 127.83C69.1473 127.981 68.6629 128.056 68.1108 128.056ZM76.689 128.056C76.064 128.056 75.4989 127.955 74.9937 127.752C74.4937 127.543 74.0666 127.254 73.7124 126.884C73.3634 126.515 73.0952 126.08 72.9077 125.58C72.7202 125.08 72.6265 124.541 72.6265 123.963V123.65C72.6265 122.989 72.7228 122.39 72.9155 121.853C73.1082 121.317 73.3765 120.858 73.7202 120.478C74.064 120.093 74.4702 119.798 74.939 119.595C75.4077 119.392 75.9155 119.291 76.4624 119.291C77.0666 119.291 77.5952 119.392 78.0483 119.595C78.5015 119.798 78.8765 120.085 79.1733 120.455C79.4754 120.819 79.6994 121.254 79.8452 121.759C79.9963 122.265 80.0718 122.822 80.0718 123.431V124.236H73.5405V122.884H78.2124V122.736C78.202 122.397 78.1343 122.08 78.0093 121.783C77.8895 121.486 77.7046 121.246 77.4546 121.064C77.2046 120.882 76.8713 120.791 76.4546 120.791C76.1421 120.791 75.8634 120.858 75.6187 120.994C75.3791 121.124 75.1785 121.314 75.0171 121.564C74.8556 121.814 74.7306 122.116 74.6421 122.47C74.5588 122.819 74.5171 123.213 74.5171 123.65V123.963C74.5171 124.332 74.5666 124.676 74.6655 124.994C74.7697 125.306 74.9207 125.58 75.1187 125.814C75.3166 126.048 75.5562 126.233 75.8374 126.369C76.1187 126.499 76.439 126.564 76.7983 126.564C77.2515 126.564 77.6551 126.473 78.0093 126.291C78.3634 126.108 78.6707 125.851 78.9312 125.517L79.9233 126.478C79.741 126.744 79.5041 126.999 79.2124 127.244C78.9207 127.483 78.564 127.679 78.1421 127.83C77.7254 127.981 77.241 128.056 76.689 128.056ZM83.4312 121.056V127.9H81.5483V119.447H83.3452L83.4312 121.056ZM86.0171 119.392L86.0015 121.142C85.8869 121.121 85.7619 121.106 85.6265 121.095C85.4963 121.085 85.366 121.08 85.2358 121.08C84.9129 121.08 84.6291 121.127 84.3843 121.22C84.1395 121.309 83.9338 121.439 83.7671 121.611C83.6056 121.778 83.4806 121.981 83.3921 122.22C83.3035 122.46 83.2515 122.728 83.2358 123.025L82.8062 123.056C82.8062 122.525 82.8582 122.033 82.9624 121.58C83.0666 121.127 83.2228 120.728 83.4312 120.384C83.6447 120.041 83.9103 119.772 84.228 119.58C84.5509 119.387 84.9233 119.291 85.3452 119.291C85.4598 119.291 85.5822 119.301 85.7124 119.322C85.8478 119.343 85.9494 119.366 86.0171 119.392ZM89.2124 119.447V127.9H87.3218V119.447H89.2124ZM87.1968 117.228C87.1968 116.942 87.2905 116.705 87.478 116.517C87.6707 116.325 87.9364 116.228 88.2749 116.228C88.6082 116.228 88.8713 116.325 89.064 116.517C89.2567 116.705 89.353 116.942 89.353 117.228C89.353 117.509 89.2567 117.744 89.064 117.931C88.8713 118.119 88.6082 118.213 88.2749 118.213C87.9364 118.213 87.6707 118.119 87.478 117.931C87.2905 117.744 87.1968 117.509 87.1968 117.228ZM93.1421 121.252V127.9H91.2593V119.447H93.0327L93.1421 121.252ZM92.8062 123.361L92.1968 123.353C92.202 122.754 92.2853 122.205 92.4468 121.705C92.6134 121.205 92.8426 120.775 93.1343 120.416C93.4312 120.056 93.7853 119.78 94.1968 119.588C94.6082 119.39 95.0666 119.291 95.5718 119.291C95.978 119.291 96.3452 119.348 96.6733 119.463C97.0067 119.572 97.2905 119.752 97.5249 120.002C97.7645 120.252 97.9468 120.577 98.0718 120.978C98.1968 121.374 98.2593 121.861 98.2593 122.439V127.9H96.3687V122.431C96.3687 122.025 96.3088 121.705 96.189 121.47C96.0744 121.231 95.9051 121.061 95.6812 120.963C95.4624 120.858 95.189 120.806 94.8608 120.806C94.5379 120.806 94.2489 120.874 93.9937 121.009C93.7384 121.145 93.5223 121.33 93.3452 121.564C93.1733 121.798 93.0405 122.069 92.9468 122.377C92.853 122.684 92.8062 123.012 92.8062 123.361ZM105.595 119.447H107.306V127.666C107.306 128.426 107.145 129.072 106.822 129.603C106.499 130.134 106.048 130.538 105.47 130.814C104.892 131.095 104.223 131.236 103.462 131.236C103.139 131.236 102.78 131.189 102.384 131.095C101.994 131.002 101.613 130.851 101.244 130.642C100.879 130.439 100.574 130.171 100.33 129.838L101.212 128.728C101.514 129.088 101.848 129.351 102.212 129.517C102.577 129.684 102.96 129.767 103.361 129.767C103.793 129.767 104.16 129.686 104.462 129.525C104.77 129.369 105.007 129.137 105.173 128.83C105.34 128.522 105.423 128.147 105.423 127.705V121.361L105.595 119.447ZM99.853 123.767V123.603C99.853 122.963 99.9312 122.379 100.087 121.853C100.244 121.322 100.468 120.866 100.759 120.486C101.051 120.101 101.405 119.806 101.822 119.603C102.238 119.395 102.71 119.291 103.236 119.291C103.783 119.291 104.249 119.39 104.634 119.588C105.025 119.785 105.35 120.069 105.611 120.439C105.871 120.804 106.074 121.241 106.22 121.752C106.371 122.257 106.483 122.819 106.556 123.439V123.963C106.488 124.567 106.374 125.119 106.212 125.619C106.051 126.119 105.837 126.551 105.572 126.916C105.306 127.28 104.978 127.561 104.587 127.759C104.202 127.957 103.746 128.056 103.22 128.056C102.705 128.056 102.238 127.95 101.822 127.736C101.41 127.522 101.056 127.223 100.759 126.838C100.468 126.452 100.244 125.999 100.087 125.478C99.9312 124.952 99.853 124.382 99.853 123.767ZM101.736 123.603V123.767C101.736 124.153 101.772 124.512 101.845 124.845C101.923 125.179 102.041 125.473 102.197 125.728C102.358 125.978 102.561 126.176 102.806 126.322C103.056 126.463 103.35 126.533 103.689 126.533C104.132 126.533 104.494 126.439 104.775 126.252C105.061 126.064 105.28 125.811 105.431 125.494C105.587 125.171 105.697 124.811 105.759 124.416V123.002C105.728 122.694 105.663 122.408 105.564 122.142C105.47 121.877 105.343 121.645 105.181 121.447C105.02 121.244 104.817 121.088 104.572 120.978C104.327 120.864 104.038 120.806 103.705 120.806C103.366 120.806 103.072 120.879 102.822 121.025C102.572 121.171 102.366 121.371 102.205 121.627C102.048 121.882 101.931 122.179 101.853 122.517C101.775 122.856 101.736 123.218 101.736 123.603Z" fill="#023047"/>
<a href="http://www.ee.iitb.ac.in/">
<rect fill="black" fill-opacity="0" y="0.125" width="70.1641" height="18.75"/>
</a>
<a href="http://www.ee.iitb.ac.in/">
<rect fill="black" fill-opacity="0" y="19.125" width="84.8828" height="18.75"/>
</a>
</g>
</g>
</g>
<defs>
<filter id="filter0_d_4295_1232" x="0" y="1" width="187.2" height="187.2" filterUnits="userSpaceOnUse" color-interpolation-filters="sRGB">
<feFlood flood-opacity="0" result="BackgroundImageFix"/>
<feColorMatrix in="SourceAlpha" type="matrix" values="0 0 0 0 0 0 0 0 0 0 0 0 0 0 0 0 0 0 127 0" result="hardAlpha"/>
<feOffset dx="3.6" dy="3.6"/>
<feGaussianBlur stdDeviation="1.8"/>
<feComposite in2="hardAlpha" operator="out"/>
<feColorMatrix type="matrix" values="0 0 0 0 0 0 0 0 0 0 0 0 0 0 0 0 0 0 0.25 0"/>
<feBlend mode="normal" in2="BackgroundImageFix" result="effect1_dropShadow_4295_1232"/>
<feBlend mode="normal" in="SourceGraphic" in2="effect1_dropShadow_4295_1232" result="shape"/>
</filter>
<linearGradient id="paint0_linear_4295_1232" x1="5.31818" y1="7.95455" x2="174.273" y2="45.5909" gradientUnits="userSpaceOnUse">
<stop stop-color="#023047"/>
<stop offset="0.472141" stop-color="#063E56"/>
<stop offset="1" stop-color="#219EBC"/>
</linearGradient>
</defs>
</svg>
