<svg width="188" height="189" viewBox="0 0 188 189" fill="none" xmlns="http://www.w3.org/2000/svg">
<g id="Department card">
<g id="Rectangle 38" filter="url(#filter0_d_4295_1250)">
<path d="M3.6 23.5C3.6 13.0618 12.0618 4.6 22.5 4.6H157.5C167.938 4.6 176.4 13.0618 176.4 23.5V158.5C176.4 168.938 167.938 177.4 157.5 177.4H22.5C12.0618 177.4 3.6 168.938 3.6 158.5V23.5Z" stroke="url(#paint0_linear_4295_1250)" stroke-width="7.2" shape-rendering="crispEdges"/>
</g>
<g id="Form design">
<g id="Mask group">
<mask id="mask0_4295_1250" style="mask-type:alpha" maskUnits="userSpaceOnUse" x="60" y="-50" width="184" height="100">
<path id="Ellipse 6" d="M243.768 -49.4425C243.768 -36.436 241.395 -23.5569 236.785 -11.5405C232.175 0.475876 225.418 11.3942 216.899 20.5912C208.381 29.7881 198.268 37.0836 187.139 42.0609C176.009 47.0383 164.08 49.6001 152.034 49.6001C139.987 49.6001 128.058 47.0383 116.929 42.0609C105.799 37.0835 95.6863 29.7881 87.168 20.5912C78.6498 11.3942 71.8927 0.475861 67.2826 -11.5405C62.6726 -23.5569 60.2998 -36.436 60.2998 -49.4425L152.034 -49.4425H243.768Z" fill="#061C21"/>
</mask>
<g mask="url(#mask0_4295_1250)">
<rect id="Rectangle 15" x="54.8506" y="1.87653" width="118.679" height="79.1033" rx="13.86" fill="#023047"/>
</g>
</g>
<g id="Mask group_2">
<g id="Mask group_3">
<mask id="mask1_4295_1250" style="mask-type:alpha" maskUnits="userSpaceOnUse" x="86" y="-53" width="184" height="100">
<path id="Ellipse 7" d="M270 -52.0574C270 -39.051 267.627 -26.1719 263.017 -14.1555C258.407 -2.13911 251.65 8.77925 243.132 17.9762C234.614 27.1731 224.501 34.4686 213.371 39.4459C202.242 44.4233 190.313 46.9851 178.266 46.9851C166.219 46.9851 154.291 44.4233 143.161 39.4459C132.031 34.4686 121.919 27.1731 113.4 17.9762C104.882 8.77924 98.1251 -2.13913 93.5151 -14.1555C88.905 -26.1719 86.5322 -39.051 86.5322 -52.0575L178.266 -52.0574H270Z" fill="#061C21"/>
</mask>
<g mask="url(#mask1_4295_1250)">
<rect id="Rectangle 14" x="56.9619" y="0.976746" width="117.468" height="92.832" rx="16.2" fill="#219EBC"/>
</g>
</g>
</g>
</g>
<g id="Group 15">
<g id="Frame 41">
<path id="EE" d="M26.5615 61.1266H29.4668L34.3252 74.5055L39.1714 61.1266H42.0889L35.4849 78.9H33.1533L26.5615 61.1266ZM25.0967 61.1266H27.9409L28.4536 73.419V78.9H25.0967V61.1266ZM40.6973 61.1266H43.5537V78.9H40.1968V73.419L40.6973 61.1266ZM54.0029 76.0924V70.0011C54.0029 69.5535 53.9256 69.1669 53.771 68.8414C53.6164 68.5159 53.3804 68.2636 53.063 68.0846C52.7456 67.9055 52.3428 67.816 51.8545 67.816C51.4232 67.816 51.0448 67.8893 50.7192 68.0357C50.4019 68.1822 50.1577 68.3897 49.9868 68.6583C49.8159 68.9187 49.7305 69.2198 49.7305 69.5616H46.4956C46.4956 69.0164 46.6258 68.4996 46.8862 68.0113C47.1466 67.5149 47.5169 67.0754 47.9971 66.693C48.4854 66.3023 49.0672 65.9972 49.7427 65.7774C50.4263 65.5577 51.1912 65.4478 52.0376 65.4478C53.0386 65.4478 53.9297 65.6187 54.7109 65.9605C55.5003 66.2942 56.1188 66.7988 56.5664 67.4742C57.0221 68.1497 57.25 69.0001 57.25 70.0255V75.7872C57.25 76.4464 57.2907 77.012 57.3721 77.484C57.4616 77.9478 57.5918 78.3507 57.7627 78.6925V78.9H54.479C54.3244 78.5663 54.2064 78.1432 54.125 77.6305C54.0436 77.1096 54.0029 76.5969 54.0029 76.0924ZM54.4546 70.8556L54.479 72.7721H52.4404C51.9359 72.7721 51.4924 72.825 51.1099 72.9308C50.7274 73.0284 50.4141 73.1749 50.1699 73.3702C49.9258 73.5574 49.7427 73.7852 49.6206 74.0538C49.4985 74.3142 49.4375 74.6113 49.4375 74.9449C49.4375 75.2704 49.5107 75.5634 49.6572 75.8238C49.8118 76.0842 50.0316 76.2918 50.3164 76.4464C50.6094 76.5929 50.9512 76.6661 51.3418 76.6661C51.9115 76.6661 52.4079 76.5522 52.8311 76.3243C53.2542 76.0883 53.5838 75.8035 53.8198 75.4698C54.0558 75.1362 54.182 74.8188 54.1982 74.5177L55.126 75.9093C55.012 76.2429 54.8411 76.5969 54.6133 76.9713C54.3854 77.3456 54.0924 77.6956 53.7344 78.0211C53.3763 78.3466 52.945 78.6152 52.4404 78.8268C51.9359 79.0383 51.3499 79.1441 50.6826 79.1441C49.8281 79.1441 49.0632 78.9732 48.3877 78.6314C47.7122 78.2896 47.1792 77.8217 46.7886 77.2276C46.3979 76.6336 46.2026 75.9581 46.2026 75.2013C46.2026 74.5014 46.3328 73.8829 46.5933 73.3458C46.8537 72.8087 47.2402 72.357 47.7529 71.9908C48.2656 71.6165 48.9004 71.3357 49.6572 71.1485C50.4222 70.9532 51.297 70.8556 52.2817 70.8556H54.4546ZM66.4053 65.692V68.0113H58.8369V65.692H66.4053ZM60.8633 62.4449H64.0981V75.0914C64.0981 75.482 64.151 75.7831 64.2568 75.9947C64.3626 76.2063 64.5213 76.3487 64.7329 76.422C64.9445 76.4952 65.1968 76.5318 65.4897 76.5318C65.7013 76.5318 65.8966 76.5196 66.0757 76.4952C66.2547 76.4708 66.4053 76.4464 66.5273 76.422L66.5396 78.839C66.271 78.9285 65.9658 79.0017 65.624 79.0587C65.2904 79.1157 64.9119 79.1441 64.4888 79.1441C63.7645 79.1441 63.1297 79.0221 62.5845 78.7779C62.0392 78.5256 61.616 78.1228 61.3149 77.5694C61.0138 77.0079 60.8633 76.2673 60.8633 75.3477V62.4449ZM71.7153 60.15V78.9H68.4805V60.15H71.7153ZM71.2026 71.8199H70.2505C70.2505 70.9003 70.3726 70.054 70.6167 69.2809C70.8608 68.5077 71.2067 67.8364 71.6543 67.2667C72.1019 66.6889 72.6349 66.2413 73.2534 65.9239C73.88 65.6065 74.5718 65.4478 75.3286 65.4478C75.9797 65.4478 76.5697 65.5414 77.0986 65.7286C77.6357 65.9076 78.0955 66.1965 78.478 66.5953C78.8605 66.9941 79.1535 67.5149 79.3569 68.1578C79.5685 68.7926 79.6743 69.5657 79.6743 70.4771V78.9H76.4272V70.4527C76.4272 69.8424 76.3377 69.3622 76.1587 69.0123C75.9797 68.6542 75.7233 68.3979 75.3896 68.2433C75.0641 68.0886 74.6613 68.0113 74.1812 68.0113C73.6603 68.0113 73.2127 68.113 72.8384 68.3165C72.464 68.5118 72.1548 68.7844 71.9106 69.1344C71.6746 69.4843 71.4956 69.8871 71.3735 70.3429C71.2596 70.7986 71.2026 71.2909 71.2026 71.8199Z" fill="#023047"/>
<path id="Electrical engineering" d="M25.353 97.525H27.103L30.3921 106.298L33.6733 97.525H35.4233L31.0796 108.9H29.689L25.353 97.525ZM24.5562 97.525H26.2202L26.5093 105.119V108.9H24.5562V97.525ZM34.5562 97.525H36.228V108.9H34.2671V105.119L34.5562 97.525ZM43.1343 107.205V103.173C43.1343 102.871 43.0796 102.611 42.9702 102.392C42.8608 102.173 42.6942 102.004 42.4702 101.884C42.2515 101.765 41.9754 101.705 41.6421 101.705C41.3348 101.705 41.0692 101.757 40.8452 101.861C40.6213 101.965 40.4468 102.106 40.3218 102.283C40.1968 102.46 40.1343 102.66 40.1343 102.884H38.2593C38.2593 102.551 38.34 102.228 38.5015 101.916C38.6629 101.603 38.8973 101.324 39.2046 101.08C39.5119 100.835 39.8791 100.642 40.3062 100.502C40.7332 100.361 41.2124 100.291 41.7437 100.291C42.3791 100.291 42.9416 100.397 43.4312 100.611C43.9259 100.824 44.314 101.147 44.5952 101.58C44.8817 102.007 45.0249 102.543 45.0249 103.189V106.947C45.0249 107.332 45.0509 107.679 45.103 107.986C45.1603 108.288 45.241 108.551 45.3452 108.775V108.9H43.4155C43.327 108.697 43.2567 108.439 43.2046 108.127C43.1577 107.809 43.1343 107.502 43.1343 107.205ZM43.4077 103.759L43.4233 104.923H42.0718C41.7228 104.923 41.4155 104.957 41.1499 105.025C40.8843 105.087 40.6629 105.181 40.4858 105.306C40.3088 105.431 40.1759 105.582 40.0874 105.759C39.9989 105.936 39.9546 106.137 39.9546 106.361C39.9546 106.585 40.0067 106.791 40.1108 106.978C40.215 107.16 40.366 107.304 40.564 107.408C40.7671 107.512 41.0119 107.564 41.2983 107.564C41.6838 107.564 42.0197 107.486 42.3062 107.33C42.5978 107.168 42.827 106.973 42.9937 106.744C43.1603 106.509 43.2489 106.288 43.2593 106.08L43.8687 106.916C43.8062 107.129 43.6994 107.358 43.5483 107.603C43.3973 107.848 43.1994 108.082 42.9546 108.306C42.715 108.525 42.4259 108.705 42.0874 108.845C41.7541 108.986 41.3687 109.056 40.9312 109.056C40.3791 109.056 39.8869 108.947 39.4546 108.728C39.0223 108.504 38.6838 108.205 38.439 107.83C38.1942 107.449 38.0718 107.02 38.0718 106.541C38.0718 106.093 38.1551 105.697 38.3218 105.353C38.4937 105.004 38.7437 104.712 39.0718 104.478C39.4051 104.244 39.8114 104.067 40.2905 103.947C40.7697 103.822 41.3166 103.759 41.9312 103.759H43.4077ZM50.8687 100.447V101.822H46.103V100.447H50.8687ZM47.478 98.3766H49.3608V106.564C49.3608 106.824 49.3973 107.025 49.4702 107.166C49.5483 107.301 49.6551 107.392 49.7905 107.439C49.9259 107.486 50.0848 107.509 50.2671 107.509C50.3973 107.509 50.5223 107.502 50.6421 107.486C50.7619 107.47 50.8582 107.455 50.9312 107.439L50.939 108.877C50.7827 108.923 50.6004 108.965 50.3921 109.002C50.189 109.038 49.9546 109.056 49.689 109.056C49.2567 109.056 48.8739 108.981 48.5405 108.83C48.2072 108.673 47.9468 108.421 47.7593 108.072C47.5718 107.723 47.478 107.259 47.478 106.681V98.3766ZM54.1812 96.9V108.9H52.3062V96.9H54.1812ZM53.853 104.361L53.2437 104.353C53.2489 103.77 53.3296 103.231 53.4858 102.736C53.6473 102.241 53.8713 101.811 54.1577 101.447C54.4494 101.077 54.7983 100.793 55.2046 100.595C55.6108 100.392 56.0614 100.291 56.5562 100.291C56.9728 100.291 57.3478 100.348 57.6812 100.462C58.0197 100.577 58.3114 100.762 58.5562 101.017C58.8009 101.267 58.9858 101.595 59.1108 102.002C59.241 102.403 59.3062 102.892 59.3062 103.47V108.9H57.4155V103.455C57.4155 103.048 57.3556 102.726 57.2358 102.486C57.1213 102.246 56.952 102.074 56.728 101.97C56.5041 101.861 56.2306 101.806 55.9077 101.806C55.5692 101.806 55.2697 101.874 55.0093 102.009C54.7541 102.145 54.5405 102.33 54.3687 102.564C54.1968 102.798 54.0666 103.069 53.978 103.377C53.8947 103.684 53.853 104.012 53.853 104.361ZM64.939 109.056C64.314 109.056 63.7489 108.955 63.2437 108.752C62.7437 108.543 62.3166 108.254 61.9624 107.884C61.6134 107.515 61.3452 107.08 61.1577 106.58C60.9702 106.08 60.8765 105.541 60.8765 104.962V104.65C60.8765 103.989 60.9728 103.39 61.1655 102.853C61.3582 102.317 61.6265 101.858 61.9702 101.478C62.314 101.093 62.7202 100.798 63.189 100.595C63.6577 100.392 64.1655 100.291 64.7124 100.291C65.3166 100.291 65.8452 100.392 66.2983 100.595C66.7515 100.798 67.1265 101.085 67.4233 101.455C67.7254 101.819 67.9494 102.254 68.0952 102.759C68.2463 103.265 68.3218 103.822 68.3218 104.431V105.236H61.7905V103.884H66.4624V103.736C66.452 103.397 66.3843 103.08 66.2593 102.783C66.1395 102.486 65.9546 102.246 65.7046 102.064C65.4546 101.882 65.1213 101.791 64.7046 101.791C64.3921 101.791 64.1134 101.858 63.8687 101.994C63.6291 102.124 63.4285 102.314 63.2671 102.564C63.1056 102.814 62.9806 103.116 62.8921 103.47C62.8088 103.819 62.7671 104.212 62.7671 104.65V104.962C62.7671 105.332 62.8166 105.676 62.9155 105.994C63.0197 106.306 63.1707 106.58 63.3687 106.814C63.5666 107.048 63.8062 107.233 64.0874 107.369C64.3687 107.499 64.689 107.564 65.0483 107.564C65.5015 107.564 65.9051 107.473 66.2593 107.291C66.6134 107.108 66.9207 106.851 67.1812 106.517L68.1733 107.478C67.991 107.744 67.7541 107.999 67.4624 108.244C67.1707 108.483 66.814 108.679 66.3921 108.83C65.9754 108.981 65.491 109.056 64.939 109.056ZM71.6733 102.166V108.9H69.7905V100.447H71.564L71.6733 102.166ZM71.3687 104.361L70.728 104.353C70.728 103.77 70.8009 103.231 70.9468 102.736C71.0926 102.241 71.3062 101.811 71.5874 101.447C71.8687 101.077 72.2176 100.793 72.6343 100.595C73.0562 100.392 73.5431 100.291 74.0952 100.291C74.4806 100.291 74.8322 100.348 75.1499 100.462C75.4728 100.572 75.7515 100.746 75.9858 100.986C76.2254 101.226 76.4077 101.533 76.5327 101.908C76.6629 102.283 76.728 102.736 76.728 103.267V108.9H74.8452V103.431C74.8452 103.02 74.7827 102.697 74.6577 102.462C74.5379 102.228 74.3634 102.061 74.1343 101.962C73.9103 101.858 73.6421 101.806 73.3296 101.806C72.9754 101.806 72.6733 101.874 72.4233 102.009C72.1785 102.145 71.978 102.33 71.8218 102.564C71.6655 102.798 71.5509 103.069 71.478 103.377C71.4051 103.684 71.3687 104.012 71.3687 104.361ZM76.6108 103.861L75.728 104.056C75.728 103.546 75.7983 103.064 75.939 102.611C76.0848 102.153 76.2957 101.752 76.5718 101.408C76.853 101.059 77.1994 100.785 77.6108 100.587C78.0223 100.39 78.4937 100.291 79.0249 100.291C79.4572 100.291 79.8426 100.351 80.1812 100.47C80.5249 100.585 80.8166 100.767 81.0562 101.017C81.2957 101.267 81.478 101.593 81.603 101.994C81.728 102.39 81.7905 102.869 81.7905 103.431V108.9H79.8999V103.423C79.8999 102.996 79.8374 102.666 79.7124 102.431C79.5926 102.197 79.4207 102.035 79.1968 101.947C78.9728 101.853 78.7046 101.806 78.3921 101.806C78.1004 101.806 77.8426 101.861 77.6187 101.97C77.3999 102.074 77.215 102.223 77.064 102.416C76.9129 102.603 76.7983 102.819 76.7202 103.064C76.6473 103.309 76.6108 103.574 76.6108 103.861ZM88.4937 107.205V103.173C88.4937 102.871 88.439 102.611 88.3296 102.392C88.2202 102.173 88.0535 102.004 87.8296 101.884C87.6108 101.765 87.3348 101.705 87.0015 101.705C86.6942 101.705 86.4285 101.757 86.2046 101.861C85.9806 101.965 85.8062 102.106 85.6812 102.283C85.5562 102.46 85.4937 102.66 85.4937 102.884H83.6187C83.6187 102.551 83.6994 102.228 83.8608 101.916C84.0223 101.603 84.2567 101.324 84.564 101.08C84.8713 100.835 85.2384 100.642 85.6655 100.502C86.0926 100.361 86.5718 100.291 87.103 100.291C87.7384 100.291 88.3009 100.397 88.7905 100.611C89.2853 100.824 89.6733 101.147 89.9546 101.58C90.241 102.007 90.3843 102.543 90.3843 103.189V106.947C90.3843 107.332 90.4103 107.679 90.4624 107.986C90.5197 108.288 90.6004 108.551 90.7046 108.775V108.9H88.7749C88.6864 108.697 88.616 108.439 88.564 108.127C88.5171 107.809 88.4937 107.502 88.4937 107.205ZM88.7671 103.759L88.7827 104.923H87.4312C87.0822 104.923 86.7749 104.957 86.5093 105.025C86.2437 105.087 86.0223 105.181 85.8452 105.306C85.6681 105.431 85.5353 105.582 85.4468 105.759C85.3582 105.936 85.314 106.137 85.314 106.361C85.314 106.585 85.366 106.791 85.4702 106.978C85.5744 107.16 85.7254 107.304 85.9233 107.408C86.1265 107.512 86.3713 107.564 86.6577 107.564C87.0431 107.564 87.3791 107.486 87.6655 107.33C87.9572 107.168 88.1864 106.973 88.353 106.744C88.5197 106.509 88.6082 106.288 88.6187 106.08L89.228 106.916C89.1655 107.129 89.0588 107.358 88.9077 107.603C88.7567 107.848 88.5588 108.082 88.314 108.306C88.0744 108.525 87.7853 108.705 87.4468 108.845C87.1134 108.986 86.728 109.056 86.2905 109.056C85.7384 109.056 85.2463 108.947 84.814 108.728C84.3817 108.504 84.0431 108.205 83.7983 107.83C83.5535 107.449 83.4312 107.02 83.4312 106.541C83.4312 106.093 83.5145 105.697 83.6812 105.353C83.853 105.004 84.103 104.712 84.4312 104.478C84.7645 104.244 85.1707 104.067 85.6499 103.947C86.1291 103.822 86.6759 103.759 87.2905 103.759H88.7671ZM96.228 100.447V101.822H91.4624V100.447H96.228ZM92.8374 98.3766H94.7202V106.564C94.7202 106.824 94.7567 107.025 94.8296 107.166C94.9077 107.301 95.0145 107.392 95.1499 107.439C95.2853 107.486 95.4442 107.509 95.6265 107.509C95.7567 107.509 95.8817 107.502 96.0015 107.486C96.1213 107.47 96.2176 107.455 96.2905 107.439L96.2983 108.877C96.1421 108.923 95.9598 108.965 95.7515 109.002C95.5483 109.038 95.314 109.056 95.0483 109.056C94.616 109.056 94.2332 108.981 93.8999 108.83C93.5666 108.673 93.3062 108.421 93.1187 108.072C92.9312 107.723 92.8374 107.259 92.8374 106.681V98.3766ZM99.6968 100.447V108.9H97.8062V100.447H99.6968ZM97.6812 98.2281C97.6812 97.9417 97.7749 97.7047 97.9624 97.5172C98.1551 97.3245 98.4207 97.2281 98.7593 97.2281C99.0926 97.2281 99.3556 97.3245 99.5483 97.5172C99.741 97.7047 99.8374 97.9417 99.8374 98.2281C99.8374 98.5094 99.741 98.7437 99.5483 98.9312C99.3556 99.1187 99.0926 99.2125 98.7593 99.2125C98.4207 99.2125 98.1551 99.1187 97.9624 98.9312C97.7749 98.7437 97.6812 98.5094 97.6812 98.2281ZM105.212 107.556C105.52 107.556 105.796 107.496 106.041 107.377C106.291 107.252 106.491 107.08 106.642 106.861C106.798 106.642 106.884 106.39 106.9 106.103H108.673C108.663 106.65 108.501 107.147 108.189 107.595C107.876 108.043 107.462 108.4 106.947 108.666C106.431 108.926 105.861 109.056 105.236 109.056C104.59 109.056 104.028 108.947 103.548 108.728C103.069 108.504 102.671 108.197 102.353 107.806C102.035 107.416 101.796 106.965 101.634 106.455C101.478 105.944 101.4 105.397 101.4 104.814V104.541C101.4 103.957 101.478 103.41 101.634 102.9C101.796 102.384 102.035 101.931 102.353 101.541C102.671 101.15 103.069 100.845 103.548 100.627C104.028 100.403 104.587 100.291 105.228 100.291C105.905 100.291 106.499 100.426 107.009 100.697C107.52 100.962 107.921 101.335 108.212 101.814C108.509 102.288 108.663 102.84 108.673 103.47H106.9C106.884 103.158 106.806 102.877 106.666 102.627C106.53 102.371 106.337 102.168 106.087 102.017C105.843 101.866 105.548 101.791 105.205 101.791C104.824 101.791 104.509 101.869 104.259 102.025C104.009 102.176 103.814 102.384 103.673 102.65C103.533 102.91 103.431 103.205 103.369 103.533C103.311 103.856 103.283 104.192 103.283 104.541V104.814C103.283 105.163 103.311 105.502 103.369 105.83C103.426 106.158 103.525 106.452 103.666 106.712C103.811 106.968 104.009 107.173 104.259 107.33C104.509 107.481 104.827 107.556 105.212 107.556ZM114.861 106.611C114.861 106.423 114.814 106.254 114.72 106.103C114.626 105.947 114.447 105.806 114.181 105.681C113.921 105.556 113.535 105.442 113.025 105.337C112.577 105.239 112.166 105.121 111.791 104.986C111.421 104.845 111.103 104.676 110.837 104.478C110.572 104.28 110.366 104.046 110.22 103.775C110.074 103.504 110.001 103.192 110.001 102.837C110.001 102.494 110.077 102.168 110.228 101.861C110.379 101.554 110.595 101.283 110.876 101.048C111.158 100.814 111.499 100.629 111.9 100.494C112.306 100.358 112.759 100.291 113.259 100.291C113.968 100.291 114.574 100.41 115.08 100.65C115.59 100.884 115.981 101.205 116.251 101.611C116.522 102.012 116.658 102.465 116.658 102.97H114.775C114.775 102.746 114.718 102.538 114.603 102.345C114.494 102.147 114.327 101.989 114.103 101.869C113.879 101.744 113.598 101.681 113.259 101.681C112.936 101.681 112.668 101.733 112.455 101.837C112.246 101.936 112.09 102.067 111.986 102.228C111.887 102.39 111.837 102.567 111.837 102.759C111.837 102.9 111.863 103.028 111.916 103.142C111.973 103.252 112.067 103.353 112.197 103.447C112.327 103.535 112.504 103.619 112.728 103.697C112.957 103.775 113.244 103.851 113.587 103.923C114.233 104.059 114.788 104.233 115.251 104.447C115.72 104.655 116.08 104.926 116.33 105.259C116.58 105.587 116.705 106.004 116.705 106.509C116.705 106.884 116.624 107.228 116.462 107.541C116.306 107.848 116.077 108.116 115.775 108.345C115.473 108.569 115.111 108.744 114.689 108.869C114.272 108.994 113.804 109.056 113.283 109.056C112.517 109.056 111.869 108.921 111.337 108.65C110.806 108.374 110.403 108.022 110.126 107.595C109.856 107.163 109.72 106.715 109.72 106.252H111.541C111.561 106.601 111.658 106.879 111.83 107.087C112.007 107.291 112.225 107.439 112.486 107.533C112.751 107.621 113.025 107.666 113.306 107.666C113.645 107.666 113.929 107.621 114.158 107.533C114.387 107.439 114.561 107.314 114.681 107.158C114.801 106.996 114.861 106.814 114.861 106.611Z" fill="#023047"/>
<a href="http://www.math.iitb.ac.in/">
<rect fill="black" fill-opacity="0" y="0.125" width="93.9844" height="18.75"/>
</a>
</g>
</g>
</g>
<defs>
<filter id="filter0_d_4295_1250" x="0" y="1" width="187.2" height="187.2" filterUnits="userSpaceOnUse" color-interpolation-filters="sRGB">
<feFlood flood-opacity="0" result="BackgroundImageFix"/>
<feColorMatrix in="SourceAlpha" type="matrix" values="0 0 0 0 0 0 0 0 0 0 0 0 0 0 0 0 0 0 127 0" result="hardAlpha"/>
<feOffset dx="3.6" dy="3.6"/>
<feGaussianBlur stdDeviation="1.8"/>
<feComposite in2="hardAlpha" operator="out"/>
<feColorMatrix type="matrix" values="0 0 0 0 0 0 0 0 0 0 0 0 0 0 0 0 0 0 0.25 0"/>
<feBlend mode="normal" in2="BackgroundImageFix" result="effect1_dropShadow_4295_1250"/>
<feBlend mode="normal" in="SourceGraphic" in2="effect1_dropShadow_4295_1250" result="shape"/>
</filter>
<linearGradient id="paint0_linear_4295_1250" x1="5.31818" y1="7.95455" x2="174.273" y2="45.5909" gradientUnits="userSpaceOnUse">
<stop stop-color="#023047"/>
<stop offset="0.472141" stop-color="#063E56"/>
<stop offset="1" stop-color="#219EBC"/>
</linearGradient>
</defs>
</svg>
