<svg width="188" height="189" viewBox="0 0 188 189" fill="none" xmlns="http://www.w3.org/2000/svg">
<g id="Department card">
<g id="Rectangle 38" filter="url(#filter0_d_4295_1019)">
<path d="M3.6 23.5C3.6 13.0618 12.0618 4.6 22.5 4.6H157.5C167.938 4.6 176.4 13.0618 176.4 23.5V158.5C176.4 168.938 167.938 177.4 157.5 177.4H22.5C12.0618 177.4 3.6 168.938 3.6 158.5V23.5Z" stroke="url(#paint0_linear_4295_1019)" stroke-width="7.2" shape-rendering="crispEdges"/>
</g>
<g id="Form design">
<g id="Mask group">
<mask id="mask0_4295_1019" style="mask-type:alpha" maskUnits="userSpaceOnUse" x="60" y="-50" width="184" height="100">
<path id="Ellipse 6" d="M243.768 -49.4425C243.768 -36.436 241.395 -23.5569 236.785 -11.5405C232.175 0.475876 225.418 11.3942 216.899 20.5912C208.381 29.7881 198.268 37.0836 187.139 42.0609C176.009 47.0383 164.08 49.6001 152.034 49.6001C139.987 49.6001 128.058 47.0383 116.929 42.0609C105.799 37.0835 95.6863 29.7881 87.168 20.5912C78.6498 11.3942 71.8927 0.475861 67.2826 -11.5405C62.6726 -23.5569 60.2998 -36.436 60.2998 -49.4425L152.034 -49.4425H243.768Z" fill="#061C21"/>
</mask>
<g mask="url(#mask0_4295_1019)">
<rect id="Rectangle 15" x="54.8506" y="1.87653" width="118.679" height="79.1033" rx="13.86" fill="#023047"/>
</g>
</g>
<g id="Mask group_2">
<g id="Mask group_3">
<mask id="mask1_4295_1019" style="mask-type:alpha" maskUnits="userSpaceOnUse" x="86" y="-53" width="184" height="100">
<path id="Ellipse 7" d="M270 -52.0574C270 -39.051 267.627 -26.1719 263.017 -14.1555C258.407 -2.13911 251.65 8.77925 243.132 17.9762C234.614 27.1731 224.501 34.4686 213.371 39.4459C202.242 44.4233 190.313 46.9851 178.266 46.9851C166.219 46.9851 154.291 44.4233 143.161 39.4459C132.031 34.4686 121.919 27.1731 113.4 17.9762C104.882 8.77924 98.1251 -2.13913 93.5151 -14.1555C88.905 -26.1719 86.5322 -39.051 86.5322 -52.0575L178.266 -52.0574H270Z" fill="#061C21"/>
</mask>
<g mask="url(#mask1_4295_1019)">
<rect id="Rectangle 14" x="56.9619" y="0.976746" width="117.468" height="92.832" rx="16.2" fill="#219EBC"/>
</g>
</g>
</g>
</g>
<g id="Group 15">
<g id="Frame 41">
<path id="EE" d="M32.1646 63.8243L27.0986 78.9H23.5464L30.187 61.1266H32.4575L32.1646 63.8243ZM36.4004 78.9L31.3101 63.8243L31.0049 61.1266H33.2876L39.9648 78.9H36.4004ZM36.1685 72.296V74.9449H26.6348V72.296H36.1685ZM53.5757 76.2633V78.9H44.1274V76.2633H53.5757ZM45.1528 61.1266V78.9H41.7959V61.1266H45.1528ZM52.3428 68.463V71.0387H44.1274V68.463H52.3428ZM53.5391 61.1266V63.7755H44.1274V61.1266H53.5391Z" fill="#023047"/>
<path id="Electrical engineering" d="M28.9858 99.0406L25.5874 108.9H23.5327L27.814 97.525H29.1265L28.9858 99.0406ZM31.8296 108.9L28.4233 99.0406L28.2749 97.525H29.5952L33.8921 108.9H31.8296ZM31.6655 104.681V106.236H25.478V104.681H31.6655ZM38.7046 109.056C38.0796 109.056 37.5145 108.955 37.0093 108.752C36.5093 108.543 36.0822 108.254 35.728 107.884C35.3791 107.515 35.1108 107.08 34.9233 106.58C34.7358 106.08 34.6421 105.541 34.6421 104.963V104.65C34.6421 103.989 34.7384 103.39 34.9312 102.853C35.1239 102.317 35.3921 101.858 35.7358 101.478C36.0796 101.093 36.4858 100.798 36.9546 100.595C37.4233 100.392 37.9312 100.291 38.478 100.291C39.0822 100.291 39.6108 100.392 40.064 100.595C40.5171 100.798 40.8921 101.085 41.189 101.455C41.491 101.819 41.715 102.254 41.8608 102.759C42.0119 103.265 42.0874 103.822 42.0874 104.431V105.236H35.5562V103.884H40.228V103.736C40.2176 103.397 40.1499 103.08 40.0249 102.783C39.9051 102.486 39.7202 102.246 39.4702 102.064C39.2202 101.882 38.8869 101.791 38.4702 101.791C38.1577 101.791 37.8791 101.858 37.6343 101.994C37.3947 102.124 37.1942 102.314 37.0327 102.564C36.8713 102.814 36.7463 103.116 36.6577 103.47C36.5744 103.819 36.5327 104.213 36.5327 104.65V104.963C36.5327 105.332 36.5822 105.676 36.6812 105.994C36.7853 106.306 36.9364 106.58 37.1343 106.814C37.3322 107.048 37.5718 107.233 37.853 107.369C38.1343 107.499 38.4546 107.564 38.814 107.564C39.2671 107.564 39.6707 107.473 40.0249 107.291C40.3791 107.108 40.6864 106.851 40.9468 106.517L41.939 107.478C41.7567 107.744 41.5197 107.999 41.228 108.244C40.9364 108.483 40.5796 108.679 40.1577 108.83C39.741 108.981 39.2567 109.056 38.7046 109.056ZM45.4468 102.056V108.9H43.564V100.447H45.3608L45.4468 102.056ZM48.0327 100.392L48.0171 102.142C47.9025 102.121 47.7775 102.106 47.6421 102.095C47.5119 102.085 47.3817 102.08 47.2515 102.08C46.9285 102.08 46.6447 102.127 46.3999 102.22C46.1551 102.309 45.9494 102.439 45.7827 102.611C45.6213 102.778 45.4963 102.981 45.4077 103.22C45.3192 103.46 45.2671 103.728 45.2515 104.025L44.8218 104.056C44.8218 103.525 44.8739 103.033 44.978 102.58C45.0822 102.127 45.2384 101.728 45.4468 101.384C45.6603 101.041 45.9259 100.772 46.2437 100.58C46.5666 100.387 46.939 100.291 47.3608 100.291C47.4754 100.291 47.5978 100.301 47.728 100.322C47.8634 100.343 47.965 100.366 48.0327 100.392ZM48.6499 104.767V104.588C48.6499 103.978 48.7384 103.413 48.9155 102.892C49.0926 102.366 49.3478 101.91 49.6812 101.525C50.0197 101.134 50.4312 100.832 50.9155 100.619C51.4051 100.4 51.9572 100.291 52.5718 100.291C53.1916 100.291 53.7437 100.4 54.228 100.619C54.7176 100.832 55.1317 101.134 55.4702 101.525C55.8088 101.91 56.0666 102.366 56.2437 102.892C56.4207 103.413 56.5093 103.978 56.5093 104.588V104.767C56.5093 105.377 56.4207 105.942 56.2437 106.463C56.0666 106.983 55.8088 107.439 55.4702 107.83C55.1317 108.215 54.7202 108.517 54.2358 108.736C53.7515 108.95 53.202 109.056 52.5874 109.056C51.9676 109.056 51.4129 108.95 50.9233 108.736C50.439 108.517 50.0275 108.215 49.689 107.83C49.3504 107.439 49.0926 106.983 48.9155 106.463C48.7384 105.942 48.6499 105.377 48.6499 104.767ZM50.5327 104.588V104.767C50.5327 105.147 50.5718 105.507 50.6499 105.845C50.728 106.184 50.8504 106.481 51.0171 106.736C51.1838 106.991 51.3973 107.192 51.6577 107.338C51.9181 107.483 52.228 107.556 52.5874 107.556C52.9364 107.556 53.2384 107.483 53.4937 107.338C53.7541 107.192 53.9676 106.991 54.1343 106.736C54.3009 106.481 54.4233 106.184 54.5015 105.845C54.5848 105.507 54.6265 105.147 54.6265 104.767V104.588C54.6265 104.213 54.5848 103.858 54.5015 103.525C54.4233 103.186 54.2983 102.887 54.1265 102.627C53.9598 102.366 53.7463 102.163 53.4858 102.017C53.2306 101.866 52.9259 101.791 52.5718 101.791C52.2176 101.791 51.9103 101.866 51.6499 102.017C51.3947 102.163 51.1838 102.366 51.0171 102.627C50.8504 102.887 50.728 103.186 50.6499 103.525C50.5718 103.858 50.5327 104.213 50.5327 104.588ZM62.8296 106.611C62.8296 106.423 62.7827 106.254 62.689 106.103C62.5952 105.947 62.4155 105.806 62.1499 105.681C61.8895 105.556 61.5041 105.442 60.9937 105.338C60.5457 105.239 60.1343 105.121 59.7593 104.986C59.3895 104.845 59.0718 104.676 58.8062 104.478C58.5405 104.28 58.3348 104.046 58.189 103.775C58.0431 103.504 57.9702 103.192 57.9702 102.838C57.9702 102.494 58.0457 102.168 58.1968 101.861C58.3478 101.554 58.564 101.283 58.8452 101.048C59.1265 100.814 59.4676 100.629 59.8687 100.494C60.2749 100.358 60.728 100.291 61.228 100.291C61.9364 100.291 62.5431 100.41 63.0483 100.65C63.5588 100.884 63.9494 101.205 64.2202 101.611C64.491 102.012 64.6265 102.465 64.6265 102.97H62.7437C62.7437 102.746 62.6864 102.538 62.5718 102.345C62.4624 102.147 62.2957 101.989 62.0718 101.869C61.8478 101.744 61.5666 101.681 61.228 101.681C60.9051 101.681 60.6369 101.733 60.4233 101.838C60.215 101.936 60.0588 102.067 59.9546 102.228C59.8556 102.39 59.8062 102.567 59.8062 102.759C59.8062 102.9 59.8322 103.028 59.8843 103.142C59.9416 103.252 60.0353 103.353 60.1655 103.447C60.2957 103.535 60.4728 103.619 60.6968 103.697C60.9259 103.775 61.2124 103.851 61.5562 103.923C62.202 104.059 62.7567 104.233 63.2202 104.447C63.689 104.655 64.0483 104.926 64.2983 105.259C64.5483 105.588 64.6733 106.004 64.6733 106.509C64.6733 106.884 64.5926 107.228 64.4312 107.541C64.2749 107.848 64.0457 108.116 63.7437 108.345C63.4416 108.569 63.0796 108.744 62.6577 108.869C62.241 108.994 61.7723 109.056 61.2515 109.056C60.4858 109.056 59.8374 108.921 59.3062 108.65C58.7749 108.374 58.3713 108.022 58.0952 107.595C57.8244 107.163 57.689 106.715 57.689 106.252H59.5093C59.5301 106.601 59.6265 106.879 59.7983 107.088C59.9754 107.291 60.1942 107.439 60.4546 107.533C60.7202 107.621 60.9937 107.666 61.2749 107.666C61.6134 107.666 61.8973 107.621 62.1265 107.533C62.3556 107.439 62.5301 107.314 62.6499 107.158C62.7697 106.996 62.8296 106.814 62.8296 106.611ZM68.2124 102.072V112.15H66.3296V100.447H68.064L68.2124 102.072ZM73.7202 104.595V104.759C73.7202 105.374 73.6473 105.944 73.5015 106.47C73.3608 106.991 73.1499 107.447 72.8687 107.838C72.5926 108.223 72.2515 108.522 71.8452 108.736C71.439 108.95 70.9702 109.056 70.439 109.056C69.9129 109.056 69.452 108.96 69.0562 108.767C68.6655 108.569 68.3348 108.291 68.064 107.931C67.7931 107.572 67.5744 107.15 67.4077 106.666C67.2463 106.176 67.1317 105.64 67.064 105.056V104.423C67.1317 103.804 67.2463 103.241 67.4077 102.736C67.5744 102.231 67.7931 101.796 68.064 101.431C68.3348 101.067 68.6655 100.785 69.0562 100.588C69.4468 100.39 69.9025 100.291 70.4233 100.291C70.9546 100.291 71.4259 100.395 71.8374 100.603C72.2489 100.806 72.5952 101.098 72.8765 101.478C73.1577 101.853 73.3687 102.306 73.5093 102.838C73.6499 103.364 73.7202 103.95 73.7202 104.595ZM71.8374 104.759V104.595C71.8374 104.205 71.8009 103.843 71.728 103.509C71.6551 103.171 71.5405 102.874 71.3843 102.619C71.228 102.364 71.0275 102.166 70.7827 102.025C70.5431 101.879 70.2541 101.806 69.9155 101.806C69.5822 101.806 69.2957 101.864 69.0562 101.978C68.8166 102.088 68.616 102.241 68.4546 102.439C68.2931 102.637 68.1681 102.869 68.0796 103.134C67.991 103.395 67.9285 103.679 67.8921 103.986V105.502C67.9546 105.877 68.0614 106.22 68.2124 106.533C68.3634 106.845 68.577 107.095 68.853 107.283C69.1343 107.465 69.4937 107.556 69.9312 107.556C70.2697 107.556 70.5588 107.483 70.7983 107.338C71.0379 107.192 71.2332 106.991 71.3843 106.736C71.5405 106.476 71.6551 106.176 71.728 105.838C71.8009 105.499 71.8374 105.14 71.8374 104.759ZM80.0874 107.205V103.173C80.0874 102.871 80.0327 102.611 79.9233 102.392C79.814 102.173 79.6473 102.004 79.4233 101.884C79.2046 101.765 78.9285 101.705 78.5952 101.705C78.2879 101.705 78.0223 101.757 77.7983 101.861C77.5744 101.965 77.3999 102.106 77.2749 102.283C77.1499 102.46 77.0874 102.66 77.0874 102.884H75.2124C75.2124 102.551 75.2931 102.228 75.4546 101.916C75.616 101.603 75.8504 101.325 76.1577 101.08C76.465 100.835 76.8322 100.642 77.2593 100.502C77.6864 100.361 78.1655 100.291 78.6968 100.291C79.3322 100.291 79.8947 100.397 80.3843 100.611C80.8791 100.825 81.2671 101.147 81.5483 101.58C81.8348 102.007 81.978 102.543 81.978 103.189V106.947C81.978 107.332 82.0041 107.679 82.0562 107.986C82.1134 108.288 82.1942 108.551 82.2983 108.775V108.9H80.3687C80.2801 108.697 80.2098 108.439 80.1577 108.127C80.1108 107.809 80.0874 107.502 80.0874 107.205ZM80.3608 103.759L80.3765 104.923H79.0249C78.6759 104.923 78.3687 104.957 78.103 105.025C77.8374 105.088 77.616 105.181 77.439 105.306C77.2619 105.431 77.1291 105.582 77.0405 105.759C76.952 105.936 76.9077 106.137 76.9077 106.361C76.9077 106.585 76.9598 106.791 77.064 106.978C77.1681 107.16 77.3192 107.304 77.5171 107.408C77.7202 107.512 77.965 107.564 78.2515 107.564C78.6369 107.564 78.9728 107.486 79.2593 107.33C79.5509 107.168 79.7801 106.973 79.9468 106.744C80.1134 106.509 80.202 106.288 80.2124 106.08L80.8218 106.916C80.7593 107.129 80.6525 107.358 80.5015 107.603C80.3504 107.848 80.1525 108.082 79.9077 108.306C79.6681 108.525 79.3791 108.705 79.0405 108.845C78.7072 108.986 78.3218 109.056 77.8843 109.056C77.3322 109.056 76.84 108.947 76.4077 108.728C75.9754 108.504 75.6369 108.205 75.3921 107.83C75.1473 107.45 75.0249 107.02 75.0249 106.541C75.0249 106.093 75.1082 105.697 75.2749 105.353C75.4468 105.004 75.6968 104.713 76.0249 104.478C76.3582 104.244 76.7645 104.067 77.2437 103.947C77.7228 103.822 78.2697 103.759 78.8843 103.759H80.3608ZM87.3999 107.556C87.7072 107.556 87.9832 107.496 88.228 107.377C88.478 107.252 88.6785 107.08 88.8296 106.861C88.9858 106.642 89.0718 106.39 89.0874 106.103H90.8608C90.8504 106.65 90.689 107.147 90.3765 107.595C90.064 108.043 89.6499 108.4 89.1343 108.666C88.6187 108.926 88.0483 109.056 87.4233 109.056C86.7775 109.056 86.215 108.947 85.7358 108.728C85.2567 108.504 84.8582 108.197 84.5405 107.806C84.2228 107.416 83.9832 106.965 83.8218 106.455C83.6655 105.944 83.5874 105.397 83.5874 104.814V104.541C83.5874 103.957 83.6655 103.41 83.8218 102.9C83.9832 102.384 84.2228 101.931 84.5405 101.541C84.8582 101.15 85.2567 100.845 85.7358 100.627C86.215 100.403 86.7749 100.291 87.4155 100.291C88.0926 100.291 88.6864 100.426 89.1968 100.697C89.7072 100.963 90.1082 101.335 90.3999 101.814C90.6968 102.288 90.8504 102.84 90.8608 103.47H89.0874C89.0718 103.158 88.9937 102.877 88.853 102.627C88.7176 102.371 88.5249 102.168 88.2749 102.017C88.0301 101.866 87.7358 101.791 87.3921 101.791C87.0119 101.791 86.6968 101.869 86.4468 102.025C86.1968 102.176 86.0015 102.384 85.8608 102.65C85.7202 102.91 85.6187 103.205 85.5562 103.533C85.4989 103.856 85.4702 104.192 85.4702 104.541V104.814C85.4702 105.163 85.4989 105.502 85.5562 105.83C85.6134 106.158 85.7124 106.452 85.853 106.713C85.9989 106.968 86.1968 107.173 86.4468 107.33C86.6968 107.481 87.0145 107.556 87.3999 107.556ZM96.0327 109.056C95.4077 109.056 94.8426 108.955 94.3374 108.752C93.8374 108.543 93.4103 108.254 93.0562 107.884C92.7072 107.515 92.439 107.08 92.2515 106.58C92.064 106.08 91.9702 105.541 91.9702 104.963V104.65C91.9702 103.989 92.0666 103.39 92.2593 102.853C92.452 102.317 92.7202 101.858 93.064 101.478C93.4077 101.093 93.814 100.798 94.2827 100.595C94.7515 100.392 95.2593 100.291 95.8062 100.291C96.4103 100.291 96.939 100.392 97.3921 100.595C97.8452 100.798 98.2202 101.085 98.5171 101.455C98.8192 101.819 99.0431 102.254 99.189 102.759C99.34 103.265 99.4155 103.822 99.4155 104.431V105.236H92.8843V103.884H97.5562V103.736C97.5457 103.397 97.478 103.08 97.353 102.783C97.2332 102.486 97.0483 102.246 96.7983 102.064C96.5483 101.882 96.215 101.791 95.7983 101.791C95.4858 101.791 95.2072 101.858 94.9624 101.994C94.7228 102.124 94.5223 102.314 94.3608 102.564C94.1994 102.814 94.0744 103.116 93.9858 103.47C93.9025 103.819 93.8608 104.213 93.8608 104.65V104.963C93.8608 105.332 93.9103 105.676 94.0093 105.994C94.1134 106.306 94.2645 106.58 94.4624 106.814C94.6603 107.048 94.8999 107.233 95.1812 107.369C95.4624 107.499 95.7827 107.564 96.1421 107.564C96.5952 107.564 96.9989 107.473 97.353 107.291C97.7072 107.108 98.0145 106.851 98.2749 106.517L99.2671 107.478C99.0848 107.744 98.8478 107.999 98.5562 108.244C98.2645 108.483 97.9077 108.679 97.4858 108.83C97.0692 108.981 96.5848 109.056 96.0327 109.056ZM32.0015 126.345V127.9H25.9624V126.345H32.0015ZM26.5171 116.525V127.9H24.5562V116.525H26.5171ZM31.2124 121.275V122.806H25.9624V121.275H31.2124ZM31.9624 116.525V118.088H25.9624V116.525H31.9624ZM35.2827 121.252V127.9H33.3999V119.447H35.1733L35.2827 121.252ZM34.9468 123.361L34.3374 123.353C34.3426 122.754 34.4259 122.205 34.5874 121.705C34.7541 121.205 34.9832 120.775 35.2749 120.416C35.5718 120.056 35.9259 119.78 36.3374 119.588C36.7489 119.39 37.2072 119.291 37.7124 119.291C38.1187 119.291 38.4858 119.348 38.814 119.463C39.1473 119.572 39.4312 119.752 39.6655 120.002C39.9051 120.252 40.0874 120.577 40.2124 120.978C40.3374 121.374 40.3999 121.861 40.3999 122.439V127.9H38.5093V122.431C38.5093 122.025 38.4494 121.705 38.3296 121.47C38.215 121.231 38.0457 121.061 37.8218 120.963C37.603 120.858 37.3296 120.806 37.0015 120.806C36.6785 120.806 36.3895 120.874 36.1343 121.009C35.8791 121.145 35.6629 121.33 35.4858 121.564C35.314 121.798 35.1812 122.069 35.0874 122.377C34.9937 122.684 34.9468 123.012 34.9468 123.361ZM47.7358 119.447H49.4468V127.666C49.4468 128.426 49.2853 129.072 48.9624 129.603C48.6395 130.134 48.189 130.538 47.6108 130.814C47.0327 131.095 46.3634 131.236 45.603 131.236C45.2801 131.236 44.9207 131.189 44.5249 131.095C44.1343 131.002 43.7541 130.851 43.3843 130.642C43.0197 130.439 42.715 130.171 42.4702 129.838L43.353 128.728C43.6551 129.088 43.9884 129.351 44.353 129.517C44.7176 129.684 45.1004 129.767 45.5015 129.767C45.9338 129.767 46.3009 129.686 46.603 129.525C46.9103 129.369 47.1473 129.137 47.314 128.83C47.4806 128.522 47.564 128.147 47.564 127.705V121.361L47.7358 119.447ZM41.9937 123.767V123.603C41.9937 122.963 42.0718 122.379 42.228 121.853C42.3843 121.322 42.6082 120.866 42.8999 120.486C43.1916 120.101 43.5457 119.806 43.9624 119.603C44.3791 119.395 44.8504 119.291 45.3765 119.291C45.9233 119.291 46.3895 119.39 46.7749 119.588C47.1655 119.785 47.491 120.069 47.7515 120.439C48.0119 120.804 48.215 121.241 48.3608 121.752C48.5119 122.257 48.6239 122.819 48.6968 123.439V123.963C48.6291 124.567 48.5145 125.119 48.353 125.619C48.1916 126.119 47.978 126.551 47.7124 126.916C47.4468 127.28 47.1187 127.561 46.728 127.759C46.3426 127.957 45.8869 128.056 45.3608 128.056C44.8452 128.056 44.3791 127.95 43.9624 127.736C43.5509 127.522 43.1968 127.223 42.8999 126.838C42.6082 126.452 42.3843 125.999 42.228 125.478C42.0718 124.952 41.9937 124.382 41.9937 123.767ZM43.8765 123.603V123.767C43.8765 124.153 43.9129 124.512 43.9858 124.845C44.064 125.179 44.1812 125.473 44.3374 125.728C44.4989 125.978 44.702 126.176 44.9468 126.322C45.1968 126.463 45.491 126.533 45.8296 126.533C46.2723 126.533 46.6343 126.439 46.9155 126.252C47.202 126.064 47.4207 125.811 47.5718 125.494C47.728 125.171 47.8374 124.811 47.8999 124.416V123.002C47.8687 122.694 47.8035 122.408 47.7046 122.142C47.6108 121.877 47.4832 121.645 47.3218 121.447C47.1603 121.244 46.9572 121.088 46.7124 120.978C46.4676 120.864 46.1785 120.806 45.8452 120.806C45.5067 120.806 45.2124 120.879 44.9624 121.025C44.7124 121.171 44.5067 121.371 44.3452 121.627C44.189 121.882 44.0718 122.179 43.9937 122.517C43.9155 122.856 43.8765 123.218 43.8765 123.603ZM53.4155 119.447V127.9H51.5249V119.447H53.4155ZM51.3999 117.228C51.3999 116.942 51.4937 116.705 51.6812 116.517C51.8739 116.325 52.1395 116.228 52.478 116.228C52.8114 116.228 53.0744 116.325 53.2671 116.517C53.4598 116.705 53.5562 116.942 53.5562 117.228C53.5562 117.509 53.4598 117.744 53.2671 117.931C53.0744 118.119 52.8114 118.213 52.478 118.213C52.1395 118.213 51.8739 118.119 51.6812 117.931C51.4937 117.744 51.3999 117.509 51.3999 117.228ZM57.3452 121.252V127.9H55.4624V119.447H57.2358L57.3452 121.252ZM57.0093 123.361L56.3999 123.353C56.4051 122.754 56.4884 122.205 56.6499 121.705C56.8166 121.205 57.0457 120.775 57.3374 120.416C57.6343 120.056 57.9884 119.78 58.3999 119.588C58.8114 119.39 59.2697 119.291 59.7749 119.291C60.1812 119.291 60.5483 119.348 60.8765 119.463C61.2098 119.572 61.4937 119.752 61.728 120.002C61.9676 120.252 62.1499 120.577 62.2749 120.978C62.3999 121.374 62.4624 121.861 62.4624 122.439V127.9H60.5718V122.431C60.5718 122.025 60.5119 121.705 60.3921 121.47C60.2775 121.231 60.1082 121.061 59.8843 120.963C59.6655 120.858 59.3921 120.806 59.064 120.806C58.741 120.806 58.452 120.874 58.1968 121.009C57.9416 121.145 57.7254 121.33 57.5483 121.564C57.3765 121.798 57.2437 122.069 57.1499 122.377C57.0562 122.684 57.0093 123.012 57.0093 123.361ZM68.1108 128.056C67.4858 128.056 66.9207 127.955 66.4155 127.752C65.9155 127.543 65.4884 127.254 65.1343 126.884C64.7853 126.515 64.5171 126.08 64.3296 125.58C64.1421 125.08 64.0483 124.541 64.0483 123.963V123.65C64.0483 122.989 64.1447 122.39 64.3374 121.853C64.5301 121.317 64.7983 120.858 65.1421 120.478C65.4858 120.093 65.8921 119.798 66.3608 119.595C66.8296 119.392 67.3374 119.291 67.8843 119.291C68.4884 119.291 69.0171 119.392 69.4702 119.595C69.9233 119.798 70.2983 120.085 70.5952 120.455C70.8973 120.819 71.1213 121.254 71.2671 121.759C71.4181 122.265 71.4937 122.822 71.4937 123.431V124.236H64.9624V122.884H69.6343V122.736C69.6239 122.397 69.5562 122.08 69.4312 121.783C69.3114 121.486 69.1265 121.246 68.8765 121.064C68.6265 120.882 68.2931 120.791 67.8765 120.791C67.564 120.791 67.2853 120.858 67.0405 120.994C66.8009 121.124 66.6004 121.314 66.439 121.564C66.2775 121.814 66.1525 122.116 66.064 122.47C65.9806 122.819 65.939 123.213 65.939 123.65V123.963C65.939 124.332 65.9884 124.676 66.0874 124.994C66.1916 125.306 66.3426 125.58 66.5405 125.814C66.7384 126.048 66.978 126.233 67.2593 126.369C67.5405 126.499 67.8608 126.564 68.2202 126.564C68.6733 126.564 69.077 126.473 69.4312 126.291C69.7853 126.108 70.0926 125.851 70.353 125.517L71.3452 126.478C71.1629 126.744 70.9259 126.999 70.6343 127.244C70.3426 127.483 69.9858 127.679 69.564 127.83C69.1473 127.981 68.6629 128.056 68.1108 128.056ZM76.689 128.056C76.064 128.056 75.4989 127.955 74.9937 127.752C74.4937 127.543 74.0666 127.254 73.7124 126.884C73.3634 126.515 73.0952 126.08 72.9077 125.58C72.7202 125.08 72.6265 124.541 72.6265 123.963V123.65C72.6265 122.989 72.7228 122.39 72.9155 121.853C73.1082 121.317 73.3765 120.858 73.7202 120.478C74.064 120.093 74.4702 119.798 74.939 119.595C75.4077 119.392 75.9155 119.291 76.4624 119.291C77.0666 119.291 77.5952 119.392 78.0483 119.595C78.5015 119.798 78.8765 120.085 79.1733 120.455C79.4754 120.819 79.6994 121.254 79.8452 121.759C79.9963 122.265 80.0718 122.822 80.0718 123.431V124.236H73.5405V122.884H78.2124V122.736C78.202 122.397 78.1343 122.08 78.0093 121.783C77.8895 121.486 77.7046 121.246 77.4546 121.064C77.2046 120.882 76.8713 120.791 76.4546 120.791C76.1421 120.791 75.8634 120.858 75.6187 120.994C75.3791 121.124 75.1785 121.314 75.0171 121.564C74.8556 121.814 74.7306 122.116 74.6421 122.47C74.5588 122.819 74.5171 123.213 74.5171 123.65V123.963C74.5171 124.332 74.5666 124.676 74.6655 124.994C74.7697 125.306 74.9207 125.58 75.1187 125.814C75.3166 126.048 75.5562 126.233 75.8374 126.369C76.1187 126.499 76.439 126.564 76.7983 126.564C77.2515 126.564 77.6551 126.473 78.0093 126.291C78.3634 126.108 78.6707 125.851 78.9312 125.517L79.9233 126.478C79.741 126.744 79.5041 126.999 79.2124 127.244C78.9207 127.483 78.564 127.679 78.1421 127.83C77.7254 127.981 77.241 128.056 76.689 128.056ZM83.4312 121.056V127.9H81.5483V119.447H83.3452L83.4312 121.056ZM86.0171 119.392L86.0015 121.142C85.8869 121.121 85.7619 121.106 85.6265 121.095C85.4963 121.085 85.366 121.08 85.2358 121.08C84.9129 121.08 84.6291 121.127 84.3843 121.22C84.1395 121.309 83.9338 121.439 83.7671 121.611C83.6056 121.778 83.4806 121.981 83.3921 122.22C83.3035 122.46 83.2515 122.728 83.2358 123.025L82.8062 123.056C82.8062 122.525 82.8582 122.033 82.9624 121.58C83.0666 121.127 83.2228 120.728 83.4312 120.384C83.6447 120.041 83.9103 119.772 84.228 119.58C84.5509 119.387 84.9233 119.291 85.3452 119.291C85.4598 119.291 85.5822 119.301 85.7124 119.322C85.8478 119.343 85.9494 119.366 86.0171 119.392ZM89.2124 119.447V127.9H87.3218V119.447H89.2124ZM87.1968 117.228C87.1968 116.942 87.2905 116.705 87.478 116.517C87.6707 116.325 87.9364 116.228 88.2749 116.228C88.6082 116.228 88.8713 116.325 89.064 116.517C89.2567 116.705 89.353 116.942 89.353 117.228C89.353 117.509 89.2567 117.744 89.064 117.931C88.8713 118.119 88.6082 118.213 88.2749 118.213C87.9364 118.213 87.6707 118.119 87.478 117.931C87.2905 117.744 87.1968 117.509 87.1968 117.228ZM93.1421 121.252V127.9H91.2593V119.447H93.0327L93.1421 121.252ZM92.8062 123.361L92.1968 123.353C92.202 122.754 92.2853 122.205 92.4468 121.705C92.6134 121.205 92.8426 120.775 93.1343 120.416C93.4312 120.056 93.7853 119.78 94.1968 119.588C94.6082 119.39 95.0666 119.291 95.5718 119.291C95.978 119.291 96.3452 119.348 96.6733 119.463C97.0067 119.572 97.2905 119.752 97.5249 120.002C97.7645 120.252 97.9468 120.577 98.0718 120.978C98.1968 121.374 98.2593 121.861 98.2593 122.439V127.9H96.3687V122.431C96.3687 122.025 96.3088 121.705 96.189 121.47C96.0744 121.231 95.9051 121.061 95.6812 120.963C95.4624 120.858 95.189 120.806 94.8608 120.806C94.5379 120.806 94.2489 120.874 93.9937 121.009C93.7384 121.145 93.5223 121.33 93.3452 121.564C93.1733 121.798 93.0405 122.069 92.9468 122.377C92.853 122.684 92.8062 123.012 92.8062 123.361ZM105.595 119.447H107.306V127.666C107.306 128.426 107.145 129.072 106.822 129.603C106.499 130.134 106.048 130.538 105.47 130.814C104.892 131.095 104.223 131.236 103.462 131.236C103.139 131.236 102.78 131.189 102.384 131.095C101.994 131.002 101.613 130.851 101.244 130.642C100.879 130.439 100.574 130.171 100.33 129.838L101.212 128.728C101.514 129.088 101.848 129.351 102.212 129.517C102.577 129.684 102.96 129.767 103.361 129.767C103.793 129.767 104.16 129.686 104.462 129.525C104.77 129.369 105.007 129.137 105.173 128.83C105.34 128.522 105.423 128.147 105.423 127.705V121.361L105.595 119.447ZM99.853 123.767V123.603C99.853 122.963 99.9312 122.379 100.087 121.853C100.244 121.322 100.468 120.866 100.759 120.486C101.051 120.101 101.405 119.806 101.822 119.603C102.238 119.395 102.71 119.291 103.236 119.291C103.783 119.291 104.249 119.39 104.634 119.588C105.025 119.785 105.35 120.069 105.611 120.439C105.871 120.804 106.074 121.241 106.22 121.752C106.371 122.257 106.483 122.819 106.556 123.439V123.963C106.488 124.567 106.374 125.119 106.212 125.619C106.051 126.119 105.837 126.551 105.572 126.916C105.306 127.28 104.978 127.561 104.587 127.759C104.202 127.957 103.746 128.056 103.22 128.056C102.705 128.056 102.238 127.95 101.822 127.736C101.41 127.522 101.056 127.223 100.759 126.838C100.468 126.452 100.244 125.999 100.087 125.478C99.9312 124.952 99.853 124.382 99.853 123.767ZM101.736 123.603V123.767C101.736 124.153 101.772 124.512 101.845 124.845C101.923 125.179 102.041 125.473 102.197 125.728C102.358 125.978 102.561 126.176 102.806 126.322C103.056 126.463 103.35 126.533 103.689 126.533C104.132 126.533 104.494 126.439 104.775 126.252C105.061 126.064 105.28 125.811 105.431 125.494C105.587 125.171 105.697 124.811 105.759 124.416V123.002C105.728 122.694 105.663 122.408 105.564 122.142C105.47 121.877 105.343 121.645 105.181 121.447C105.02 121.244 104.817 121.088 104.572 120.978C104.327 120.864 104.038 120.806 103.705 120.806C103.366 120.806 103.072 120.879 102.822 121.025C102.572 121.171 102.366 121.371 102.205 121.627C102.048 121.882 101.931 122.179 101.853 122.517C101.775 122.856 101.736 123.218 101.736 123.603Z" fill="#023047"/>
<a href="http://www.aero.iitb.ac.in/">
<rect fill="black" fill-opacity="0" y="0.125" width="80.4922" height="18.75"/>
</a>
<a href="http://www.aero.iitb.ac.in/">
<rect fill="black" fill-opacity="0" y="19.125" width="84.8828" height="18.75"/>
</a>
</g>
</g>
</g>
<defs>
<filter id="filter0_d_4295_1019" x="0" y="1" width="187.2" height="187.2" filterUnits="userSpaceOnUse" color-interpolation-filters="sRGB">
<feFlood flood-opacity="0" result="BackgroundImageFix"/>
<feColorMatrix in="SourceAlpha" type="matrix" values="0 0 0 0 0 0 0 0 0 0 0 0 0 0 0 0 0 0 127 0" result="hardAlpha"/>
<feOffset dx="3.6" dy="3.6"/>
<feGaussianBlur stdDeviation="1.8"/>
<feComposite in2="hardAlpha" operator="out"/>
<feColorMatrix type="matrix" values="0 0 0 0 0 0 0 0 0 0 0 0 0 0 0 0 0 0 0.25 0"/>
<feBlend mode="normal" in2="BackgroundImageFix" result="effect1_dropShadow_4295_1019"/>
<feBlend mode="normal" in="SourceGraphic" in2="effect1_dropShadow_4295_1019" result="shape"/>
</filter>
<linearGradient id="paint0_linear_4295_1019" x1="5.31818" y1="7.95455" x2="174.273" y2="45.5909" gradientUnits="userSpaceOnUse">
<stop stop-color="#023047"/>
<stop offset="0.472141" stop-color="#063E56"/>
<stop offset="1" stop-color="#219EBC"/>
</linearGradient>
</defs>
</svg>
