<svg width="188" height="189" viewBox="0 0 188 189" fill="none" xmlns="http://www.w3.org/2000/svg">
<g id="Department card">
<g id="Rectangle 38" filter="url(#filter0_d_4295_1793)">
<path d="M3.6 23.5C3.6 13.0618 12.0618 4.6 22.5 4.6H157.5C167.938 4.6 176.4 13.0618 176.4 23.5V158.5C176.4 168.938 167.938 177.4 157.5 177.4H22.5C12.0618 177.4 3.6 168.938 3.6 158.5V23.5Z" stroke="url(#paint0_linear_4295_1793)" stroke-width="7.2" shape-rendering="crispEdges"/>
</g>
<g id="Form design">
<g id="Mask group">
<mask id="mask0_4295_1793" style="mask-type:alpha" maskUnits="userSpaceOnUse" x="60" y="-50" width="184" height="100">
<path id="Ellipse 6" d="M243.768 -49.4425C243.768 -36.436 241.395 -23.5569 236.785 -11.5405C232.175 0.475876 225.418 11.3942 216.899 20.5912C208.381 29.7881 198.268 37.0836 187.139 42.0609C176.009 47.0383 164.08 49.6001 152.034 49.6001C139.987 49.6001 128.058 47.0383 116.929 42.0609C105.799 37.0835 95.6863 29.7881 87.168 20.5912C78.6498 11.3942 71.8927 0.475861 67.2826 -11.5405C62.6726 -23.5569 60.2998 -36.436 60.2998 -49.4425L152.034 -49.4425H243.768Z" fill="#061C21"/>
</mask>
<g mask="url(#mask0_4295_1793)">
<rect id="Rectangle 15" x="54.8506" y="1.87653" width="118.679" height="79.1033" rx="13.86" fill="#023047"/>
</g>
</g>
<g id="Mask group_2">
<g id="Mask group_3">
<mask id="mask1_4295_1793" style="mask-type:alpha" maskUnits="userSpaceOnUse" x="86" y="-53" width="184" height="100">
<path id="Ellipse 7" d="M270 -52.0575C270 -39.051 267.627 -26.1719 263.017 -14.1555C258.407 -2.13914 251.65 8.77922 243.132 17.9762C234.614 27.1731 224.501 34.4685 213.371 39.4459C202.242 44.4232 190.313 46.985 178.266 46.985C166.219 46.985 154.291 44.4232 143.161 39.4459C132.031 34.4685 121.919 27.1731 113.4 17.9762C104.882 8.77921 98.1251 -2.13916 93.5151 -14.1555C88.905 -26.1719 86.5322 -39.051 86.5322 -52.0575L178.266 -52.0575H270Z" fill="#061C21"/>
</mask>
<g mask="url(#mask1_4295_1793)">
<rect id="Rectangle 14" x="56.9619" y="0.976715" width="117.468" height="92.832" rx="16.2" fill="#219EBC"/>
</g>
</g>
</g>
</g>
<g id="Group 15">
<g id="Frame 41">
<path id="EE" d="M31.9326 72.4181H27.355V69.7813H31.9326C32.6813 69.7813 33.2876 69.6593 33.7515 69.4151C34.2235 69.1629 34.5693 68.8211 34.7891 68.3897C35.0088 67.9503 35.1187 67.4498 35.1187 66.8883C35.1187 66.343 35.0088 65.8344 34.7891 65.3624C34.5693 64.8904 34.2235 64.5079 33.7515 64.2149C33.2876 63.922 32.6813 63.7755 31.9326 63.7755H28.4536V78.9H25.0967V61.1266H31.9326C33.3161 61.1266 34.4961 61.3748 35.4727 61.8712C36.4574 62.3595 37.2061 63.039 37.7188 63.9098C38.2396 64.7724 38.5 65.7571 38.5 66.8639C38.5 68.0113 38.2396 69.0001 37.7188 69.8302C37.2061 70.6603 36.4574 71.2991 35.4727 71.7467C34.4961 72.1943 33.3161 72.4181 31.9326 72.4181ZM44.0542 60.15V78.9H40.8193V60.15H44.0542ZM43.5415 71.8199H42.5894C42.5894 70.9003 42.7114 70.054 42.9556 69.2809C43.1997 68.5077 43.5456 67.8364 43.9932 67.2667C44.4408 66.6889 44.9738 66.2413 45.5923 65.9239C46.2189 65.6065 46.9106 65.4479 47.6675 65.4479C48.3185 65.4479 48.9085 65.5414 49.4375 65.7286C49.9746 65.9077 50.4344 66.1966 50.8169 66.5953C51.1994 66.9941 51.4924 67.5149 51.6958 68.1578C51.9074 68.7926 52.0132 69.5657 52.0132 70.4771V78.9H48.7661V70.4527C48.7661 69.8424 48.6766 69.3622 48.4976 69.0123C48.3185 68.6542 48.0622 68.3979 47.7285 68.2433C47.403 68.0886 47.0002 68.0113 46.52 68.0113C45.9992 68.0113 45.5516 68.1131 45.1772 68.3165C44.8029 68.5118 44.4937 68.7844 44.2495 69.1344C44.0135 69.4843 43.8345 69.8871 43.7124 70.3429C43.5985 70.7986 43.5415 71.291 43.5415 71.8199ZM58.7271 77.4352L62.2671 65.692H65.7217L60.4238 80.902C60.3018 81.2275 60.1431 81.5815 59.9478 81.964C59.7606 82.3465 59.5083 82.7086 59.1909 83.0504C58.8735 83.4003 58.4748 83.6852 57.9946 83.9049C57.5226 84.1246 56.9489 84.2345 56.2734 84.2345C55.9805 84.2345 55.7201 84.2141 55.4922 84.1734C55.2643 84.1327 55.0243 84.0799 54.772 84.0147V81.5978C54.8534 81.6059 54.9469 81.61 55.0527 81.61C55.1667 81.6181 55.2643 81.6222 55.3457 81.6222C55.8177 81.6222 56.2083 81.5652 56.5176 81.4513C56.8268 81.3455 57.075 81.1705 57.2622 80.9264C57.4575 80.6904 57.6203 80.3811 57.7505 79.9986L58.7271 77.4352ZM56.9814 65.692L59.9722 75.421L60.4971 78.8268L58.2754 79.2296L53.5024 65.692H56.9814ZM74.5474 75.2867C74.5474 75.01 74.4741 74.7618 74.3276 74.5421C74.1812 74.3224 73.9045 74.123 73.4976 73.9439C73.0988 73.7568 72.5129 73.5818 71.7397 73.419C71.0562 73.2726 70.4255 73.0895 69.8477 72.8697C69.2699 72.65 68.7734 72.3855 68.3584 72.0763C67.9434 71.7589 67.6178 71.3886 67.3818 70.9654C67.154 70.5341 67.04 70.0377 67.04 69.4762C67.04 68.9309 67.158 68.4182 67.394 67.9381C67.63 67.4498 67.9718 67.0226 68.4194 66.6563C68.867 66.282 69.4123 65.989 70.0552 65.7774C70.6981 65.5577 71.4224 65.4479 72.228 65.4479C73.3511 65.4479 74.3154 65.631 75.1211 65.9972C75.9349 66.3634 76.5575 66.8679 76.9888 67.5108C77.4201 68.1456 77.6357 68.8618 77.6357 69.6593H74.4131C74.4131 69.3093 74.3317 68.992 74.1689 68.7071C74.0143 68.4223 73.7743 68.1944 73.4487 68.0235C73.1232 67.8445 72.7122 67.755 72.2158 67.755C71.7682 67.755 71.3898 67.8282 71.0806 67.9747C70.7795 68.1212 70.5516 68.3124 70.397 68.5484C70.2424 68.7844 70.165 69.0449 70.165 69.3297C70.165 69.5413 70.2057 69.7325 70.2871 69.9034C70.3766 70.0662 70.519 70.2167 70.7144 70.3551C70.9097 70.4934 71.1742 70.6196 71.5078 70.7335C71.8496 70.8474 72.2687 70.9573 72.7651 71.0631C73.7498 71.2584 74.6084 71.5188 75.3408 71.8443C76.0814 72.1617 76.6592 72.5849 77.0742 73.1139C77.4893 73.6428 77.6968 74.3183 77.6968 75.1402C77.6968 75.7262 77.5706 76.2633 77.3184 76.7516C77.0661 77.2317 76.6999 77.6508 76.2197 78.0089C75.7396 78.367 75.1659 78.6477 74.4985 78.8512C73.8312 79.0465 73.0785 79.1441 72.2402 79.1441C71.0277 79.1441 70.0023 78.9285 69.1641 78.4972C68.3258 78.0577 67.6911 77.5043 67.2598 76.837C66.8285 76.1616 66.6128 75.4617 66.6128 74.7374H69.7012C69.7256 75.2501 69.8639 75.6611 70.1162 75.9703C70.3685 76.2796 70.6859 76.5034 71.0684 76.6417C71.459 76.7719 71.87 76.837 72.3013 76.837C72.7896 76.837 73.2005 76.7719 73.5342 76.6417C73.8678 76.5034 74.1201 76.3202 74.291 76.0924C74.4619 75.8564 74.5474 75.5878 74.5474 75.2867ZM83.5684 65.692V78.9H80.3335V65.692H83.5684ZM80.1138 62.2374C80.1138 61.7573 80.2765 61.3585 80.6021 61.0411C80.9357 60.7237 81.3833 60.565 81.9448 60.565C82.5063 60.565 82.9499 60.7237 83.2754 61.0411C83.609 61.3585 83.7759 61.7573 83.7759 62.2374C83.7759 62.7094 83.609 63.1041 83.2754 63.4215C82.9499 63.7389 82.5063 63.8976 81.9448 63.8976C81.3833 63.8976 80.9357 63.7389 80.6021 63.4215C80.2765 63.1041 80.1138 62.7094 80.1138 62.2374ZM92.0645 76.6051C92.5202 76.6051 92.9271 76.5156 93.2852 76.3365C93.6432 76.1575 93.9281 75.9052 94.1396 75.5797C94.3594 75.2542 94.4774 74.8758 94.4937 74.4444H97.5332C97.5169 75.3396 97.2646 76.1412 96.7764 76.8492C96.2881 77.5572 95.637 78.1188 94.8232 78.5338C94.0176 78.9407 93.1143 79.1441 92.1133 79.1441C91.096 79.1441 90.209 78.9732 89.4521 78.6314C88.6953 78.2896 88.0646 77.8136 87.5601 77.2032C87.0636 76.5929 86.6893 75.8849 86.437 75.0792C86.1929 74.2735 86.0708 73.4109 86.0708 72.4913V72.1007C86.0708 71.1811 86.1929 70.3185 86.437 69.5128C86.6893 68.7071 87.0636 67.9991 87.5601 67.3888C88.0646 66.7784 88.6953 66.3023 89.4521 65.9605C90.209 65.6188 91.092 65.4479 92.1011 65.4479C93.1672 65.4479 94.103 65.6554 94.9087 66.0704C95.7225 66.4855 96.3573 67.0714 96.813 67.8282C97.2769 68.5851 97.5169 69.4762 97.5332 70.5016H94.4937C94.4774 70.0296 94.3716 69.6064 94.1763 69.232C93.981 68.8577 93.7043 68.5566 93.3462 68.3287C92.9881 68.1008 92.5527 67.9869 92.04 67.9869C91.4948 67.9869 91.0391 68.1008 90.6729 68.3287C90.3148 68.5566 90.034 68.8699 89.8306 69.2687C89.6353 69.6593 89.4969 70.0987 89.4155 70.587C89.3423 71.0672 89.3057 71.5717 89.3057 72.1007V72.4913C89.3057 73.0284 89.3423 73.5411 89.4155 74.0294C89.4969 74.5177 89.6353 74.9571 89.8306 75.3478C90.034 75.7302 90.3148 76.0354 90.6729 76.2633C91.0391 76.4911 91.5029 76.6051 92.0645 76.6051ZM106.945 75.2867C106.945 75.01 106.872 74.7618 106.725 74.5421C106.579 74.3224 106.302 74.123 105.895 73.9439C105.496 73.7568 104.91 73.5818 104.137 73.419C103.454 73.2726 102.823 73.0895 102.245 72.8697C101.667 72.65 101.171 72.3855 100.756 72.0763C100.341 71.7589 100.015 71.3886 99.7793 70.9654C99.5514 70.5341 99.4375 70.0377 99.4375 69.4762C99.4375 68.9309 99.5555 68.4182 99.7915 67.9381C100.028 67.4498 100.369 67.0226 100.817 66.6563C101.264 66.282 101.81 65.989 102.453 65.7774C103.096 65.5577 103.82 65.4479 104.625 65.4479C105.749 65.4479 106.713 65.631 107.519 65.9972C108.332 66.3634 108.955 66.8679 109.386 67.5108C109.818 68.1456 110.033 68.8618 110.033 69.6593H106.811C106.811 69.3093 106.729 68.992 106.566 68.7071C106.412 68.4223 106.172 68.1944 105.846 68.0235C105.521 67.8445 105.11 67.755 104.613 67.755C104.166 67.755 103.787 67.8282 103.478 67.9747C103.177 68.1212 102.949 68.3124 102.794 68.5484C102.64 68.7844 102.562 69.0449 102.562 69.3297C102.562 69.5413 102.603 69.7325 102.685 69.9034C102.774 70.0662 102.917 70.2167 103.112 70.3551C103.307 70.4934 103.572 70.6196 103.905 70.7335C104.247 70.8474 104.666 70.9573 105.163 71.0631C106.147 71.2584 107.006 71.5188 107.738 71.8443C108.479 72.1617 109.057 72.5849 109.472 73.1139C109.887 73.6428 110.094 74.3183 110.094 75.1402C110.094 75.7262 109.968 76.2633 109.716 76.7516C109.464 77.2317 109.097 77.6508 108.617 78.0089C108.137 78.367 107.563 78.6477 106.896 78.8512C106.229 79.0465 105.476 79.1441 104.638 79.1441C103.425 79.1441 102.4 78.9285 101.562 78.4972C100.723 78.0577 100.089 77.5043 99.6572 76.837C99.2259 76.1616 99.0103 75.4617 99.0103 74.7374H102.099C102.123 75.2501 102.261 75.6611 102.514 75.9703C102.766 76.2796 103.083 76.5034 103.466 76.6417C103.856 76.7719 104.267 76.837 104.699 76.837C105.187 76.837 105.598 76.7719 105.932 76.6417C106.265 76.5034 106.518 76.3202 106.688 76.0924C106.859 75.8564 106.945 75.5878 106.945 75.2867Z" fill="#023047"/>
<g id="Electrical engineering">
<path d="M28.8765 104.658H25.9155V103.103H28.8765C29.3921 103.103 29.8088 103.02 30.1265 102.853C30.4442 102.686 30.6759 102.457 30.8218 102.166C30.9728 101.869 31.0483 101.53 31.0483 101.15C31.0483 100.791 30.9728 100.455 30.8218 100.142C30.6759 99.8245 30.4442 99.5693 30.1265 99.3766C29.8088 99.1839 29.3921 99.0875 28.8765 99.0875H26.5171V108.9H24.5562V97.525H28.8765C29.7567 97.525 30.5041 97.6813 31.1187 97.9938C31.7384 98.301 32.2098 98.7281 32.5327 99.275C32.8556 99.8167 33.0171 100.436 33.0171 101.134C33.0171 101.869 32.8556 102.499 32.5327 103.025C32.2098 103.551 31.7384 103.955 31.1187 104.236C30.5041 104.517 29.7567 104.658 28.8765 104.658ZM36.4468 96.9V108.9H34.5718V96.9H36.4468ZM36.1187 104.361L35.5093 104.353C35.5145 103.77 35.5952 103.231 35.7515 102.736C35.9129 102.241 36.1369 101.811 36.4233 101.447C36.715 101.077 37.064 100.793 37.4702 100.595C37.8765 100.392 38.327 100.291 38.8218 100.291C39.2384 100.291 39.6134 100.348 39.9468 100.463C40.2853 100.577 40.577 100.762 40.8218 101.017C41.0666 101.267 41.2515 101.595 41.3765 102.002C41.5067 102.403 41.5718 102.892 41.5718 103.47V108.9H39.6812V103.455C39.6812 103.048 39.6213 102.726 39.5015 102.486C39.3869 102.246 39.2176 102.074 38.9937 101.97C38.7697 101.861 38.4963 101.806 38.1733 101.806C37.8348 101.806 37.5353 101.874 37.2749 102.009C37.0197 102.145 36.8062 102.33 36.6343 102.564C36.4624 102.798 36.3322 103.069 36.2437 103.377C36.1603 103.684 36.1187 104.012 36.1187 104.361ZM45.9312 107.978L48.228 100.447H50.2437L46.853 110.189C46.7749 110.397 46.6733 110.624 46.5483 110.869C46.4233 111.114 46.2593 111.345 46.0562 111.564C45.8582 111.788 45.6108 111.968 45.314 112.103C45.0171 112.244 44.6577 112.314 44.2358 112.314C44.0692 112.314 43.9077 112.298 43.7515 112.267C43.6004 112.241 43.4572 112.213 43.3218 112.181L43.314 110.744C43.366 110.749 43.4285 110.754 43.5015 110.759C43.5796 110.765 43.6421 110.767 43.689 110.767C44.0015 110.767 44.2619 110.728 44.4702 110.65C44.6785 110.577 44.8478 110.457 44.978 110.291C45.1134 110.124 45.228 109.9 45.3218 109.619L45.9312 107.978ZM44.6343 100.447L46.6421 106.775L46.978 108.759L45.6733 109.095L42.603 100.447H44.6343ZM56.064 106.611C56.064 106.423 56.0171 106.254 55.9233 106.103C55.8296 105.947 55.6499 105.806 55.3843 105.681C55.1239 105.556 54.7384 105.442 54.228 105.338C53.7801 105.239 53.3687 105.121 52.9937 104.986C52.6239 104.845 52.3062 104.676 52.0405 104.478C51.7749 104.28 51.5692 104.046 51.4233 103.775C51.2775 103.504 51.2046 103.192 51.2046 102.838C51.2046 102.494 51.2801 102.168 51.4312 101.861C51.5822 101.554 51.7983 101.283 52.0796 101.048C52.3608 100.814 52.702 100.629 53.103 100.494C53.5093 100.358 53.9624 100.291 54.4624 100.291C55.1707 100.291 55.7775 100.41 56.2827 100.65C56.7931 100.884 57.1838 101.205 57.4546 101.611C57.7254 102.012 57.8608 102.465 57.8608 102.97H55.978C55.978 102.746 55.9207 102.538 55.8062 102.345C55.6968 102.147 55.5301 101.989 55.3062 101.869C55.0822 101.744 54.8009 101.681 54.4624 101.681C54.1395 101.681 53.8713 101.733 53.6577 101.838C53.4494 101.936 53.2931 102.067 53.189 102.228C53.09 102.39 53.0405 102.567 53.0405 102.759C53.0405 102.9 53.0666 103.028 53.1187 103.142C53.1759 103.252 53.2697 103.353 53.3999 103.447C53.5301 103.535 53.7072 103.619 53.9312 103.697C54.1603 103.775 54.4468 103.851 54.7905 103.923C55.4364 104.059 55.991 104.233 56.4546 104.447C56.9233 104.655 57.2827 104.926 57.5327 105.259C57.7827 105.588 57.9077 106.004 57.9077 106.509C57.9077 106.884 57.827 107.228 57.6655 107.541C57.5093 107.848 57.2801 108.116 56.978 108.345C56.6759 108.569 56.314 108.744 55.8921 108.869C55.4754 108.994 55.0067 109.056 54.4858 109.056C53.7202 109.056 53.0718 108.921 52.5405 108.65C52.0093 108.374 51.6056 108.022 51.3296 107.595C51.0588 107.163 50.9233 106.715 50.9233 106.252H52.7437C52.7645 106.601 52.8608 106.879 53.0327 107.088C53.2098 107.291 53.4285 107.439 53.689 107.533C53.9546 107.621 54.228 107.666 54.5093 107.666C54.8478 107.666 55.1317 107.621 55.3608 107.533C55.59 107.439 55.7645 107.314 55.8843 107.158C56.0041 106.996 56.064 106.814 56.064 106.611ZM61.5718 100.447V108.9H59.6812V100.447H61.5718ZM59.5562 98.2281C59.5562 97.9417 59.6499 97.7047 59.8374 97.5172C60.0301 97.3245 60.2957 97.2281 60.6343 97.2281C60.9676 97.2281 61.2306 97.3245 61.4233 97.5172C61.616 97.7047 61.7124 97.9417 61.7124 98.2281C61.7124 98.5094 61.616 98.7438 61.4233 98.9313C61.2306 99.1188 60.9676 99.2125 60.6343 99.2125C60.2957 99.2125 60.0301 99.1188 59.8374 98.9313C59.6499 98.7438 59.5562 98.5094 59.5562 98.2281ZM67.0874 107.556C67.3947 107.556 67.6707 107.496 67.9155 107.377C68.1655 107.252 68.366 107.08 68.5171 106.861C68.6733 106.642 68.7593 106.39 68.7749 106.103H70.5483C70.5379 106.65 70.3765 107.147 70.064 107.595C69.7515 108.043 69.3374 108.4 68.8218 108.666C68.3062 108.926 67.7358 109.056 67.1108 109.056C66.465 109.056 65.9025 108.947 65.4233 108.728C64.9442 108.504 64.5457 108.197 64.228 107.806C63.9103 107.416 63.6707 106.965 63.5093 106.455C63.353 105.944 63.2749 105.397 63.2749 104.814V104.541C63.2749 103.957 63.353 103.41 63.5093 102.9C63.6707 102.384 63.9103 101.931 64.228 101.541C64.5457 101.15 64.9442 100.845 65.4233 100.627C65.9025 100.403 66.4624 100.291 67.103 100.291C67.7801 100.291 68.3739 100.426 68.8843 100.697C69.3947 100.963 69.7957 101.335 70.0874 101.814C70.3843 102.288 70.5379 102.84 70.5483 103.47H68.7749C68.7593 103.158 68.6812 102.877 68.5405 102.627C68.4051 102.371 68.2124 102.168 67.9624 102.017C67.7176 101.866 67.4233 101.791 67.0796 101.791C66.6994 101.791 66.3843 101.869 66.1343 102.025C65.8843 102.176 65.689 102.384 65.5483 102.65C65.4077 102.91 65.3062 103.205 65.2437 103.533C65.1864 103.856 65.1577 104.192 65.1577 104.541V104.814C65.1577 105.163 65.1864 105.502 65.2437 105.83C65.3009 106.158 65.3999 106.452 65.5405 106.713C65.6864 106.968 65.8843 107.173 66.1343 107.33C66.3843 107.481 66.702 107.556 67.0874 107.556ZM76.7358 106.611C76.7358 106.423 76.689 106.254 76.5952 106.103C76.5015 105.947 76.3218 105.806 76.0562 105.681C75.7957 105.556 75.4103 105.442 74.8999 105.338C74.452 105.239 74.0405 105.121 73.6655 104.986C73.2957 104.845 72.978 104.676 72.7124 104.478C72.4468 104.28 72.241 104.046 72.0952 103.775C71.9494 103.504 71.8765 103.192 71.8765 102.838C71.8765 102.494 71.952 102.168 72.103 101.861C72.2541 101.554 72.4702 101.283 72.7515 101.048C73.0327 100.814 73.3739 100.629 73.7749 100.494C74.1812 100.358 74.6343 100.291 75.1343 100.291C75.8426 100.291 76.4494 100.41 76.9546 100.65C77.465 100.884 77.8556 101.205 78.1265 101.611C78.3973 102.012 78.5327 102.465 78.5327 102.97H76.6499C76.6499 102.746 76.5926 102.538 76.478 102.345C76.3687 102.147 76.202 101.989 75.978 101.869C75.7541 101.744 75.4728 101.681 75.1343 101.681C74.8114 101.681 74.5431 101.733 74.3296 101.838C74.1213 101.936 73.965 102.067 73.8608 102.228C73.7619 102.39 73.7124 102.567 73.7124 102.759C73.7124 102.9 73.7384 103.028 73.7905 103.142C73.8478 103.252 73.9416 103.353 74.0718 103.447C74.202 103.535 74.3791 103.619 74.603 103.697C74.8322 103.775 75.1187 103.851 75.4624 103.923C76.1082 104.059 76.6629 104.233 77.1265 104.447C77.5952 104.655 77.9546 104.926 78.2046 105.259C78.4546 105.588 78.5796 106.004 78.5796 106.509C78.5796 106.884 78.4989 107.228 78.3374 107.541C78.1812 107.848 77.952 108.116 77.6499 108.345C77.3478 108.569 76.9858 108.744 76.564 108.869C76.1473 108.994 75.6785 109.056 75.1577 109.056C74.3921 109.056 73.7437 108.921 73.2124 108.65C72.6812 108.374 72.2775 108.022 72.0015 107.595C71.7306 107.163 71.5952 106.715 71.5952 106.252H73.4155C73.4364 106.601 73.5327 106.879 73.7046 107.088C73.8817 107.291 74.1004 107.439 74.3608 107.533C74.6265 107.621 74.8999 107.666 75.1812 107.666C75.5197 107.666 75.8035 107.621 76.0327 107.533C76.2619 107.439 76.4364 107.314 76.5562 107.158C76.6759 106.996 76.7358 106.814 76.7358 106.611Z" fill="#023047"/>
</g>
<a href="http://www.phy.iitb.ac.in/">
<rect fill="black" fill-opacity="0" y="0.125" width="55.8594" height="18.75"/>
</a>
</g>
</g>
</g>
<defs>
<filter id="filter0_d_4295_1793" x="0" y="1" width="187.2" height="187.2" filterUnits="userSpaceOnUse" color-interpolation-filters="sRGB">
<feFlood flood-opacity="0" result="BackgroundImageFix"/>
<feColorMatrix in="SourceAlpha" type="matrix" values="0 0 0 0 0 0 0 0 0 0 0 0 0 0 0 0 0 0 127 0" result="hardAlpha"/>
<feOffset dx="3.6" dy="3.6"/>
<feGaussianBlur stdDeviation="1.8"/>
<feComposite in2="hardAlpha" operator="out"/>
<feColorMatrix type="matrix" values="0 0 0 0 0 0 0 0 0 0 0 0 0 0 0 0 0 0 0.25 0"/>
<feBlend mode="normal" in2="BackgroundImageFix" result="effect1_dropShadow_4295_1793"/>
<feBlend mode="normal" in="SourceGraphic" in2="effect1_dropShadow_4295_1793" result="shape"/>
</filter>
<linearGradient id="paint0_linear_4295_1793" x1="5.31818" y1="7.95455" x2="174.273" y2="45.5909" gradientUnits="userSpaceOnUse">
<stop stop-color="#023047"/>
<stop offset="0.472141" stop-color="#063E56"/>
<stop offset="1" stop-color="#219EBC"/>
</linearGradient>
</defs>
</svg>
